<?xml version="1.0" encoding="utf-8"?>
<!-- Generator: Adobe Illustrator 18.1.0, SVG Export Plug-In . SVG Version: 6.00 Build 0)  -->
<svg version="1.1" id="Слой_1" xmlns="http://www.w3.org/2000/svg" xmlns:xlink="http://www.w3.org/1999/xlink" x="0px" y="0px"
	 viewBox="0 0 100 100" enable-background="new 0 0 100 100" xml:space="preserve">
<path fill-rule="evenodd" clip-rule="evenodd" fill="#747474" d="M36,95v-4c0,0,41.3,1,42,1c5.5,0,10,0.7,10,1.5
	c0,0.8-4.5,1.5-10,1.5C77.3,95,36,95,36,95z M20,96L20,96l40,0v0c4.6,0.2,8,1,8,2c0,1-3.4,1.8-8,2v0H20v0c-4.6-0.2-8-1-8-2
	C12,97,15.4,96.2,20,96z M0,78.5C0,77.7,4.5,77,10,77h40v3H10C4.5,80,0,79.3,0,78.5z M98.1,81.2c-0.8,0.2-1.9,0.4-3.1,0.6L66,87
	l-1-3l13-2c0,0,2-1.3,2-2c0-1.1,4.5-2,10-2c5.5,0,9.9,0.9,10,2C100,80.7,98.1,81.2,98.1,81.2z"/>
<g>
	<path fill="#FEF1E0" d="M20.2,35.8l0,0.3C20.2,36.1,20.3,35.9,20.2,35.8z"/>
	<path fill="#FEF1E0" d="M4.5,58.1c2.8-3.6,3.7-4,3.9-3.9l-2.1-5.9c0,0-0.3,0.1-0.8,0.2C0,59.2-0.1,67.5,2.1,72.8
		C1.7,68.2,1.8,61.5,4.5,58.1z"/>
	<path fill="#FEF1E0" d="M8.4,54.2l0.1,0.3C8.5,54.5,8.5,54.3,8.4,54.2z"/>
	<path fill="#FEBD4B" d="M48.3,47.8c-8.7,8.6-16.9,16.2-23.7,22.1c6.5-5,14.6-12.2,24.2-21.7C59.2,37.9,66.9,29.4,72,22.7
		C66,29.7,57.7,38.5,48.3,47.8z"/>
	<path fill="#FEF1E0" d="M15.6,38.8c3.5-3,4.4-3.2,4.6-3.1l-0.9-6.2c0,0-0.1,0-0.4,0c-2.8,3.1-3.6,3.7-5.8,6.8l-3.4,9.5l-1.2,0.5
		c0.6,6.7,1.5,11,1.5,11S10.3,43.3,15.6,38.8z"/>
	<path fill="#FFDB9E" d="M22.2,42.8c-4-3.4-4.9-8.1-2.7-13.9c0,0,0.3-0.3,0.3-0.4H24C22.3,35.3,22.1,40.4,22.2,42.8z"/>
	<path fill="#FFDB9E" d="M9.8,55.7c-2.4-2.1-3.7-4.7-4-7.8c0,0,0.1-0.3,0.2-0.4l3.8-1.6l0-0.2C9.3,50,9.5,53.6,9.8,55.7z"/>
	<path fill="#766259" d="M50.9,9.8l0.4-0.9L52.6,6C51.9,7.3,51.3,8.6,50.9,9.8L50.9,9.8z"/>
	<path fill="#766259" d="M78.5,4.2c-2-1.9-5.5-3.5-9.9-4C68,0.1,65,0,64.8,0c-3.1,0.1-6.1,0.8-10.1,2.2c-0.8,0.3-1.6,0.6-2.5,0.9
		l-2.3,5.2h-7.6c-0.3,0.2-0.7,0.4-1,0.6c-0.4,0.3-2.6,1.7-3.2,2.2L36,17.6h-5.9c-0.3,0.3-0.6,0.6-0.9,0.8c-0.6,0.5-3.2,2.9-3.9,3.6
		l-1.8,5.8h-3.9c-0.2,0.2-6.4,7.3-7.1,8.3l-3.3,9.2l-3.7,1.6c-0.2,0.3-0.3,0.6-0.4,0.8c-7.8,15.2-5.1,25.5-0.7,29.8
		c1,1,2.3,1.5,3.9,1.5c8.3,0,23.9-13.2,41.2-30.3C69.8,28.4,84.9,10.5,78.5,4.2z"/>
	<path fill="#CE9841" d="M8.1,77.5c9.9,0,32.7-22.5,40.1-29.9C55.8,40.3,78.5,17.8,78.5,8c0-1.2-0.3-2.1-1-2.8
		c-0.9-0.9-2.1-1.6-3.4-2.2c0.8,1.8,0.7,4.3-3.3,6.6c-2.9,1.7-6.8,4.2-6.9,4.6C57.4,19,48.6,26.6,36.8,38.7
		C23.8,51.9,16.3,61.6,12.1,68.5c-3.2,4.3-6.7,5-8.8,5.3c0.5,0.8,1.4,2.1,2,2.7C6,77.2,6.9,77.5,8.1,77.5z"/>
	<path fill="#FEBD4B" d="M24.7,28.8L24.7,28.8c0.2-0.7,0.3-1.3,0.5-1.9C25,27.5,24.8,28.2,24.7,28.8z"/>
	<path fill="#FFDB9E" d="M49.2,9.8c-1.4,3.6-2.1,6.5-2.4,8.6c-2.3-2.8-3.7-5.8-3.9-8.6H49.2z"/>
	<path fill="#FFDB9E" d="M30.6,19.1C30.6,19.1,30.6,19.1,30.6,19.1l5.4,0h0.2c-0.9,5.2-1,9.6-1,12.4C30.8,27.1,30.4,21.8,30.6,19.1z
		"/>
	<path fill="#FFDB9E" d="M20.2,29.3C20.2,29.3,20.2,29.3,20.2,29.3l2.8,0c-1.2,5-1.5,9.1-1.6,11.7C18.8,38,18.4,34.1,20.2,29.3z"/>
	<path fill="#FFDB9E" d="M8.9,47c-0.2,2.6-0.2,4.9-0.1,6.7c-1.3-1.6-2.1-3.5-2.3-5.6L8.9,47z"/>
	<polygon fill="#766259" points="41.5,10.7 41.5,10.7 41.5,10.7 	"/>
	<path fill="#766259" d="M24.7,28.8L24.7,28.8c0.2-0.7,0.3-1.3,0.5-1.9C25,27.5,24.8,28.2,24.7,28.8z"/>
	<path fill="#FEBD4B" d="M74.1,3c-1.7-0.7-3.6-1.2-5.7-1.4c-0.7-0.1-3.5-0.1-3.9-0.1c-3.4,0.2-7,1.1-10.9,2.7
		C47.9,14.5,48,21.8,48,21.8c-2.5-2.3-4.2-4.6-5.2-6.9c-0.4,0.2-0.8,0.5-1.2,0.8c-3.6,2.6-4.6,9.4-4.9,13.9c0,3.2,0.2,5.2,0.2,5.2
		c-3.6-2.5-5.8-5.6-6.9-8.9c-0.7,0.4-1.5,1-2.4,1.8C22.8,31.9,22.9,42.5,23,44c0,0.3,0,0.4,0,0.4c-2.3-1.6-4.4-4.3-5.4-7.7
		c-6.6,4.6-7,14.2-7.3,17.3c0.1,2.1,0.4,3.4,0.4,3.4c-1.3-0.9-2.2-1.8-3-2.8c0,0,0,0,0,0c-3.8,2.6-5.5,8.9-6.1,11.7
		c0.1,3.3,0.9,6.4,2.2,8c2.1-0.3,5.2-1.6,8.4-5.9c4.2-6.8,11.7-16.5,24.6-29.7C48.6,26.6,57.4,19,63.9,14.2c0.1-0.4,4-2.9,6.9-4.6
		C74.8,7.3,74.9,4.9,74.1,3z"/>
	<path fill="#FEF1E0" d="M41.8,16c0.4-0.4,0.8-0.7,1.1-0.9c-0.7-1.4-1.2-3.1-1.4-4.4c-0.7,0.5-1.4,0.9-2.1,1.4c0,0-1.3,3.1-2.2,10
		c-0.4,2.9-0.5,5.5-0.5,7.6C36.9,25.1,39.1,18.5,41.8,16z"/>
	<path fill="#FEF1E0" d="M27.6,27.7c0.9-0.8,1.7-1.4,2.4-1.8c-0.7-1.9-0.9-3.9-0.9-5.7c0,0.1-1.6,1.8-2.5,2.6l-1.9,5.9
		c-2,8.1-1.8,13.7-1.7,15.2C22.9,42.5,22.8,31.9,27.6,27.7z"/>
	<path fill="#FEF1E0" d="M7.7,54.7C7.7,54.7,7.7,54.6,7.7,54.7c-1.1-1.4-1.8-2.9-2.2-4.4c-3,6.4-4.1,11.8-3.9,16.2
		C2.2,63.6,3.9,57.3,7.7,54.7z"/>
	<path fill="#FEF1E0" d="M18.2,38.1c-0.7-2.3-0.7-3.9-0.3-6.2c-2.2,2.5-2.3,2.4-4.1,4.9l-2.4,6.6c-0.6,1.7-1,3.5-1.1,5.4
		c-0.1,2.1,0,3.9,0.1,5.3C10.6,50.9,11.4,41.5,18.2,38.1z"/>
	<path fill-rule="evenodd" clip-rule="evenodd" fill="#FEF1E0" d="M63,3c3.3-0.4,6-0.1,6.1,0.7c0.1,0.8-2.5,1.8-5.7,2.2
		c-3.3,0.4-6,0.1-6.1-0.7C57.1,4.4,59.7,3.4,63,3z"/>
	<path fill-rule="evenodd" clip-rule="evenodd" fill="#FEF1E0" d="M63,3c3.3-0.4,6-0.1,6.1,0.7c0.1,0.8-2.5,1.8-5.7,2.2
		c-3.3,0.4-6,0.1-6.1-0.7C57.1,4.4,59.7,3.4,63,3z"/>
</g>
<path fill="#A6763C" d="M93.9,64.4c0,0.5-0.5,0.9-1,0.9c-0.5,0-0.9-0.5-0.9-1l0.9-15.4c0-0.5,0.5-0.9,1-0.9c0.5,0,0.9,0.5,0.9,1
	L93.9,64.4z"/>
<path fill="#FEBD4B" d="M12.9,94.1c0,0.2,0.1,0.5,0.2,0.7v-2C13,93.3,12.9,93.7,12.9,94.1z"/>
<path fill="#CE9841" d="M13.2,92.9L13.2,92.9C13.2,92.9,13.2,92.9,13.2,92.9C13.2,92.9,13.2,92.9,13.2,92.9z"/>
<g>
	<path fill="#865E31" d="M58.7,73.4c0,3.2,10.9,10.7,14.5,10.8L91,79.6h0.1c3.2,0,5.8-2.8,5.8-6.2c0-0.1-0.3-10.1,0.2-18.5
		c0.3-3.8,0.9-7.2,1.3-9.5l0-0.1l0-0.1c0.3-0.5,0.4-1.1,0.4-1.9l0-0.1l0-0.1c0,0,0,0,0-0.1c0-0.4,0-0.9-0.1-1.3l-40.1,8V73.4z"/>
	<path fill="#A6763C" d="M77.8,31c-0.7,0-1.4,0-2,0.1l-0.3,0l-0.3,0.1c-2.2,0.2-4.4,0.5-6.5,1.1l-17.8,3.3l4.7,7.1h1l0,0.7
		c0,1.5,0.6,2.6,1.7,3.3l0.3,0.2l-0.1,3.3l40.1-8C97.6,36.1,88.7,31,77.8,31z"/>
	<path fill="#766259" d="M77.8,31.7c11,0,20.3,5.2,20.4,11.4l0,0v0l0,0l0,0.2c0,0.6-0.1,1.1-0.3,1.6l-0.1,0.2l0,0.2
		c-0.5,2.3-1.1,5.8-1.4,9.6c-0.6,8.2-0.3,18-0.2,18.6c0,3-2.3,5.4-5.1,5.4h-0.2l-0.2,0l-17.5,4.6c-1.3-0.1-4.6-1.6-8-4.1
		c-4.1-3-5.7-5.2-5.7-6V47.3v-0.8l-0.7-0.4c-0.9-0.6-1.3-1.4-1.4-2.7l0-1.5h-1.3l-3.9-5.9l16.6-3.1l0.1,0l0.1,0
		c2-0.6,4.1-0.9,6.3-1.1l0.1,0l0.1,0l0,0l0.4,0C76.6,31.7,77.2,31.7,77.8,31.7 M77.8,30.2c-0.7,0-1.4,0-2.1,0.1l-0.6,0
		c-2.3,0.2-4.5,0.6-6.6,1.1L49.7,35l5.6,8.4h0.7c0.1,1.8,0.8,3.1,2.1,3.9v26.1C58,77.3,69.7,85,73.4,85l17.7-4.6
		c3.6,0,6.6-3.1,6.6-6.9c0,0-0.4-10,0.2-18.4c0.3-3.8,0.9-7.2,1.3-9.4c0.3-0.6,0.5-1.3,0.5-2.2c0-0.1,0-0.1,0-0.1c0,0,0-0.1,0-0.1
		c0,0,0,0,0-0.1C99.7,36,89.9,30.2,77.8,30.2L77.8,30.2z"/>
	<g>
		<path fill-rule="evenodd" clip-rule="evenodd" fill="#FEF1E0" d="M42.3,84.3c-3,0-5.5-2.4-5.5-5.5c0,0,0.5-8.6-0.1-16.6
			c-0.4-5.4-1.3-10.6-1.8-13.3c-0.1-0.3-0.2-1.4-0.2-1.6c0-6.7,9.5-12.2,21.2-12.2c11.7,0,21.2,5.5,21.2,12.2c0,0.1,0,0.2,0,0.2
			l0,0.1l0,0.1l0,0.1c0,0.4-0.1,0.8-0.2,1c-0.5,2.7-1.4,7.8-1.8,13.2C74.5,70.2,75,78.8,75,78.8c0,3-2.5,5.4-5.5,5.4H42.3z"/>
		<path fill="#766259" d="M55.9,35.9c11,0,20.4,5.2,20.4,11.4c0,0.1,0,0.2,0,0.3l0,0.1l0,0.1c0,0,0,0,0,0c0,0,0,0,0,0l0,0.1l0,0.1
			c0,0.3-0.1,0.6-0.2,0.8l0,0.1l0,0.1c-0.5,2.6-1.4,7.8-1.8,13.2c-0.5,7.8-0.1,16.1-0.1,16.8c0,2.6-2.1,4.7-4.8,4.7H42.3
			c-2.6,0-4.7-2.1-4.8-4.7c0-0.7,0.4-8.9-0.1-16.7c-0.4-5.5-1.3-10.7-1.8-13.3l0,0l0-0.1c0-0.2-0.2-1.1-0.2-1.3
			C35.6,41.1,44.9,35.9,55.9,35.9 M55.9,34.4c-12.1,0-21.9,5.8-21.9,13c0,0.1,0.2,1.4,0.3,1.7c0.5,2.3,1.4,7.7,1.8,13.2
			c0.5,8.1,0.1,16.6,0.1,16.6c0,3.4,2.8,6.2,6.3,6.2h27.1c3.5,0,6.3-2.8,6.3-6.2c0,0-0.5-8.5,0.1-16.6c0.4-5.4,1.3-10.6,1.7-13
			c0.1-0.3,0.2-0.7,0.2-1.1c0-0.1,0-0.2,0-0.2c0,0,0-0.1,0-0.1c0-0.1,0-0.2,0-0.3C77.8,40.2,68,34.4,55.9,34.4L55.9,34.4z"/>
	</g>
	<ellipse fill="#E7D2B4" cx="67.1" cy="62.4" rx="1.7" ry="1.7"/>
	<circle fill="#E7D2B4" cx="49.2" cy="56.1" r="1.7"/>
	<ellipse fill="#E7D2B4" cx="48.1" cy="66.4" rx="1.7" ry="1.7"/>
	<ellipse fill="#E7D2B4" cx="41.6" cy="47.2" rx="1.7" ry="1.6"/>
	<ellipse fill="#E7D2B4" cx="59.5" cy="53.4" rx="1.7" ry="1.6"/>
	<ellipse fill="#E7D2B4" cx="67.9" cy="47" rx="1.7" ry="1.6"/>
	<ellipse fill="#E7D2B4" cx="55.9" cy="42" rx="1.7" ry="1.6"/>
</g>
<g>
	<g>
		<path fill-rule="evenodd" clip-rule="evenodd" fill="#B2C455" d="M46.4,82.5c-3.3,0-7.4-1.2-10.6-3.1C30.1,76,30,69.1,30,68.8
			l0-0.6l0.6-0.1c0.1,0,1.8-0.4,4.3-0.4c3.2,0,6,0.7,8.3,2.1c5.9,3.5,9.2,8.3,7.7,11C50.2,81.9,48.7,82.5,46.4,82.5z"/>
		<path fill="#766259" d="M34.8,68.4c2.3,0,5.3,0.4,7.9,2c5.4,3.2,8.7,7.7,7.4,10c-0.5,0.9-1.9,1.3-3.8,1.3c-2.9,0-7-1.1-10.2-3
			c-5.4-3.2-5.4-9.9-5.4-9.9S32.5,68.4,34.8,68.4 M34.8,66.9L34.8,66.9c-2.5,0-4.4,0.4-4.5,0.5l-1.1,0.3l0,1.2
			c0,0.3,0.1,7.6,6.1,11.2c3.3,2,7.6,3.2,11,3.2c3.3,0,4.6-1.2,5.1-2.1c2-3.6-2.5-8.8-7.9-12C41.1,67.6,38.1,66.9,34.8,66.9
			L34.8,66.9z"/>
	</g>
	<g>
		<path fill="#FEBD4B" d="M60.5,73.3c-5.8,0.3-10.4,2.5-12.7,5.1c4.4,0.5,9.7,2.2,15,5.1c2.4,1.3,4.5,2.8,6.5,4.3
			c7.8,0,13.2-1.5,13.8-3.7c-0.2-0.3-0.6-1.3-0.8-1.6c-2.8,0-5.4-0.7-8.6-1.7C67.6,78.9,62.8,76.4,60.5,73.3z"/>
		<path fill="#FEF1E0" d="M42.9,78.3c1.5-0.3,3.3-0.3,5.3-0.1c2.3-2.5,6.5-4.5,12.2-4.8c-0.6-0.9-1.1-1.8-1.3-2.7
			C51.3,71.2,45.3,75.4,42.9,78.3z"/>
		<path fill="#CE9841" d="M77.1,76.4c-0.3-0.1-0.7-0.2-1.1-0.4c-5.9-2.2-11.2-2.9-15.6-2.6c2.2,3.2,7,6.2,13,8
			c3.2,1,6.4,1.4,9.1,1.4C81.4,80.8,79.6,78.4,77.1,76.4z"/>
		<path fill="#CE9841" d="M84.5,87.4l-0.3-0.2l-0.1-0.3c-0.1-0.8-0.5-1.8-1-3c-0.7,2.2-6,3.6-13.7,3.6c-1.9-1.5-4-2.9-6.4-4.2
			c-5.2-2.9-10.4-4.6-14.8-5.1c-2-0.2-3.8-0.2-5.3,0.1c-0.7,0.9-1.2,1.7-1.2,2.3c0,0.4,0,0.9,0,1.3c0.1,1.9,0.5,4.2,2.5,6.2
			c3.3,3.4,9.9,5.1,19.8,5.1c3.6,0,6.2,0,8.3-0.1l0.4,0l0.1,0.1c0,0,1.3,0,1.3,0s2.7,0,3.5,0c7.7,0,9.4-0.4,9.8-0.7
			C88,90.8,86.5,88.5,84.5,87.4z"/>
		<path fill="#CE9841" d="M60.8,70.6c-0.6,0-1.1,0-1.6,0.1c0.2,0.9,0.6,1.8,1.3,2.7c4.4-0.3,9.6,0.4,15.6,2.6
			c0.4,0.1,0.7,0.3,1.1,0.4c-3.2-2.6-7.5-4.8-13.1-5.5C62.9,70.7,61.8,70.6,60.8,70.6z"/>
	</g>
	<path fill="#766259" d="M60.8,71.4L60.8,71.4c1,0,2.1,0.1,3.1,0.2C76.8,73.3,82.7,82.9,83.4,87l0.1,0.7l0.6,0.3
		c1.5,0.9,2.8,2.6,2.6,4c-0.7,0.2-2.8,0.5-9.2,0.5c-0.9,0-1.6,0-2.3,0c-0.5,0-5.2,0.1-5.2,0.1s-2.5-0.1-6.1-0.1
		c-9.7,0-16.1-1.6-19.2-4.9c-1.7-1.7-2.4-4-2.3-7C42.6,78.8,49.8,71.4,60.8,71.4 M60.8,69.9c-11.3,0-19.7,7.5-19.8,10.7
		C40.8,86.3,42.9,94,64,94c3.3,0,8.6,0,8.9,0c0.3,0,3.2,0,4.6,0c4.2,0,10.1-0.1,10.5-1c1-2.3-0.8-5-3.1-6.3
		c-0.8-4.3-6.9-14.8-20.8-16.6C62.9,70,61.9,69.9,60.8,69.9L60.8,69.9z"/>
	<g>
		<path fill="#FEBD4B" d="M61,86.8c-1.7-2.1-4.3-4.2-7.5-5.8C39,77.2,21.7,83.3,15,91l-1.3,1c-0.2,0.3-0.4,0.5-0.5,0.9
			c5,0.7,10.9,1.6,17.4,1.6C45.4,94.4,57.8,90.3,61,86.8z"/>
		<path fill="#FEF1E0" d="M53.5,81c-3.7-1.9-8.2-3.2-13.5-3.2c-12.1,0-20.1,7.7-21.9,10.4c-0.4,0.6-1.1,1.1-2,1.7
			c-0.9,0.6-1.8,1.3-2.5,2.2l1.3-0.6C21.4,85.7,36.4,79.1,53.5,81z"/>
		<path fill="#CE9841" d="M37,98.3h6c21.1,0,24.2-2.6,24.2-4.1c0-2.3-1.9-3.6-3.5-4.7c-0.8-0.5-1.5-1-1.9-1.6
			c-0.3-0.4-0.6-0.7-0.9-1.1C57.8,90.3,45.4,94,30.6,94c-6.5,0-12.5-0.4-17.4-1.2c0,0,0,0,0,0v2C14.2,96.4,19.1,98.3,37,98.3z"/>
		<path fill="#766259" d="M40,78.5c10.5,0,18,5.3,21.3,9.8c0.5,0.7,1.2,1.2,2.1,1.7c1.9,1.3,3.2,2.3,3.2,4.1c0,0.5-1.5,1.9-8.5,2.7
			c-5.5,0.6-12.1,0.6-15,0.6h-6c-2.8,0-9.4,0-14.9-0.6c-6.9-0.8-8.5-2.2-8.5-2.7c0-1.6,1.2-2.5,2.9-3.7c0.8-0.6,1.6-1.2,2.1-1.9
			C20.5,86,28.2,78.5,40,78.5 M40,77c-12,0-20.3,7.5-22.5,10.7c-1.1,1.6-5.3,2.8-5.3,6.4C12.2,98.9,30,99,37,99c0.2,0,5.7,0,6,0
			c7.1,0,25-0.1,25-4.9c0-3.9-4.4-5.2-5.5-6.7C59.4,83.2,51.6,77,40,77L40,77z"/>
	</g>
	<g>
		<path fill-rule="evenodd" clip-rule="evenodd" fill="#C6DA60" d="M74.6,78.3c-1.1,0-2.1-0.1-3.1-0.3C66,76.7,59.9,73,59.8,70.7
			c-0.1-0.6,0.3-1.4,1-2.1c1.5-1.7,5-3.6,9.9-3.7l0.4,0c4.7,0,8.6,1.7,10.2,2.5c-0.6,0.6-1.5,1.5-2.7,2.3l-0.9,0.6l0.9,0.6
			c2.6,1.7,4.4,3.8,5.3,4.9C82.4,76.6,78.7,78.3,74.6,78.3z"/>
		<path fill="#766259" d="M71,65.6c3.8,0,7,1.2,8.9,2c-0.5,0.5-1.1,1-1.8,1.5l-1.7,1.3l1.8,1.2c2,1.3,3.5,2.9,4.5,4
			c-1.7,0.8-4.7,1.9-8,1.9c-1,0-2-0.1-2.9-0.3c-5.9-1.3-11.1-5-11.2-6.5c0-0.3,0.2-0.9,0.8-1.6c1.4-1.6,4.7-3.4,9.4-3.5
			C70.8,65.6,70.9,65.6,71,65.6 M71,64.1c-0.1,0-0.3,0-0.4,0c-7.2,0.1-11.9,4.1-11.6,6.7c0.2,2.8,6.9,6.6,12.4,7.9
			c1.1,0.2,2.2,0.4,3.2,0.4c5.6,0,10.4-3,10.4-3s-2.2-3.2-6-5.7c2.1-1.6,3.4-3.1,3.4-3.1S77.5,64.1,71,64.1L71,64.1z"/>
	</g>
</g>
<path fill="#766259" d="M65.9,0L65.9,0C65.9,0,66,0,66,0C66,0,65.9,0,65.9,0z"/>
<path fill="#766259" d="M66.1,1.5c0,0,0.1,0,0.1,0H66C66.1,1.5,66.1,1.5,66.1,1.5z"/>
</svg>
