<?xml version="1.0" encoding="utf-8"?>
<!-- Generator: Adobe Illustrator 18.1.0, SVG Export Plug-In . SVG Version: 6.00 Build 0)  -->
<svg version="1.1" id="Слой_1" xmlns="http://www.w3.org/2000/svg" xmlns:xlink="http://www.w3.org/1999/xlink" x="0px" y="0px"
	 viewBox="0 0 100 100" enable-background="new 0 0 100 100" xml:space="preserve">
<path fill="#766259" d="M59,18c-2.5-0.3-7.1,8.1-2-2c2.9-5.7,18.2-6.8,19.8-2.7C77.4,14.8,75,20.2,59,18z"/>
<path fill="#FF7658" d="M65.9,17c6.2,0,8.4-1.6,9.1-2.4c0.4-0.5,0.5-0.8,0.5-0.8c-0.2-0.6-1.9-1.5-5.5-1.5c-4.5,0-10,1.6-11.5,4.2
	c0.1,0,0.3,0,0.4,0c0.1,0,0.2,0,0.4,0C61.6,16.9,63.9,17,65.9,17"/>
<path fill="#766259" d="M38.8,10.6c-2.7-0.2-21.5,11.4-15.7,1.2C31.4-2.6,56.7-1.3,59,2.6C59.5,3.4,53.9,11.6,38.8,10.6z"/>
<path fill="#FF7658" d="M23.6,14.5c1.8,0,5.7-1.7,7.6-2.6l1.3-0.6c3.3-1.5,5.1-2.2,6.2-2.2l0.1,0l0,0c0.8,0.1,1.6,0.1,2.4,0.1
	c10.2,0,14.8-4.5,15.9-6.2c-1.1-0.6-4.1-1.5-8.7-1.5c-8.6,0-19.4,2.9-24.1,11C23.9,13.6,23.6,14.2,23.6,14.5"/>
<g>
	<path fill="#766259" d="M100,14.3c0-0.3-0.2-0.4-0.5-0.4c-1.1,0-3.9,1.7-7.5,3.3s-8,3.3-12.2,3.3c-2.4,0-4.8-0.5-6.9-1.9
		C65.2,12.7,53.2,6.3,41,4.1c-3.6-0.6-7.1-0.9-10.4-0.9C14.1,3.2,0.9,9.8,0,14.3c-0.3,1.6,0.9,4.1,3.2,6.9c-0.1,0-0.1,0-0.2,0
		c-1.7,0-2.8,0.3-3,0.8c-0.6,1.3,5.3,5.2,13.7,9.1c4.7,2.2,9,3.8,12,4.6c2.9,1,5.9,1.8,9.1,2.4c3.7,0.7,7.5,0.9,11.2,0.9
		c8.7,0,17.2-1.5,23.8-3.5c7.8,6.8,18.9,14.6,21.2,15c0.1,0,0.2,0,0.3,0C95.1,50.5,85,32,85,32S100,28,100,14.3z"/>
	<path fill="#9D9894" d="M4.4,20.3l2.1,2.5l-3.3,0l-0.2,0c-0.3,0-0.6,0-0.8,0c1.7,1.4,5.8,4,12.1,6.9c4.4,2.1,8.7,3.7,11.8,4.5
		l0.1,0l0.1,0c2.9,1,5.9,1.8,8.9,2.3c3.4,0.6,7.1,0.9,11,0.9c7.7,0,16.2-1.3,23.3-3.5l0.8-0.2l0.6,0.5c0.7,0.6,1.4,1.2,2.2,1.8
		c-0.5-1.6-1-5.2-1-7c-44.5-1-63.8-9.9-70.4-14.7c0,0-0.1,0.1-0.1,0.1C1.4,15.5,2,17.5,4.4,20.3z"/>
	<path fill="#FFFFFF" d="M41.8,9.1c9.6,1.9,22.3,6.7,30.2,10.8C64.8,14.1,51.7,7.6,40.7,5.6C37.4,5,34,4.7,30.5,4.7
		c-16.6,0-28,6.6-29,9.7c0,0,0,0,0.1,0.1C7.1,10.1,21.3,5.1,41.8,9.1z"/>
	<path fill="#CBCBCB" d="M1.6,14.5C8.2,19.3,27.7,30,72.1,31c-0.1-1.4,0-2.8,0.3-4.3c0.4-2,1-3.9,1.9-5.6c-0.8-0.3-1.5-0.7-2.2-1.1
		l-0.1,0l0,0c-0.7-0.5-1.5-1.1-2.3-1.7c-7.9-4.1-18.2-8-27.8-9.9C21.5,4.3,6.4,9.5,1.6,14.5z"/>
	<path fill="#9D9894" d="M1.5,14.6c0,0,0.1-0.1,0.1-0.1c0,0,0,0-0.1-0.1C1.6,14.5,1.5,14.6,1.5,14.6C1.5,14.6,1.5,14.6,1.5,14.6z"/>
	<path fill="#9D9894" d="M90.7,48.7c-0.1-0.4-0.2-0.8-0.3-1.4c-0.4,0.2-0.9,0.3-1.3,0.4C89.7,48.2,90.2,48.5,90.7,48.7z"/>
	<path fill="#766259" d="M75.3,21.4c-0.3-0.2-0.6-0.4-0.9-0.6c0,0.1-0.1,0.1-0.1,0.2C74.6,21.2,75,21.3,75.3,21.4z"/>
	<path fill="#D56B50" d="M73,36.1c0,0.1,0.1,0.2,0.1,0.3c0.1,0,0.1-0.1,0.2-0.1C73.2,36.3,73.1,36.2,73,36.1z"/>
	<path fill="#D56B50" d="M83.7,32.7l-1.9-3.7c0,0-6.4,0.6-9.6,1.9c0.1,1.8,0.4,3.5,0.9,5.2c0.1,0.1,0.2,0.2,0.3,0.2
		c5.8,4.8,12.2,9.4,15.7,11.4c0.5-0.1,0.9-0.3,1.3-0.4C89.4,44.1,86.5,37.9,83.7,32.7z"/>
	<path fill="#FF7658" d="M98.4,15.8c-0.7,0.3-1.6,0.7-2.3,1.1c-1,0.5-2.1,1.1-3.3,1.6c-3.2,1.5-8.1,3.5-12.9,3.5
		c-1.6,0-3.1-0.2-4.5-0.7c-0.3-0.1-0.7-0.2-1-0.4c-0.9,1.7-1.5,3.6-1.9,5.6c-0.3,1.5-0.3,2.9-0.3,4.3c3.3,0.1,6.8,0.1,10.3,0
		c0.1,0,0.3,0,0.4,0l1.7-0.5C85.2,30.4,97.4,27,98.4,15.8C98.4,15.9,98.4,15.9,98.4,15.8z"/>
</g>
<path fill-rule="evenodd" clip-rule="evenodd" fill="#FFFFFF" d="M19.9,9.4c2.3,0.4,3.8,2.6,3.4,4.9c-0.4,2.3-2.6,3.8-4.9,3.4
	c-2.3-0.4-3.8-2.6-3.4-4.9C15.4,10.5,17.6,9,19.9,9.4z"/>
<path fill="#766259" d="M27.5,8.3c-0.2-0.4,0-0.8,0.4-1c0.4-0.2,0.8,0,1,0.4c0.1,0.2,5.6,12.9-5.3,23.6c-0.3,0.3-0.8,0.3-1.1,0
	c-0.3-0.3-0.3-0.8,0-1.1C32.5,20.4,27.7,8.8,27.5,8.3L27.5,8.3"/>
<path fill="#766259" d="M19.1,16.2c1.3,0,2.4-0.9,2.6-2.2c0.3-1.5-0.7-2.9-2.2-3.1c-0.2,0-0.3,0-0.5,0c-1.3,0-2.4,0.9-2.6,2.2
	c-0.3,1.5,0.7,2.9,2.2,3.1C18.8,16.2,19,16.2,19.1,16.2"/>
<path fill="#FFFFFF" d="M36.8,11.4c-0.4-0.1-0.6-0.6-0.5-1c0.1-0.4,0.6-0.6,1-0.5c0.3,0.1,2.9,1.3,2.8,5.1c-0.2,4-3.3,4.9-3.3,4.9
	c-0.4,0.1-0.8-0.1-0.9-0.5c-0.1-0.4,0.1-0.8,0.5-0.9c0,0,2-0.6,2.2-3.6C38.7,12.2,37,11.4,36.8,11.4L36.8,11.4"/>
<path fill-rule="evenodd" clip-rule="evenodd" fill="#766259" d="M43.9,19.8c7.8-1.9,22.6-0.7,23.5,4.2c0.6,3.3-5.3,7.6-19,8.3
	c-11,0.6-20.7,5.7-21.8,0.9C25.4,28.4,33.1,22.4,43.9,19.8z"/>
<path fill="#FFA641" d="M29.9,33.8c1.6,0,4-0.5,6.7-1.1c3.5-0.8,7.4-1.6,11.7-1.9c10.1-0.5,15.5-3,17.1-5.1c0.3-0.4,0.6-0.9,0.5-1.4
	c-0.4-1.8-5.7-3.8-13.8-3.8c-2.9,0-5.7,0.3-7.9,0.8C33.6,23.8,27.2,29.5,28,32.9C28.1,33.3,28.2,33.8,29.9,33.8"/>
<path fill="#CCB98B" d="M81,51.3c0.4,1.5,0.8,2.9,1.4,4.2c0.7-0.3,1.3-0.6,2-0.9C83.2,53.5,82,52.4,81,51.3z"/>
<path fill="#CCB98B" d="M99,28c-0.6,0-1.5,0.2-2.7,0.6c1.3,0.2,2.5,0.6,3.6,1.2C100,28.8,99.8,28,99,28z"/>
<path fill="#FFFFFF" d="M80.8,38.9c-8-5.8-24.1-12.9-39.6-13.8C20.1,23.8,2.1,33.6,0.4,39.2c-0.1,0.2-0.1,0.5-0.1,0.7
	c0,0.6,0.1,1.2,0.5,1.9c0.4-0.6,1-1.3,1.7-2c5.7-5.5,21.1-12.1,38.6-11c13.7,0.8,29.8,6.6,39.9,12c0.2-1,0.5-1.9,0.8-2.8
	C81.4,38.3,81.1,38.6,80.8,38.9z"/>
<path fill="#CCB98B" d="M99,64c0.6,0,0.9-0.5,1-1.3c-0.6,0.4-1.3,0.8-2,1.1C98.4,63.9,98.7,64,99,64z"/>
<path fill="#CCB98B" d="M80.9,40.8C70.8,35.1,54.7,29.1,41,28.3C23.4,27.2,7.9,33.5,1.7,40.5c8.9,2.9,32.9,7.6,78.7,5.6
	c0-0.6,0-1.3,0.1-2C80.5,42.9,80.7,41.8,80.9,40.8z"/>
<path fill="#A3946F" d="M39.1,60.2c15.7,0.9,32.6-4.6,41.3-9.7c0.2,0.3,0.5,0.5,0.7,0.8c-0.4-1.6-0.6-3.4-0.6-5.2
	c-45.8,2-69.8-2.7-78.7-5.6c-0.7,0.7-0.6,0.7-1,1.4C3.5,48.3,19.3,59,39.1,60.2z"/>
<path fill="#FFA641" d="M96.3,28.7c-3.9,1.5-10.2,5.3-14.6,9.2c-0.3,0.9-0.6,1.9-0.8,2.9c-0.2,1.1-0.4,2.2-0.5,3.4
	c0,0.7-0.1,1.3-0.1,2c2.6-0.1,5.2-0.2,7.9-0.4c1.9-0.1,3.9-0.2,5.8-0.4c0.7-1.4,5.6-11.3,5.8-15.5C98.8,29.2,97.6,28.8,96.3,28.7z"
	/>
<path fill="#CA813B" d="M94,45.5c0,0,0-0.1,0.1-0.2c-2,0.1-3.9,0.3-5.8,0.4c-2.7,0.2-5.3,0.3-7.9,0.4c0,1.8,0.3,3.5,0.6,5.2
	c1,1.1,2.2,2.2,3.4,3.3c4.8,4.3,10.7,8.2,13.5,9.2c0.7-0.3,1.4-0.6,2-1.1C100.1,58.5,94,45.5,94,45.5z"/>
<path fill="#766259" d="M99.1,64C99,64,99,64,99.1,64c-2.9-0.2-13.4-7.4-18.8-13.5c-8,4.7-23.1,9.8-37.7,9.8c-1.2,0-2.4,0-3.6-0.1
	C17,58.9-0.1,45.6,0.2,39.9c0.3-5.4,16.9-15.7,37.4-15.7c1.2,0,2.4,0,3.6,0.1c15.5,0.9,31.6,8.4,39.6,14.4C86.2,33.5,96,28,98.9,28
	c0,0,0.1,0,0.1,0c3.8,0.2-5,17.5-5,17.5S102.7,64,99.1,64z M98.5,62.4c-0.1-2.4-2.9-10-5.8-16.2l-0.3-0.7l0.3-0.7
	c3.4-6.6,5.9-13.3,5.8-15.3C95.7,30,87,34.8,81.9,39.8l-0.9,0.9l-1-0.8c-8.2-6.2-23.8-13.2-38.8-14.1c-1.2-0.1-2.4-0.1-3.5-0.1
	C17.4,25.7,2,35.7,1.7,40c-0.3,4.6,16,17.5,37.4,18.8c1.1,0.1,2.3,0.1,3.5,0.1c14.2,0,29.1-5,36.9-9.6l1.1-0.6l0.8,0.9
	C86.5,55.3,95.5,61.4,98.5,62.4"/>
<path fill="#766259" d="M24.6,30.1c-0.2-0.4-0.1-0.8,0.3-1c0.4-0.2,0.8-0.1,1,0.3c0.1,0.2,6.7,11.6-2.4,22.9
	c-0.3,0.3-0.7,0.4-1.1,0.1c-0.3-0.3-0.4-0.7-0.1-1.1C30.7,40.9,24.9,30.6,24.6,30.1L24.6,30.1"/>
<path fill="#FFFFFF" d="M35.6,44.4c-0.4-0.1-0.6-0.6-0.4-1c0.1-0.4,0.6-0.6,1-0.4c0.3,0.1,2.9,1.3,2.7,5.1c-0.2,3.8-3,4.8-3.3,4.9
	c-0.4,0.1-0.8-0.1-0.9-0.5c-0.1-0.4,0.1-0.8,0.5-0.9c0.2-0.1,2.1-0.7,2.2-3.5C37.5,45.3,35.7,44.5,35.6,44.4L35.6,44.4"/>
<path fill="#FFFFFF" d="M46,37c-0.4-0.1-0.6-0.6-0.4-1c0.1-0.4,0.6-0.6,1-0.4c0.3,0.1,2.9,1.3,2.7,5.1c-0.2,3.8-3,4.8-3.3,4.9
	c-0.4,0.1-0.8-0.1-0.9-0.5c-0.1-0.4,0.1-0.8,0.5-0.9c0.2-0.1,2.1-0.8,2.2-3.5C47.9,37.9,46.2,37.1,46,37L46,37"/>
<path fill="#FFFFFF" d="M56.2,33.6c-0.4-0.1-0.6-0.6-0.4-1c0.1-0.4,0.6-0.6,1-0.4c0.3,0.1,2.9,1.3,2.7,5.1c-0.2,4-3.3,4.9-3.3,4.9
	c-0.4,0.1-0.8-0.1-0.9-0.5c-0.1-0.4,0.1-0.8,0.5-0.9c0,0,2-0.6,2.2-3.5C58.1,34.5,56.4,33.7,56.2,33.6L56.2,33.6"/>
<path fill="#FFFFFF" d="M36.4,30.4c-0.4-0.1-0.6-0.6-0.4-1c0.1-0.4,0.6-0.6,1-0.4c0.3,0.1,2.9,1.3,2.7,5.1c-0.2,3.8-3,4.8-3.3,4.9
	c-0.4,0.1-0.8-0.1-0.9-0.5c-0.1-0.4,0.1-0.8,0.5-0.9c0.2-0.1,2.1-0.8,2.2-3.5C38.3,31.3,36.6,30.5,36.4,30.4L36.4,30.4"/>
<g>
	<path fill="#9FC73A" d="M38.3,49.3c-2,0-3.9,0.6-5.4,1.7c-0.1-3.1-1.7-5.7-4.2-7.3c-1.4-0.9-3-1.4-4.7-1.4c-4,0-7.4,2.6-8.5,6.3
		c-1.6-0.3-3.3-0.2-4.8,0.5c-4.1,1.9-5.7,7-3.8,11.6c-4.5,1.5-7.3,5.6-6.3,9.5c1,4.2,6,6.6,11,5.4c2.2-0.5,4-1.6,5.4-3.1
		c2,1.5,4.4,2.4,7.1,2.4c3.3,0,6.3-1.4,8.5-3.6c1.1-1.1,2-2.4,2.5-3.9c1,0.4,2.1,0.6,3.3,0.6c5.2,0,9.4-4.2,9.4-9.4
		C47.6,53.5,43.4,49.3,38.3,49.3z"/>
	<path fill="#BFDB55" d="M30.1,66.2c0-3.7-2.1-7-5.1-8.7c1.4-1.7,2.2-3.8,2.2-6.1c0-3.1-1.5-5.9-3.8-7.8c-0.1-0.1-0.2-0.1-0.2-0.1
		h5.6c-1.4-0.9-3-1.4-4.7-1.4c-4,0-7.4,2.6-8.5,6.3c-1.6-0.3-3.3-0.2-4.8,0.5C6.7,50.9,5,56,6.9,60.6c-4.5,1.5-7.3,5.6-6.3,9.5
		c1,4.2,6,6.6,11,5.4c2.2-0.5,4-1.6,5.4-3.1c2,1.5,4.4,2.4,7.1,2.4c3.3,0,6.3-1.4,8.5-3.6h-3.7C29.6,69.7,30.1,68,30.1,66.2z"/>
</g>
<path fill="#766259" d="M8.7,76c-4.1,0-7.6-2.3-8.5-5.8c-1-3.9,1.9-8.1,6.4-9.6c-1.9-4.6-0.2-9.8,3.9-11.7c1-0.5,2.1-0.7,3.2-0.7
	c0.6,0,1.1,0.1,1.6,0.2C16.6,44.7,20,42,24,42c4.9,0,8.8,3.9,9,8.7c1.5-1.1,3.4-1.7,5.5-1.7c5.3,0,9.5,4.3,9.5,9.5
	c0,5.2-4.3,9.5-9.5,9.5c-1.2,0-2.3-0.2-3.3-0.6C33.4,71.8,29.1,75,24,75c-2.7,0-5.2-0.9-7.2-2.4c-1.3,1.4-3.2,2.6-5.4,3.1
	C10.5,75.9,9.6,76,8.7,76z M8.7,74.5c0.8,0,1.6-0.1,2.3-0.3c1.8-0.4,3.5-1.4,4.7-2.7l0.9-1l1.1,0.8c1.8,1.4,4,2.1,6.3,2.1
	c4.3,0,8.2-2.6,9.8-6.6l0.5-1.4l1.4,0.5c0.9,0.3,1.8,0.5,2.8,0.5c4.4,0,8-3.6,8-8c0-4.4-3.6-8-8-8c-1.7,0-3.2,0.5-4.6,1.5l-2.3,1.6
	l-0.1-2.8c-0.1-4.1-3.4-7.3-7.5-7.3c-3.3,0-6.2,2.1-7.2,5.3l-0.4,1.3l-1.3-0.3c-0.4-0.1-0.9-0.1-1.3-0.1c-0.9,0-1.8,0.2-2.6,0.6
	c-3.4,1.6-4.7,5.9-3.1,9.8l0.6,1.5L7.1,62c-3.9,1.3-6.2,4.7-5.4,7.8C2.4,72.6,5.3,74.5,8.7,74.5"/>
<g>
	<defs>
		<path id="SVGID_1_" d="M100,86c0,7.7-22.4,14-50,14S0,93.7,0,86v-7h6.7c8.6-4.2,24.8-7,43.3-7s34.6,2.8,43.3,7h6.7V86z"/>
	</defs>
	<use xlink:href="#SVGID_1_"  overflow="visible" fill-rule="evenodd" clip-rule="evenodd" fill="#747474"/>
	<clipPath id="SVGID_2_">
		<use xlink:href="#SVGID_1_"  overflow="visible"/>
	</clipPath>
</g>
<path fill="#766259" d="M50,98C22.4,98,0,91.7,0,84v-6.2L3.3,79c7.2-5.3,25.4-9,46.7-9s39.5,3.7,46.7,9l3.3-1v6
	C100,91.7,77.6,98,50,98z"/>
<path fill="#865E31" d="M50,96.5c28.6,0,48.5-6.6,48.5-12.5v-3.5h-1.8h-0.5l-0.4-0.3C88.7,75,70.3,71.5,50,71.5S11.3,75,4.2,80.2
	l-0.4,0.3H3.3H1.5V84C1.5,89.9,21.5,96.5,50,96.5"/>
<g>
	<polygon fill="#A6763C" points="100,79 100,79 100,79 	"/>
	<polygon fill="#E6A768" points="0,77.8 0,77.8 0,77.8 	"/>
	<polygon fill="#E6A768" points="100,77.8 100,77.8 100,77.8 	"/>
	<path fill="#E6A768" d="M2.1,81.8C2.1,81.5,2,81.3,2,81c0-7.7,22.4-14,50-14c26.8,0,46.9,4,47.9,11.4c0-0.2,0-0.4,0.1-0.5v0
		C100,71.3,77.6,64,50,64C22.4,64,0,72.3,0,77.8v0C0.1,79.2,0.8,80.5,2.1,81.8z"/>
	<path fill="#A6763C" d="M52,67C24.4,67,2,73.3,2,81c0,0.3,0,0.5,0.1,0.8c6.1,5.7,25.2,9.9,47.9,9.9c27,0,48.9-5.9,49.9-13.3
		C98.9,71,78.9,67,52,67z"/>
</g>
<path fill="#E6A768" d="M21.9,79.3c0.7,0.2,1.4-0.1,1.6-0.6c0.1-0.5-0.3-1.1-1.1-1.3L6.2,72.9c-0.8,0.4-1.5,0.9-2.1,1.4
	c0.2,0.2,0.4,0.3,0.7,0.4L21.9,79.3z"/>
<path fill="#E6A768" d="M68.3,84.4l-17.1-4.7c-0.7-0.2-1.4,0.1-1.6,0.6c-0.1,0.5,0.3,1.1,1.1,1.3l17.1,4.7c0.7,0.2,1.4-0.1,1.6-0.6
	C69.6,85.2,69.1,84.5,68.3,84.4z"/>
<path fill="#E6A768" d="M80.6,81.3c-0.1,0.5,0.3,1.1,1.1,1.3l8.2,2.2c1.1-0.4,2.1-0.8,3-1.3l-10.7-2.9
	C81.5,80.5,80.8,80.7,80.6,81.3z"/>
<path fill="#766259" d="M50,64C22.4,64,0,70.3,0,78c0,7.7,22.4,14,50,14c17.7,0,33.3-2.6,42.2-6.5c1-0.4,1.9-0.9,2.7-1.4
	c3.2-1.9,5.1-3.9,5.1-6.1C100,70.3,77.6,64,50,64z M92.9,83.6c-0.9,0.4-1.9,0.9-3,1.3c-8.5,3.2-22.6,5.6-39.8,5.6
	C21.5,90.5,1.5,83.9,1.5,78c0-1.2,0.9-2.5,2.5-3.7c0.6-0.5,1.3-0.9,2.1-1.4c7.5-4.1,23.5-7.4,43.8-7.4c28.6,0,48.5,6.6,48.5,12.5
	C98.5,79.9,96.5,81.8,92.9,83.6z"/>
<path fill="#766259" d="M32,85.9c-0.8,0-1.6,0.1-2.4,0.1c-7.1,0-12.9-1.8-12.9-4.1h0V68.5L94,56.2v13.3l-0.2,1.1
	c-1.1,3-7.3,5.6-15.6,6.6l-39.3,7.5c-1.6,0.5-3.7,0.9-6,1.1L32,85.9z"/>
<g>
	<path fill="#CBCBCB" d="M18.2,70v11.2l0,0.6c0.2,0.7,4.1,2.6,11.4,2.6c0.7,0,1.5,0,2.3-0.1l0.9-0.1l0.1,0c0.3,0,0.6-0.1,0.9-0.1V70
		H18.2z"/>
	<path fill="#CBCBCB" d="M87.9,57.8v15.5c2.6-1.1,4.1-2.3,4.5-3.3l0.1-0.3V57.7L87.9,57.8z"/>
	<path fill="#9F9997" d="M33.7,70v14.2c1.8-0.2,3.4-0.5,4.7-1l0.1,0l0.1,0L78,75.7c4.2-0.5,7.5-1.4,9.9-2.4V57.8L33.7,70z"/>
</g>
<path fill="#F17E7B" d="M69.3,50.6c-7.1,0-14.4,1-18.7,2.8l-1.3,0.9L21.4,68.3c-0.1,0-0.1,0-0.2,0.1c1.7,0.6,5.6,2.4,9.3,2.4l-0.1,0
	c0.7,0,47.2-9.5,47.2-9.5s13.2-2.3,13.5-5.2C91.3,54.6,83.4,50.6,69.3,50.6z"/>
<path fill="#FFF2EC" d="M29.6,72.4c-7.1,0-12.4-1.7-12.4-3.9c0-1.1,1.2-1.8,3.6-2.6l29.1-14.7c4.5-1.9,11.7-2.8,19.6-2.8
	c13.7,0,23.7,3.3,23.7,7.9c0,3.5-5.7,6-14.9,7.2l-39.5,7.3C37.1,71.2,30.4,72.4,29.6,72.4z M29.6,69.6c0.7,0,1.5,0,2.2-0.1l0.7,0
	l0.1,0l0.2,0c2-0.2,3.9-0.5,5.3-1l0.2-0.1l0.2,0l39.3-7.5l0.1,0l0.1,0c9.4-1.2,12.9-3.9,13.2-4.6c-0.4-1.4-7.6-5.3-21.7-5.3
	c-7.1,0-14,1.1-18.3,2.9l-1.1,0.5l0,0l-28,13.9l-0.2,0.1l-0.2,0.1c-0.1,0-0.1,0-0.2,0.1C22.9,69.1,25.8,69.6,29.6,69.6"/>
<path fill-rule="evenodd" clip-rule="evenodd" fill="#FFF2EC" d="M90.9,55.5c-7.2-4.2-15.1-2.2-15.1-2.2L68,55.8
	c0.2,1.5-2.1,3.2-5.1,3.9c-2.3,0.5-4.4,0.2-5.4-0.6L35.7,66c0,0-8.1,2.3-2.7,4c3.3,1-12.2,1.6-12.2,1.6l-3.3-3.1
	c0,0,2.7-2.6,4.5-1.5c2.4,1.4,12.2-1.5,12.2-1.5l22.8-7.2c0,0,0,0,0-0.1c-0.2-1.5,2.1-3.3,5.1-3.9c2.4-0.5,4.5-0.2,5.4,0.7l6-1.9
	c0,0,2.4-1.7-0.1-3.1c-1.4-0.7,6,1.1,6,1.1h5.2C84.7,51.1,92.6,56.5,90.9,55.5z"/>
<path fill="#766259" d="M32,72.6c-0.8,0-1.6,0.1-2.4,0.1C22,72.6,16.7,71,16.7,68.5c0-1,1.2-2,3.1-2.7c0.7-0.3,1.4-0.6,2.1-0.9
	l26.9-13.4c0.6-0.3,1.2-0.6,1.9-0.8c0.6-0.2,1.5-0.5,2-0.6C57,48.8,62.9,48,69.3,48C82.9,48,94,51.7,94,56.2c0,3.5-6.5,6.5-15.8,7.7
	l-39.3,7.5c-1.6,0.5-3.7,0.9-6,1.1L32,72.6z M29.6,71.1c0.7,0,1.5,0,2.3-0.1l0.4,0l0.6,0c2.2-0.2,4.1-0.6,5.6-1.1l0.1,0l0.1,0
	L78,62.4c9.4-1.2,14.5-4.1,14.5-6.2c0-2.8-8.8-6.7-23.2-6.7c-7.4,0-14,1.2-18.6,2.9l-0.9,0.4L21,67c0,0,0,0-0.1,0
	c-1.1,0.4-1.8,0.7-2.2,1c-0.3,0.2-0.3,0.7,0,0.9C20,69.9,23.6,71.1,29.6,71.1"/>
<path fill="#FFFFFF" d="M17.4,40.9c-0.1,0-0.2,0-0.2,0c-2.2-0.1-3.9-2-3.8-4.2c0.1-2.1,1.9-3.8,4-3.8c0.1,0,0.2,0,0.2,0
	c2.2,0.1,3.9,2,3.8,4.2C21.3,39.3,19.5,40.9,17.4,40.9z"/>
<path fill="#766259" d="M17.4,39.4c1.3,0,2.4-1,2.5-2.3c0.1-1.4-1-2.6-2.3-2.6l-0.2,0c-1.3,0-2.4,1-2.5,2.4c-0.1,1.4,1,2.6,2.3,2.6
	L17.4,39.4"/>
</svg>
