<?xml version="1.0" encoding="utf-8"?>
<!-- Generator: Adobe Illustrator 18.1.0, SVG Export Plug-In . SVG Version: 6.00 Build 0)  -->
<svg version="1.1" id="Слой_1" xmlns="http://www.w3.org/2000/svg" xmlns:xlink="http://www.w3.org/1999/xlink" x="0px" y="0px"
	 viewBox="0 0 100 100" enable-background="new 0 0 100 100" xml:space="preserve">
<g>
	<path fill="#1CC7F6" d="M48.9,49.7c-1.1,0-2-0.8-2.2-1.9l-0.2-1l-0.9,0.4c-0.3,0.1-0.6,0.2-1,0.2c-0.6,0-1.2-0.2-1.6-0.7
		c-0.4-0.4-0.7-1-0.7-1.6s0.2-1.2,0.7-1.6l3.6-3.6v-9.3l-6.5,6.6v5.1c0,1.3-1,2.3-2.3,2.3c-0.9,0-1.8-0.6-2.1-1.5l-0.3-1l-0.8,0.6
		c-0.4,0.3-0.8,0.4-1.3,0.4c-0.6,0-1.2-0.2-1.6-0.7c-0.8-0.8-0.9-2-0.2-2.9l0.6-0.8l-0.9-0.3c-0.9-0.3-1.5-1.2-1.5-2.1
		c0-1.3,1-2.3,2.3-2.3h5l6.5-6.6h-9.2L30.7,31c-0.4,0.4-1,0.7-1.6,0.7s-1.2-0.2-1.6-0.7c-0.7-0.7-0.8-1.7-0.4-2.6l0.4-0.9l-1-0.2
		c-1.1-0.2-1.9-1.1-1.9-2.2s0.8-2,1.9-2.2l1-0.2l-0.4-0.9c-0.4-0.9-0.2-1.9,0.4-2.6c0.4-0.4,1-0.7,1.6-0.7s1.2,0.2,1.6,0.7l3.6,3.6
		h9.2L37,16.4h-5.1c-1.2,0-2.3-1-2.3-2.3c0-1,0.6-1.8,1.5-2.1l0.9-0.3l-0.6-0.8C30.8,10,30.9,8.8,31.6,8c0.4-0.4,1-0.7,1.6-0.7
		c0.5,0,0.9,0.1,1.3,0.4l0.8,0.6l0.3-0.9c0.3-0.9,1.2-1.5,2.1-1.5c1.2,0,2.3,1,2.3,2.3v5.1l6.5,6.6v-9.3L42.9,7
		c-0.9-0.9-0.9-2.3,0-3.2c0.4-0.4,1-0.7,1.6-0.7c0.3,0,0.7,0.1,1,0.2l0.9,0.4l0.2-1c0.2-1.1,1.1-1.9,2.2-1.9c1.1,0,2,0.8,2.2,1.9
		l0.2,1l0.9-0.4c0.3-0.1,0.6-0.2,1-0.2c0.6,0,1.2,0.2,1.6,0.7c0.9,0.9,0.9,2.3,0,3.2l-3.6,3.6v9.3l6.5-6.6V8.1c0-1.3,1-2.3,2.3-2.3
		c0.9,0,1.8,0.6,2.1,1.5l0.3,0.9l0.8-0.6c0.4-0.3,0.8-0.4,1.3-0.4c0.6,0,1.2,0.2,1.6,0.7c0.8,0.8,0.9,2,0.2,2.9l-0.6,0.8l0.9,0.3
		c0.9,0.3,1.5,1.2,1.5,2.1c0,1.3-1,2.3-2.3,2.3h-5.1L54.4,23h9.2l3.6-3.6c0.4-0.4,1-0.7,1.6-0.7s1.2,0.2,1.6,0.7
		c0.7,0.7,0.8,1.7,0.4,2.6l-0.4,0.9l1,0.2c1.1,0.2,1.9,1.1,1.9,2.2s-0.8,2-1.9,2.2l-1,0.2l0.4,0.9c0.4,0.9,0.2,1.9-0.4,2.6
		c-0.4,0.4-1,0.7-1.6,0.7s-1.2-0.2-1.6-0.7l-3.6-3.6h-9.2l6.5,6.6H66c1.2,0,2.3,1,2.3,2.3c0,1-0.6,1.8-1.5,2.1l-0.9,0.3l0.6,0.8
		c0.6,0.9,0.5,2.1-0.2,2.9c-0.4,0.4-1,0.7-1.6,0.7c-0.5,0-0.9-0.1-1.3-0.4l-0.8-0.6l-0.3,1c-0.3,0.9-1.2,1.5-2.1,1.5
		c-1.2,0-2.3-1-2.3-2.3v-5.1l-6.5-6.6V40l3.6,3.6c0.9,0.9,0.9,2.3,0,3.2c-0.4,0.4-1,0.7-1.6,0.7c-0.3,0-0.7-0.1-1-0.2l-0.9-0.4
		l-0.2,1C51,48.9,50,49.7,48.9,49.7z"/>
	<path fill="#766259" d="M48.9,1.5c0.7,0,1.4,0.5,1.5,1.3l0.3,2l1.8-0.9c0.2-0.1,0.4-0.2,0.7-0.2c0.4,0,0.8,0.2,1,0.4
		c0.6,0.6,0.6,1.6,0,2.1l-3.4,3.4L50.4,10v0.6v7.1v3.7L53,19l5-5l0.4-0.4V13V8.1c0-0.8,0.7-1.5,1.5-1.5c0.6,0,1.2,0.4,1.4,1L62,9.5
		l1.6-1.2C63.9,8.1,64.2,8,64.5,8c0.4,0,0.8,0.2,1.1,0.4c0.5,0.5,0.6,1.3,0.2,1.9l-1.2,1.6l1.9,0.7c0.6,0.2,1,0.8,1,1.4
		c0,0.8-0.7,1.5-1.5,1.5h-4.8h-0.6l-0.4,0.4l-5,5.1l-2.6,2.6h3.6h7.1h0.6l0.4-0.4l3.4-3.4c0.3-0.3,0.7-0.4,1.1-0.4s0.8,0.2,1.1,0.4
		c0.4,0.4,0.6,1.1,0.3,1.7l-0.9,1.8l2,0.3c0.7,0.1,1.3,0.7,1.3,1.5c0,0.7-0.5,1.4-1.3,1.5l-2,0.3l0.9,1.8c0.3,0.6,0.2,1.3-0.3,1.7
		c-0.3,0.3-0.7,0.4-1.1,0.4s-0.8-0.2-1.1-0.4L64.3,27l-0.4-0.4h-0.6h-7.1h-3.6l2.6,2.6l5,5.1l0.4,0.4h0.6H66c0.8,0,1.5,0.7,1.5,1.5
		c0,0.6-0.4,1.2-1,1.4l-1.9,0.7l1.2,1.6c0.4,0.6,0.4,1.4-0.2,1.9c-0.3,0.3-0.7,0.4-1.1,0.4c-0.3,0-0.6-0.1-0.9-0.3L62,41l-0.7,1.9
		c-0.2,0.6-0.8,1-1.4,1c-0.8,0-1.5-0.7-1.5-1.5v-4.8V37L58,36.5l-5-5l-2.6-2.6v3.7v7.1v0.6l0.4,0.4l3.4,3.4c0.6,0.6,0.6,1.6,0,2.1
		c-0.3,0.3-0.6,0.4-1,0.4c-0.2,0-0.5-0.1-0.7-0.2l-1.8-0.9l-0.3,2c-0.1,0.7-0.7,1.3-1.5,1.3c-0.7,0-1.4-0.5-1.5-1.3l-0.3-2l-1.8,0.9
		c-0.2,0.1-0.4,0.2-0.7,0.2c-0.4,0-0.8-0.2-1-0.4c-0.6-0.6-0.6-1.6,0-2.1l3.4-3.4l0.4-0.4v-0.6v-7.1v-3.7l-2.6,2.6l-5,5L39.4,37v0.6
		v4.8c0,0.8-0.7,1.5-1.5,1.5c-0.6,0-1.2-0.4-1.4-1L35.8,41l-1.6,1.2c-0.3,0.2-0.6,0.3-0.9,0.3c-0.4,0-0.8-0.2-1.1-0.4
		c-0.5-0.5-0.6-1.3-0.2-1.9l1.2-1.6l-1.9-0.7c-0.6-0.2-1-0.8-1-1.4c0-0.8,0.7-1.5,1.5-1.5h4.8h0.6l0.4-0.4l5-5.1l2.6-2.6h-3.6h-7.1
		H34l-0.4,0.4l-3.4,3.4c-0.3,0.3-0.7,0.4-1.1,0.4s-0.8-0.2-1.1-0.4c-0.4-0.4-0.6-1.1-0.3-1.7l0.9-1.8l-2-0.3
		c-0.7-0.1-1.3-0.7-1.3-1.5c0-0.7,0.5-1.4,1.3-1.5l2-0.3l-0.9-1.8c-0.3-0.6-0.2-1.3,0.3-1.7c0.3-0.3,0.7-0.4,1.1-0.4
		s0.8,0.2,1.1,0.4l3.4,3.4l0.4,0.4h0.6h7.1h3.6l-2.6-2.6l-5-5.1l-0.4-0.4h-0.6h-4.8c-0.8,0-1.5-0.7-1.5-1.5c0-0.6,0.4-1.2,1-1.4
		l1.9-0.7l-1.2-1.6c-0.4-0.6-0.4-1.4,0.2-1.9c0.3-0.5,0.6-0.7,1-0.7c0.3,0,0.6,0.1,0.9,0.3l1.6,1.2l0.7-1.9c0.2-0.6,0.8-1,1.4-1
		c0.8,0,1.5,0.7,1.5,1.5v4.8v0.6l0.4,0.4l5,5l2.6,2.6v-3.7v-7.1v-0.6L47,9.7l-3.4-3.4c-0.6-0.6-0.6-1.6,0-2.1c0.3-0.3,0.7-0.4,1-0.4
		c0.2,0,0.5,0.1,0.7,0.2l1.8,0.9l0.3-2C47.6,2,48.2,1.5,48.9,1.5 M48.9,0c-1.5,0-2.7,1.1-3,2.5c-0.4-0.2-0.9-0.3-1.3-0.3
		c-0.8,0-1.5,0.3-2.1,0.9c-1.2,1.2-1.2,3.1,0,4.3l3.4,3.4v7.1l-5-5V8.1c0-1.7-1.3-3-3-3c-1.3,0-2.4,0.9-2.8,2
		c-0.5-0.4-1.1-0.6-1.8-0.6c-0.8,0-1.5,0.3-2.1,0.9c-1.1,1.1-1.2,2.7-0.3,3.9c-1.2,0.4-2,1.5-2,2.8c0,1.7,1.3,3,3,3h4.8l5,5.1h-7.1
		l-3.4-3.4c-0.6-0.6-1.4-0.9-2.1-0.9c-0.8,0-1.5,0.3-2.1,0.9c-0.9,0.9-1.1,2.3-0.6,3.4c-1.4,0.2-2.5,1.5-2.5,3s1.1,2.7,2.5,3
		c-0.5,1.1-0.4,2.5,0.6,3.4c0.6,0.6,1.4,0.9,2.1,0.9c0.8,0,1.5-0.3,2.1-0.9l3.4-3.4h7.1l-5,5.1h-4.8c-1.7,0-3,1.4-3,3
		c0,1.3,0.8,2.4,2,2.8c-0.8,1.2-0.7,2.8,0.3,3.9c0.6,0.6,1.3,0.9,2.1,0.9c0.6,0,1.2-0.2,1.8-0.6c0.4,1.2,1.5,2,2.8,2
		c1.7,0,3-1.4,3-3v-4.8l5-5v7.1L42.5,43c-1.2,1.2-1.2,3.1,0,4.3c0.6,0.6,1.3,0.9,2.1,0.9c0.4,0,0.9-0.1,1.3-0.3
		c0.2,1.4,1.5,2.5,3,2.5s2.7-1.1,3-2.5c0.4,0.2,0.9,0.3,1.3,0.3c0.8,0,1.5-0.3,2.1-0.9c1.2-1.2,1.2-3.1,0-4.3l-3.4-3.4v-7.1l5,5v4.8
		c0,1.7,1.3,3,3,3c1.3,0,2.4-0.9,2.8-2c0.5,0.4,1.1,0.6,1.8,0.6c0.8,0,1.5-0.3,2.1-0.9c1.1-1.1,1.2-2.7,0.3-3.9c1.2-0.4,2-1.5,2-2.8
		c0-1.7-1.3-3-3-3h-4.8l-5-5.1h7.1l3.4,3.4c0.6,0.6,1.4,0.9,2.1,0.9c0.8,0,1.5-0.3,2.1-0.9c0.9-0.9,1.1-2.3,0.6-3.4
		c1.4-0.2,2.5-1.5,2.5-3s-1.1-2.7-2.5-3c0.5-1.1,0.4-2.5-0.6-3.4c-0.6-0.6-1.4-0.9-2.1-0.9c-0.8,0-1.5,0.3-2.1,0.9l-3.4,3.4h-7.1
		l5-5.1h4.8c1.7,0,3-1.4,3-3c0-1.3-0.8-2.4-2-2.8c0.8-1.2,0.7-2.8-0.3-3.9c-0.6-0.6-1.3-0.9-2.1-0.9c-0.6,0-1.2,0.2-1.8,0.6
		c-0.4-1.2-1.5-2-2.8-2c-1.7,0-3,1.4-3,3v4.8l-5,5v-7.1l3.4-3.4c1.2-1.2,1.2-3.1,0-4.3c-0.6-0.6-1.3-0.9-2.1-0.9
		c-0.4,0-0.9,0.1-1.3,0.3C51.6,1.1,50.4,0,48.9,0L48.9,0z"/>
</g>
<g>
	<path fill="#D4A01E" d="M19,90.2c-10.1,0-18.3-8.3-18.3-18.4C0.8,65.3,4,59.4,9.4,56l0.4-0.2V10.1c0-5.2,4.2-9.3,9.3-9.3
		s9.3,4.2,9.3,9.3v45.7l0.4,0.2c5.4,3.4,8.7,9.3,8.7,15.7C37.3,81.9,29.1,90.2,19,90.2z"/>
	<path fill="#FFE197" d="M22,2c-5.5,0-10,4.5-10,10.1v45.3c-5.4,3.4-9,9.4-9,16.3c0,6,2.7,11.4,7,14.9C4.1,85.4,0,79,0,71.7
		c0-6.9,3.6-12.9,9-16.3V10.1C9,4.5,13.5,0,19,0c2.7,0,5.1,1.1,6.9,2.8C24.8,2.3,23.4,2,22,2z"/>
	<path fill="#766259" d="M19,1.5c4.7,0,8.5,3.9,8.5,8.6v45.3v0.8l0.7,0.4c5.2,3.3,8.3,8.9,8.3,15c0,9.7-7.9,17.7-17.5,17.7
		S1.5,81.5,1.5,71.7c0-6.2,3.1-11.8,8.3-15l0.7-0.4v-0.8V10.1C10.5,5.4,14.3,1.5,19,1.5 M19,0C13.5,0,9,4.5,9,10.1v45.3
		c-5.4,3.4-9,9.4-9,16.3c0,10.6,8.5,19.2,19,19.2s19-8.6,19-19.2c0-6.9-3.6-12.9-9-16.3V10.1C29,4.5,24.6,0,19,0L19,0z"/>
	<path fill="#A8A8A8" d="M19,82.1c-5.7,0-10.3-4.6-10.3-10.4c0-4.3,2.6-8.1,6.5-9.6l0.5-0.2V10.1c0-1.8,1.5-3.3,3.3-3.3
		s3.3,1.5,3.3,3.3v51.8l0.5,0.2c4,1.6,6.5,5.4,6.5,9.6C29.3,77.4,24.7,82.1,19,82.1z"/>
	<path fill="#AEF6FD" d="M30,71.7c0,6.1-4.9,11.1-11,11.1s-11-5-11-11.1c0-4.7,2.9-8.7,7-10.3v-21h8v21C27.1,63,30,67,30,71.7z"/>
	<path fill="#766259" d="M19,7.6c1.4,0,2.5,1.1,2.5,2.5v30.3v3v17.9v1l1,0.4c3.7,1.5,6.1,5,6.1,8.9c0,5.3-4.3,9.6-9.5,9.6
		s-9.5-4.3-9.5-9.6c0-4,2.4-7.5,6.1-8.9l1-0.4v-1V43.4v-3V10.1C16.5,8.7,17.6,7.6,19,7.6 M19,6.1c-2.2,0-4,1.8-4,4v30.3v3v17.9
		C10.9,63,8,67,8,71.7c0,6.1,4.9,11.1,11,11.1s11-5,11-11.1c0-4.7-2.9-8.7-7-10.3v-18v-3V10.1C23,7.9,21.2,6.1,19,6.1L19,6.1z"/>
	<path fill="#FFFFFF" d="M17.9,64.1c0.4,0,0.8,0.3,0.8,0.7c0,0.4-0.3,0.8-0.7,0.8c0,0-5,0.3-5,6.1c0,0.4-0.3,0.8-0.8,0.8
		c-0.4,0-0.8-0.3-0.8-0.8C11.5,66.1,15.7,64.3,17.9,64.1L17.9,64.1"/>
</g>
<g>
	<path fill="#FFFFFF" d="M47.9,56.4c6.8-1.2,12.5-4.4,15.6-8.2c-3.5-4.6-8.8-7.3-14.3-7.3c-4,0-7.9,1.4-11.2,3.9
		c-3.7,2.8-6.1,6.2-7,9.7C35.2,56.7,41.4,57.5,47.9,56.4z"/>
	<path fill="#CBCBCB" d="M68.6,60.2l-1.4-6.3c-0.7-1.4-1.6-2.9-2.8-4.7c-0.2-0.4-0.5-0.7-0.8-1.1c-3.1,3.8-8.8,7-15.6,8.2
		c-6.5,1.2-12.7,0.4-17-1.8c-0.2,0.6-0.3,1.2-0.3,1.8c0,0.5,0,1,0,1.5l0.9,3.9c0.5,1.2,1.2,2.3,2.2,3.4c2.4,2.7,6.2,4.9,10.3,6.1
		l19.6-4.5C66.5,64.3,68.1,62.3,68.6,60.2z"/>
	<path fill="#766259" d="M64.9,48.8c-3.7-5.6-9.6-8.7-15.7-8.7c-4,0-8.1,1.3-11.7,4.1c-7.8,6-10.4,14.7-4.4,21.4
		C37,70,44.3,73.1,51,73.1c3.7,0,7.3-0.9,10-3.1C71,61.8,71.9,59.4,64.9,48.8z M60,68.8c-2.3,1.8-5.4,2.8-9,2.8
		c-3.2,0-6.5-0.7-9.5-2c6.8-2.7,10.2-6.3,12-9.5c0.3-0.1,0.4-0.4,0.4-0.7c0-0.1,0-0.1,0-0.2c1.8-4,1-7.3,1-7.5
		c-0.1-0.4-0.5-0.7-0.9-0.5c-0.4,0.1-0.6,0.5-0.5,0.9l0,0c0.1,0.2,0.7,3.1-0.9,6.5c-5.4-0.4-8.1-4.4-8.1-4.4c-0.2-0.3-0.7-0.4-1-0.2
		c-0.5,0.1-0.5,0.6-0.3,1l0,0c0.1,0.2,3,4.4,8.6,5.1c-1.7,2.9-5.1,6-11.4,8.4c-0.2,0.1-0.4,0.2-0.4,0.4c-2.3-1.1-4.3-2.6-5.7-4.2
		c-2.2-2.5-3.1-5.2-2.9-8.2c0.4-3.9,2.9-7.8,7.1-11c3.2-2.5,7-3.8,10.8-3.8c5.8,0,11.2,3,14.5,8.1C70.2,59.6,69.4,61.2,60,68.8z"/>
</g>
<g>
	<path fill="#CBCBCB" d="M95.1,70.1c3-6.1,3.2-13.2,0.7-17.7c-1.2-2.2-3.2-3.8-5.7-4.8C92.3,50.1,94,53.8,94,58
		c0,9.5-6.7,13.6-11,13.6c-7.6,0-12.2-1.5-14.8-4H64V77c0.8,0.7,1.6,1.3,2.6,1.7H86C89.6,77.8,92.9,74.7,95.1,70.1z"/>
	<path fill="#FFFFFF" d="M68.2,67.7c2.6,2.5,7.2,4,14.8,4c4.3,0,11-4.1,11-13.6c0-4.2-1.7-7.9-3.9-10.4c-1.6-0.7-3.5-1.1-5.4-1.1
		c-1.4,0-2.9,0.2-4.4,0.6l-0.2,0.1L80,47.2c-1.5-0.4-3-0.7-4.5-0.7c-5.4,0-10.4,2.8-13.3,7.4c-2.6,4.2-3.1,9.2-1.4,13.9l0.1,0.2v0.2
		c-0.4,2.5,0,4.7,1.3,6.7c0.5,0.9,1.2,1.6,1.9,2.2v-9.4L68.2,67.7z"/>
	<path fill="#766259" d="M96.4,52.1c-2.1-3.7-6.5-6.2-11.7-6.2c-1.5,0-3,0.2-4.5,0.6c-1.6-0.5-3.1-0.7-4.7-0.7
		c-5.5,0-10.8,2.7-13.9,7.7c-2.8,4.5-3.2,9.9-1.5,14.6c-0.4,2.5-0.1,5,1.4,7.2c2.7,4.3,7.1,5.6,12.7,5.6c3.3,0,7-0.5,10.9-1.1
		C95.4,78.2,101.5,60.9,96.4,52.1z M84.8,78.3c-3.6,0.5-7.3,1-10.6,1c-5.8,0-9.3-1.5-11.4-4.9c-1.2-1.8-1.5-3.9-1.2-6.2l0.1-0.4
		l-0.1-0.4c-1.6-4.4-1.1-9.3,1.3-13.2c2.7-4.4,7.5-7,12.6-7c0.4,0,0.9,0,1.3,0.1c0,0,0,0,0.1,0l0,0c0.1,0,6.6,0.7,9.9,5.3
		c1.8,2.6,2.3,6,1.3,10.2c-0.1,0.4,0.2,0.8,0.6,0.9c0.4,0.1,0.8-0.2,0.9-0.6c1.2-5.2,0.3-8.9-1.6-11.4c-1.4-2-3.4-3.4-5.3-4.3
		c0.7-0.1,1.4-0.2,2.1-0.2c4.5,0,8.5,2.1,10.4,5.5c2.4,4.2,2.1,11-0.8,17C92,74.6,88.5,77.7,84.8,78.3z"/>
</g>
<ellipse fill="#747474" cx="79" cy="98" rx="21" ry="2"/>
<path fill="#FFFFFF" d="M30.7,92.6c12.2,0,22-3.2,22-7.1H53c-0.6-2.9-2.3-5-5.3-6.4L47.5,79l-0.1-0.3c-2.2-7.1-8-10.9-16.4-10.9
	c-7.6,0-14.6,5.4-16.7,12.8l-0.1,0.3L13.9,81c-2.9,1.6-4.3,3.8-4.3,6.6C12.4,90.5,20.8,92.6,30.7,92.6z"/>
<path fill="#FFFFFF" d="M30.4,96.5c3.5,0,6.8-0.3,9.6-0.8H20.2C23,96.2,26.4,96.5,30.4,96.5z"/>
<path fill="#FFFFFF" d="M74.1,80.1c3.3,0,7.1-0.5,10.8-1c0.4-0.1,0.8-0.2,1.2-0.3H66.6C68.6,79.7,71,80.1,74.1,80.1z"/>
<path fill="#FFFFFF" d="M78.5,98.3c2.1,0,4.1-0.1,6-0.3H72.6C74.4,98.2,76.4,98.3,78.5,98.3z"/>
<g>
	<rect x="24.9" y="86.9" fill="#747474" width="50.1" height="4"/>
	<g>
		<path fill="#FFFFFF" d="M55.9,82.8c8,0,15-1.1,19.1-2.7c-0.5-2-2.1-4.2-4.6-6.1l-0.3-0.2v-0.3C69.6,65,62,58.4,52.9,58.4
			c-8.9,0-16.5,6.5-17.2,14.8v0.3l-0.3,0.2c-2,1.6-3.5,3.4-4.2,5.1h3C37.4,81.1,45.9,82.8,55.9,82.8z"/>
		<path fill="#CBCBCB" d="M52.4,89.1c13.9,0,22.8-3.1,22.8-7.9c0-0.4-0.1-0.8-0.2-1.1c-4.1,1.6-11.1,2.7-19.1,2.7
			c-10,0-18.5-1.7-21.7-4h-3c-0.4,0.9-0.6,1.7-0.6,2.5C30.6,86.2,38.8,89.1,52.4,89.1z"/>
	</g>
	<g>
		<path fill="#766259" d="M71.3,76.7l0.5,0.4c0.2-0.2,0.2-0.3,0.2-0.3L71.3,76.7z"/>
		<path fill="#766259" d="M70.9,73.4c-0.5-8.8-8.4-15.9-18-15.9c-9.5,0-17.2,6.8-18,15.5c-3.3,2.6-5.1,5.7-5.1,8.2
			c0,5.5,8.2,8.6,22.5,8.6c14.2,0,23.6-3.1,23.6-8.6C76,78.9,74.1,76,70.9,73.4z M52.4,88.4c-12.9,0-21-2.7-21-7.1
			c0-2.1,1.7-4.8,4.5-7l0.5-0.4l0.1-0.7c0.7-7.9,7.9-14.1,16.5-14.1c8.7,0,16,6.3,16.5,14.4v0.7l0.5,0.4c0.5,0.4,1,0.9,1.5,1.3
			c-0.1,0-0.1,0-0.2-0.1c-0.3,0-0.5,0.1-0.7,0.3l0,0c-0.1,0.1-2,2.4-16.7,2.2c-0.4,0-0.8,0.3-0.8,0.7c0,0.4,0.3,0.8,0.7,0.8
			C68,80,71,77.9,71.7,77.1l-0.5-0.4l0,0l0,0l0.7,0.1c0-0.1,0-0.3-0.1-0.4c1.6,1.7,2.6,3.5,2.6,4.9C74.5,85.5,65.6,88.4,52.4,88.4z"
			/>
	</g>
</g>
<g>
	<path fill="#FFFFFF" d="M99,89.8c-0.6-2.2-2.1-3.6-4.9-4.4l-0.4-0.1l-0.1-0.4c-1.8-6.9-8.3-11.5-16-11.5c-1.9,0-3.8,0.3-5.8,0.8
		c-6.2,1.7-9.4,5.7-9.5,11.8v0.5l-0.4,0.2c-1.6,0.8-2.5,1.8-2.9,3.2c2.7,2.7,10.6,5.2,20.1,5.2C88.3,94.9,96.3,92.5,99,89.8z"/>
	<path fill="#CBCBCB" d="M99.2,91.4c0-0.6-0.1-1.1-0.3-1.6c-2.7,2.7-10.6,5.1-20,5.1s-17.4-2.4-20.1-5.2c-0.1,0.5-0.2,1-0.2,1.6
		c0,4.1,5.1,6.8,14,7.6h11.8c6.6-0.6,11.4-2.1,13.5-4.4C98.9,93.6,99.3,92.6,99.2,91.4z"/>
	<path fill="#766259" d="M94.3,84.7c-0.1-0.5-0.3-1-0.5-1.5c-0.1-0.2-0.1-0.4-0.1-0.4c0-0.1-0.1-0.1-0.1-0.1
		c-2.5-5.9-8.5-10-16.1-10c-1.9,0-3.9,0.3-6,0.8c-6.8,1.9-10,6.4-10,12.5c-2.4,1.2-3.5,3-3.5,5.4c0,5.5,7.5,8.6,20.5,8.6
		s21.8-3.1,21.5-8.6C99.8,87.6,97.7,85.7,94.3,84.7z M97.5,94c-2.6,2.8-9.7,4.5-19,4.5c-11.9,0-19-2.7-19-7.1c0-1.9,0.8-3.1,2.7-4.1
		l0.8-0.4V86c0.1-5.7,3.1-9.4,8.9-11c1.9-0.5,3.8-0.8,5.6-0.8c6.9,0,12.7,3.8,14.9,9.6c0.2,0.6,0.3,2-0.6,3.2
		c-1.1,1.4-4.5,3.6-15.5,2.5c-0.4,0-0.8,0.3-0.8,0.7c0,0.4,0.3,0.8,0.7,0.8c10.7,1.1,15.1-0.8,16.8-3.1c0.4-0.6,0.7-1.1,0.8-1.7l0,0
		c3.1,0.9,4.4,2.4,4.6,5.3C98.5,92.4,98.2,93.2,97.5,94z"/>
</g>
<g>
	<path fill="#FFFFFF" d="M52.6,85.4c-0.6-2.9-2.3-5-5.3-6.4L47,78.9l-0.1-0.3c-2.2-7.1-8-10.9-16.4-10.9C23,67.6,16,73,13.9,80.4
		l-0.1,0.3l-0.3,0.2c-2.9,1.6-4.3,3.8-4.3,6.6c0,0.3,0,0.6,0,0.9c0.5,4.2,4,6.9,10.5,8.2h19.9c8-1.5,13.2-4.9,13.2-9.1
		C52.8,86.7,52.8,86.1,52.6,85.4z"/>
	<ellipse fill="#747474" cx="30.9" cy="97" rx="23" ry="2"/>
	<path fill="#CBCBCB" d="M53.3,87.5c0-0.7-0.1-1.4-0.2-2h-0.3c0,3.9-9.9,7.1-22,7.1c-9.9,0-18.3-2.1-21.1-5c0,0.3,0,0.6,0,0.9
		c0.5,4.2,4,6.9,10.5,8.2h19.9C48.1,95.1,53.3,91.8,53.3,87.5z"/>
	<polygon fill="none" points="20.5,90.9 20.5,90.9 19.5,90.3 	"/>
	<path fill="none" d="M20.5,90.9l-0.8-0.8L20.5,90.9z"/>
	<path fill="none" d="M47.9,79.8c-0.1,6.5-6.6,9.7-10.4,10.5l0,0c-0.4,0.1-0.8-0.2-0.9-0.6c-0.1-0.4,0.2-0.8,0.6-0.9
		c0,0,10.8-2.3,9-11.1l0,0c-2.3-6.2-7.7-9.6-15.4-9.6c-7.2,0-14,5.2-15.9,12.3L14.7,81l-0.6,0.3c-3,1.6-4.2,3.7-3.9,6.7
		c0.5,4.5,5.1,6.7,10.7,7.6c-0.8-0.5-1.5-1-1.9-1.7c-0.5-1-0.6-2.2,0.3-3.7c0.1-0.1,0.1-0.2,0.2-0.3c0.7-0.7,2.6-1,4.7-1.4
		c0.6-0.1,1.3-0.2,1.9-0.4c-1-0.4-2-1-2.7-2c-0.8-1-1.1-2.5-0.7-4.5c0.1-0.4,0.5-0.7,0.9-0.6s0.7,0.5,0.6,0.9
		c-0.3,1.4-0.2,2.4,0.4,3.3c1.1,1.4,3.4,1.9,4.2,2l0,0c0.1,0,0.2,0,0.3,0.1c2.5-0.8,4.5-2.2,4.6-4.6c0-0.4,0.4-0.7,0.8-0.7
		c0.4,0,0.7,0.4,0.7,0.8c-0.2,5.2-6.3,6.4-10.8,7.3c-1.4,0.3-3.4,0.7-3.9,1c-0.7,1.3-0.4,1.9-0.3,2.1c1.1,2,6.8,3,10.8,3.2
		c13.9-0.2,21.2-4.7,21.2-9.2C52.4,83.9,50.9,81.4,47.9,79.8z"/>
	<path fill="#766259" d="M20.5,90.9L19.7,90c-0.1,0.1-0.2,0.2-0.2,0.3L20.5,90.9z"/>
	<path fill="#766259" d="M48,78.2c-2-6.5-7.4-11.5-17.1-11.5c-8.3,0-15.3,6-17.4,13.4c-3.2,1.7-5.1,4.4-4.6,8.3
		c0.7,6.1,7.2,9.7,21.5,9.7c0.3,0,0.6,0,1,0s0.6,0,0.6,0c0.1,0,0.1,0,0.2,0C45.4,97.7,54,93.3,54,87.4C53.9,82.7,51.5,79.8,48,78.2z
		 M31.3,96.4c-4-0.1-9.7-1.2-10.8-3.2c-0.1-0.2-0.5-0.8,0.3-2.1c0.5-0.4,2.5-0.8,3.9-1c4.5-0.9,10.6-2,10.8-7.3
		c0-0.4-0.3-0.8-0.7-0.8S34,82.3,34,82.7c-0.1,2.5-2.1,3.8-4.6,4.6c-0.1-0.1-0.2-0.1-0.3-0.1l0,0c-0.8-0.1-3.2-0.5-4.2-2
		c-0.6-0.8-0.7-1.9-0.4-3.3c0.1-0.4-0.2-0.8-0.6-0.9s-0.8,0.2-0.9,0.6c-0.5,2-0.1,3.5,0.7,4.5c0.7,1,1.8,1.6,2.7,2
		c-0.7,0.1-1.3,0.3-1.9,0.4c-2.1,0.4-3.9,0.7-4.7,1.4l-0.2,0.3c-0.9,1.5-0.8,2.7-0.3,3.7c0.4,0.7,1.1,1.3,1.9,1.7
		c-5.6-1-10.2-3.1-10.7-7.6c-0.3-3,0.9-5.2,3.9-6.7L15,81l0.2-0.6c2-7.1,8.7-12.3,15.9-12.3c7.7,0,13.1,3.4,15.4,9.6l0,0
		c1.8,8.8-9,11.1-9,11.1c-0.4,0.1-0.7,0.5-0.6,0.9c0.1,0.4,0.5,0.7,0.9,0.6l0,0c3.8-0.8,10.3-4,10.4-10.5c3,1.6,4.5,4.1,4.5,7.5
		C52.4,91.8,45.1,96.3,31.3,96.4z"/>
</g>
</svg>
