<?xml version="1.0" encoding="utf-8"?>
<!-- Generator: Adobe Illustrator 18.1.0, SVG Export Plug-In . SVG Version: 6.00 Build 0)  -->
<svg version="1.1" id="Слой_1" xmlns="http://www.w3.org/2000/svg" xmlns:xlink="http://www.w3.org/1999/xlink" x="0px" y="0px"
	 viewBox="0 0 100 100" enable-background="new 0 0 100 100" xml:space="preserve">
<g>
	<path fill="#E4BC12" d="M64.3,40.6c-0.7-2.7-1.5-5-2.5-7c-3.2-6.6-7.9-10.1-12.6-11.8c-2-5.9-8.4-14.4-12.6-16.3
		c-0.5-0.2-1-0.4-1.5-0.5c-3.1-0.7-5.2,1.1-5.2,1.1s-3.2-1.2-6.1,1.6c-3.5,3.5-7.1,14.6-6.9,21c-4.6,4.8-8.1,13.2-6.5,25.3
		c0.9,6.2,5.9,9.4,9.1,11.8c3.3,2.4,7.5,3,12.7,1.9c3.4-0.8,7.8-4.4,7.8-4.4s6,1.3,9.9,0.4c5.1-1.2,8.6-3.5,10.5-7.2
		C62.5,52.8,65.8,46.6,64.3,40.6z"/>
	<path fill="#FFD013" d="M42.6,60.5c2.1-1.9,9.9-9.1,9.4-15.5c-1.2-18.2-13.8-17.4-13.8-17.4S43.5,18.9,40,11
		c-1.6-3.7-3.1-5.2-4.8-5.8C32.1,4.5,30,6.2,30,6.2S26.8,5,23.9,7.9c-3.5,3.5-7.1,14.6-6.9,21c-4.6,4.8-8.1,13.2-6.5,25.3
		c0.9,6.2,5.9,9.4,9.1,11.8c3.3,2.4,7.5,3,12.7,1.9c3.4-0.8,7.8-4.4,7.8-4.4S45.4,58.1,42.6,60.5z"/>
	<path fill="#766259" d="M27.6,69.2c-3.2,0-6.1-0.9-8.4-2.6L18.5,66c-3.3-2.4-7.8-5.7-8.6-11.7c-1.9-14.1,3.1-22.1,6.4-25.7
		c-0.1-6.7,3.5-17.7,7.1-21.3c1.8-1.7,3.6-2.1,4.9-2.1c0.7,0,1.2,0.1,1.6,0.2c0.6-0.4,2-1.2,3.9-1.2c1.1,0,2.1,0.2,3.1,0.7
		c4.5,2,10.8,10.6,12.9,16.4c5.3,1.9,12.1,6.9,15.2,19.2c1.6,6.2-1.7,12.5-3.7,16.2L61.3,57c-2,3.9-5.6,6.4-11,7.6
		c-1,0.2-2.1,0.3-3.4,0.3c-2.8,0-5.6-0.5-6.5-0.7c-1,0.8-4.7,3.6-7.8,4.4C30.8,69,29.2,69.2,27.6,69.2z M28.3,6.7
		c-1,0-2.5,0.3-3.9,1.7c-3.4,3.3-6.9,14.2-6.6,20.4l0,0.3l-0.2,0.2c-3.2,3.3-8.2,10.8-6.3,24.7c0.7,5.4,4.8,8.4,8,10.7l0.8,0.6
		c3.1,2.3,7.2,2.9,12.1,1.7c3.2-0.8,7.4-4.2,7.4-4.3l0.3-0.2l0.4,0.1c0,0,3.3,0.7,6.6,0.7c1.2,0,2.2-0.1,3.1-0.3
		c5-1.1,8.2-3.3,10-6.9l0.1-0.3c2-3.8,5-9.5,3.5-15.2C60.6,28.9,54,24.3,49,22.6l-0.3-0.1l-0.1-0.3c-2.1-6-8.3-14.1-12.2-15.8
		c-0.8-0.4-1.7-0.6-2.5-0.6c-2,0-3.3,1-3.3,1.1l-0.3,0.3l-0.4-0.2C29.7,6.9,29.1,6.7,28.3,6.7z"/>
	<path fill-rule="evenodd" clip-rule="evenodd" fill="#FCF3C7" d="M23.9,17.1c1.1,0.6,1.4,3.6,0.7,6.5c-0.8,3-2.3,4.8-3.5,4.2
		c-1.1-0.6-1.4-3.6-0.7-6.5C21.2,18.4,22.8,16.5,23.9,17.1z"/>
	<path fill="#E4BC12" d="M31.7,12.9c-2.5,0.5-5-1-5.2-2.6c-0.3-1.6,2-0.4,4.5-0.9C33.5,9,35.2,7,35.5,8.6
		C35.7,10.3,34.2,12.5,31.7,12.9z"/>
	<path fill="#766259" d="M22.7,0.1c-1.3-0.1-1.9,0.9-1.8,1.7C20.9,2.3,21.1,2.6,22,3c6.3,2.7,8.1,6.9,8.1,6.9
		c0.1,0.5,0.6,0.9,1.1,0.9c0.6-0.1,1-0.5,0.9-1.1C31.6,4.9,25.8,0.2,22.7,0.1z"/>
</g>
<path fill="#E4BC12" d="M42.6,60.5C42.2,60.8,42,61,42,61s-0.1,0.1,0.3-0.2L42.6,60.5z"/>
<g>
	<g>
		<path fill="#AAC649" d="M95.2,38.4c-2.5-3.5-6.3-5.5-11.8-6.1c0,0-0.1,0-0.1,0C79.1,31.9,73,33.9,73,33.9s-5-3.2-8.7-3.6
			c-5.5-0.6-9.9,0.5-13,3.3c-3.1,2.8-6.7,7.4-6.8,13.8c0,1.5,0,3,0.1,4.4c1.2,16,10.3,22.7,17.5,23.5c2.4,0.3,4.8-0.1,7-1.2
			c1.9,1.5,4.2,2.5,6.6,2.7c7.8,0.9,19.3-4.7,23.1-23.4C100.2,47.1,97.8,42,95.2,38.4z"/>
		<path fill="#C6DA60" d="M82.5,60.4c11.9-17.1-7-27.1-7-27.1c2.9-0.5,5.6-0.8,7.9-0.9c0,0-0.1,0-0.1,0C79,32,72.9,34,72.9,34
			s-5-3.2-8.7-3.6c-5.5-0.6-9.9,0.5-13,3.3c-3.1,2.8-6.7,7.4-6.8,13.8c0,1.5,0,3,0.1,4.4c8,1.1,17.3,2.9,27.1,5.5
			C75.5,58.3,79.1,59.4,82.5,60.4z"/>
		<path fill="#766259" d="M77.4,77.7c-0.6,0-1.1,0-1.7-0.1c-2.4-0.2-4.7-1.1-6.6-2.6c-2.2,1-4.6,1.4-7,1.1
			c-6.9-0.8-18.6-7.6-18.3-28.6c0.1-6.6,3.9-11.5,7-14.3c3.2-2.9,7.8-4.1,13.5-3.5c3.3,0.4,7.5,2.8,8.7,3.5c1.2-0.4,5.3-1.6,8.9-1.6
			c0.5,0,0.9,0,1.4,0.1c5.7,0.6,9.8,2.7,12.4,6.4c3.6,5.1,4.9,10.3,3.9,15.5C96,71.4,85.4,77.7,77.4,77.7z M69.3,73.3l0.4,0.3
			c1.8,1.4,3.9,2.3,6.2,2.6c0.5,0.1,1,0.1,1.5,0.1c7.5,0,17.4-6,20.8-22.9c1-4.8-0.3-9.6-3.6-14.4c-2.4-3.4-6-5.2-11.4-5.8
			c-4-0.4-9.9,1.5-10,1.5l-0.3,0.1l-0.3-0.2c0,0-4.9-3.1-8.3-3.5c-5.2-0.6-9.5,0.5-12.4,3.1c-2.9,2.7-6.4,7.1-6.5,13.3
			c-0.2,19.9,10.6,26.4,17,27.1c2.3,0.3,4.6-0.1,6.6-1.2L69.3,73.3z"/>
		<path fill-rule="evenodd" clip-rule="evenodd" fill="#FFFFFF" d="M57,36.1c1.2,0.7,0.8,3.9-1,7.1c-1.8,3.2-4.2,5.3-5.4,4.6
			c-1.2-0.7-0.8-3.9,1-7.1C53.3,37.5,55.8,35.5,57,36.1z"/>
		<path fill-rule="evenodd" clip-rule="evenodd" fill="#AAC649" d="M76.4,38.1c-0.1,1.1-3.2,4.2-6.1,3.8c-2.9-0.3-4.6-3.9-4.5-5
			c0.1-1.1,2.4,0.3,5.3,0.6C74.1,37.8,76.6,37,76.4,38.1z"/>
		<g>
			<path fill="#766259" d="M82.5,24c-0.4-0.7-1.3-1.1-2-0.7c-0.1,0.1-0.5,0.2-0.5,0.2s-4.1,3-6.8,6.6c-3,4.1-3.1,6.6-2.9,7.6
				c0,0,0,0.1,0,0.1c0,0.2,0.1,0.3,0.1,0.3c0.2,0.5,0.7,0.9,1.3,0.5c0.4-0.3,0.1-2.8,3.8-7.2c2.6-3,6.7-5.6,6.7-5.6S83.1,25,82.5,24
				z"/>
		</g>
		<path fill="#83B63C" d="M59.2,10.6c0,0-0.3,11,4.6,15.9c4.6,4.6,12.1,2.1,13,1.8L59.2,10.6C59.2,10.6,59.2,10.6,59.2,10.6z"/>
		<path fill="#73A02D" d="M75.1,15.2c-4.7-4.7-15-4.6-15.9-4.6l17.6,17.7c0.1,0,0.1,0,0.1,0S80,20,75.1,15.2z"/>
		<path fill="#766259" d="M71.1,30c-3.3,0-5.9-1-7.9-2.9c-5.1-5-4.9-16-4.9-16.4l0-0.7l0.7,0c0,0,0.2,0,0.4,0c2.6,0,11.6,0.3,16,4.8
			c5.2,5.2,2.1,13.5,2,13.9l-0.1,0.3l-0.3,0.1C77,29,74.4,30,71.1,30z M59.9,11.4c0,2.5,0.5,10.7,4.4,14.6c1.7,1.7,4,2.5,6.8,2.5
			c2.3,0,4.4-0.6,5.1-0.8c0.5-1.5,2.2-8-1.7-12C70.6,11.8,62.3,11.4,59.9,11.4z"/>
	</g>
	<path fill-rule="evenodd" clip-rule="evenodd" fill="#FFFFFF" d="M57,36.1c1.2,0.7,0.8,3.9-1,7.1c-1.8,3.2-4.2,5.3-5.4,4.6
		c-1.2-0.7-0.8-3.9,1-7.1C53.3,37.5,55.8,35.5,57,36.1z"/>
</g>
<path fill="#EF755A" d="M55,81c0-1.2-0.2-2.4-0.5-3.6v7.2C54.8,83.4,55,82.2,55,81z"/>
<g>
	<ellipse fill="#747474" cx="52.5" cy="80" rx="47.5" ry="2"/>
	<g>
		<path fill="#CA813B" d="M98.1,72.2c-2-2.3-6.9-4.8-13.4-7.4c-0.9-0.4-1.8-0.7-2.8-1.1c-7.8-2.9-17.4-5.8-26.6-8.3
			c-0.9-0.3-1.9-0.5-2.8-0.8c-8.1-2.2-15.9-4.1-21.9-5.4c-0.9-0.2-1.7-0.4-2.5-0.5c-2.9-0.6-5.3-1.1-6.9-1.4c-0.5-0.1-1-0.2-1.3-0.2
			C19.4,47,18.8,47,18.3,47C10.2,46.6,3.1,52,1.5,59.8c-0.1,0.4-0.2,0.7-0.2,1.1C0,69.8,6.2,78.1,15.3,79.3
			c9.2,1.2,82.4,4.7,83.7-4.8C99.2,73.8,98.8,73,98.1,72.2z"/>
		<path fill="#FEA44A" d="M7.4,67.3c0.7-4,1.7-6.9,2.4-6.8c0.8,0.1,0.9,3.7,0.4,8.1c5.7,2.5,15,4.8,30,6.1c6.7,0.6,12.7,1,18.1,1.2
			c0.8-3.8,1.6-6.3,2.2-6.2c0.6,0.1,0.7,2.6,0.4,6.3c2.8,0.1,5.4,0.1,7.9,0.1c0.9-6,2.2-10.7,2.9-10.6c0.7,0.1,0.7,4.7,0,10.6
			C88.4,76,96,73.8,97.9,72.2c-2-2.3-6.9-4.8-13.4-7.4c-0.9,5.2-2,9.1-2.7,9c-0.7-0.1-0.7-4.4-0.1-10c-7.8-2.9-17.4-5.8-26.6-8.3
			c-0.9,5.9-2.1,10.3-2.9,10.2c-0.8-0.1-0.7-5,0-11c-8.1-2.2-15.9-4.1-21.9-5.4c0,2-0.2,4.4-0.4,7c-0.7,6.6-2,11.9-2.8,11.7
			c-0.8-0.2-1-5.6-0.3-12.3c0.3-2.6,0.6-5,1-7c-2.9-0.6-5.3-1.1-6.9-1.4c0,0.2-0.1,0.4-0.1,0.6c-0.7,4.9-1.8,8.7-2.6,8.6
			c-0.8-0.1-0.9-4.1-0.3-9c0-0.2,0.1-0.4,0.1-0.6C10,46.7,2.9,52.1,1.2,59.9C1.3,61.6,2.3,64.4,7.4,67.3z"/>
	</g>
	<path fill="#766259" d="M56,81.8c-18.6,0-36.8-1.1-40.9-1.6c-4.6-0.6-8.7-3-11.5-6.6c-2.8-3.6-3.9-8.1-3.3-12.6
		c1.2-8.5,8.4-14.6,17.1-14.6c0.8,0,1.6,0.1,2.4,0.2c8.2,1.1,71.4,15.7,79,25.7c0.7,0.9,0.9,1.7,0.8,2.6
		C99.3,76.4,98.6,81.8,56,81.8z M17.4,47.7c-7.9,0-14.5,5.6-15.6,13.3c-0.6,4.1,0.5,8.2,3,11.5c2.5,3.3,6.2,5.5,10.5,6.1
		c4.1,0.5,22.2,1.6,40.7,1.6c38.3,0,42-4.5,42.2-5.8c0.1-0.4-0.1-0.9-0.5-1.5c-6.9-9.2-67.8-23.7-78-25.1
		C18.8,47.8,18.1,47.7,17.4,47.7z"/>
</g>
<g>
	<ellipse fill="#747474" cx="32" cy="98" rx="16" ry="2"/>
	<path fill="#D56B50" d="M50.8,70.5c-4.2-4.6-11-7.6-18.8-7.6c-12.7,0-23,8.1-23,18c0,9.9,10.3,18,23,18c1.6,0,3.2-0.1,4.7-0.4
		c9-1.5,16-7,17.9-14v-7.2C53.9,74.8,52.6,72.5,50.8,70.5z"/>
	<path fill="#EF755A" d="M41.3,83.1c0-5.1-2.1-9.7-5.4-12.5h14.9C46.6,66,39.8,63,32,63C19.3,63,9,71.1,9,81c0,9.9,10.3,18,23,18
		c1.6,0,3.2-0.1,4.7-0.4h-4.6C37.4,96.6,41.3,90,41.3,83.1z"/>
	<path fill="#766259" d="M32,99.8C18.9,99.8,8.3,91.3,8.3,81S18.9,62.2,32,62.2S55.8,70.7,55.8,81S45.1,99.8,32,99.8z M32,63.7
		C19.7,63.7,9.8,71.5,9.8,81c0,9.5,10,17.3,22.3,17.3S54.3,90.5,54.3,81C54.3,71.5,44.3,63.7,32,63.7z"/>
	<path fill="#C6DA60" d="M52,70c0,0-3-5.2-8.2-6.9c-4-1.3-8.4-1.3-10.5-0.3c-2-1.2-6.3-1.5-10.5-0.6c-5.3,1.2-8.8,6.1-8.8,6.1
		s3.5,2.1,7.8,2.2c-2.4,3.2-3.3,6.7-3.3,6.7s6.7,1.4,12-2c0.8-0.5,1.6-1.1,2.3-1.7c0.7,0.7,1.4,1.3,2.2,1.9c4.9,3.8,11.7,3,11.7,3
		s-0.6-3.5-2.7-6.9C48.3,71.8,52,70,52,70z"/>
	<path fill="#766259" d="M45.2,79.3c-2.4,0-7-0.4-10.6-3.3c-0.6-0.5-1.2-1-1.8-1.5c-0.6,0.5-1.2,0.9-1.9,1.3c-3.1,2-6.6,2.4-9,2.4
		c-2,0-3.5-0.3-3.5-0.3l-0.8-0.2l0.2-0.8c0-0.1,0.8-2.9,2.6-5.8c-3.7-0.4-6.6-2.1-6.8-2.2L13,68.6l0.5-0.7c0.1-0.2,3.7-5.2,9.2-6.4
		c1.6-0.3,3.3-0.5,4.9-0.5c2.4,0,4.4,0.4,5.8,1.1c2.4-1,6.9-0.8,10.7,0.4c5.4,1.7,8.5,7,8.6,7.2l0.4,0.7l-0.7,0.3
		c-0.1,0.1-3.2,1.5-7,1.6c1.6,3.1,2.1,5.9,2.1,6l0.1,0.8l-0.8,0.1C46.8,79.2,46.2,79.3,45.2,79.3z M32.9,72.5l0.5,0.5
		c0.7,0.7,1.4,1.3,2.1,1.8c3.6,2.8,8.4,3,10.4,2.9c-0.3-1.2-1-3.6-2.4-5.9l-0.8-1.2l1.4,0.1c2.9,0.2,5.5-0.6,6.8-1.1
		c-1-1.4-3.6-4.6-7.3-5.8c-2-0.6-4.2-1-6.1-1c-1.6,0-3,0.2-3.8,0.6l-0.4,0.2l-0.3-0.2c-1.8-1.1-6.2-1.4-9.9-0.6
		c-3.8,0.8-6.7,3.8-7.8,5.1c1.2,0.6,3.8,1.6,6.6,1.7l1.4,0L22.4,71c-1.6,2.2-2.5,4.4-2.9,5.6c0.6,0.1,1.4,0.1,2.4,0.1
		c2.2,0,5.4-0.4,8.2-2.1c0.8-0.5,1.5-1,2.2-1.6L32.9,72.5z"/>
	<path fill-rule="evenodd" clip-rule="evenodd" fill="#FFD7CA" d="M15.7,74.7c0.9,0.3,1.1,2.5,0.4,5c-0.7,2.4-2,4.2-2.9,3.9
		c-0.9-0.3-1.1-2.5-0.4-5C13.5,76.1,14.8,74.4,15.7,74.7z"/>
</g>
</svg>
