<?xml version="1.0" encoding="utf-8"?>
<!-- Generator: Adobe Illustrator 18.1.0, SVG Export Plug-In . SVG Version: 6.00 Build 0)  -->
<svg version="1.1" id="Слой_1" xmlns="http://www.w3.org/2000/svg" xmlns:xlink="http://www.w3.org/1999/xlink" x="0px" y="0px"
	 viewBox="0 0 100 100" enable-background="new 0 0 100 100" xml:space="preserve">
<g>
	<path fill-rule="evenodd" clip-rule="evenodd" fill="#CCB98B" d="M50,14.3c-1.2,0-2.3-1-2.3-2.3V3c0-1.2,1-2.2,2.3-2.2h37
		c1.2,0,2.3,1,2.3,2.2v9c0,1.2-1,2.3-2.3,2.3H50z"/>
	<path fill="#70625A" d="M87,1.5c0.8,0,1.5,0.7,1.5,1.5v9c0,0.8-0.7,1.5-1.5,1.5H50c-0.8,0-1.5-0.7-1.5-1.5V3c0-0.8,0.7-1.5,1.5-1.5
		H87 M87,0H50c-1.7,0-3,1.3-3,3v9c0,1.7,1.3,3,3,3h37c1.7,0,3-1.3,3-3V3C90,1.3,88.7,0,87,0L87,0z"/>
</g>
<path fill="#EFDCAE" d="M87.9,8.8H48.5v70.4L76,79.3c2.3,0,4.2-1.9,4.2-4.3c0-0.6-0.1-1.1-0.3-1.7l-0.1-0.1l0-0.1
	c-0.1-5.8-0.1-17.3,1-29.3C82.2,28.6,86.7,12.8,87.9,8.8z"/>
<path fill="#BEAF8A" d="M48,8.8c-0.9,3.1-5.8,19.5-7.2,35.1c-1.2,13.1-1.1,25.7-0.9,30.5l0,0.1l0,0.2c0,0.1,0,0.3,0,0.4
	c0,2.1,1.5,3.8,3.5,4.2l5.3,0V8.8H48z"/>
<path fill="#70625A" d="M86.7,9.5c-1.5,5.2-5.6,20-6.9,34.2c-1.1,12-1.1,23.6-1,29.4l0,0.3l0.1,0.3c0.2,0.4,0.3,0.9,0.3,1.4
	c0,1.9-1.6,3.5-3.5,3.5l-32.7-0.1c-1.6-0.3-2.8-1.7-2.8-3.4c0-0.1,0-0.2,0-0.3l0-0.1l0-0.1l0-0.1c-0.1-4.8-0.3-17.3,0.9-30.4
	c1.4-14.8,5.8-30.3,7-34.4H86.7 M88.8,8H47.2c0,0-5.8,18.2-7.4,35.8c-1.2,13.3-1.1,26.1-1,30.6c0,0.2-0.1,0.4-0.1,0.6
	c0,2.5,1.8,4.5,4.2,4.9L75.8,80c2.8,0,5-2.2,5-5c0-0.7-0.1-1.4-0.4-2c-0.1-5.3-0.1-17.1,1-29.2C83,26.2,88.8,8,88.8,8L88.8,8z"/>
<path fill-rule="evenodd" clip-rule="evenodd" fill="#747474" d="M100,79.5c0,0.9-3.5,1.4-6,1.5H76.1C82.2,88.5,87,95.5,87,96.6
	c0,2.5-14.8,3.4-33,3.4c-18.2,0-33-0.9-33-3.4c0-0.7,1.8-3.7,4.7-7.6H9c-2.2,0-4-0.7-4-1.5C5,86.7,6.8,86,9,86v-1h19.7
	C36.4,74.9,48.1,62,54,62c4.4,0,12,7.2,18.8,15H94v1.1C97.5,78.3,100,78.8,100,79.5z"/>
<g>
	<polygon fill-rule="evenodd" clip-rule="evenodd" fill="#FFFFFF" points="1.1,43.5 7.4,32.1 22,42.2 18.4,49.1 	"/>
	<path fill="#70625A" d="M7.6,33.2l13.4,9.3l-3,5.7L2.2,43.1L7.6,33.2 M7.1,31L0,44l18.8,6l4.2-8L7.1,31L7.1,31z"/>
</g>
<path fill-rule="evenodd" clip-rule="evenodd" fill="#CCB98B" d="M63,79.3c-2.3,0-4.2-1.9-4.2-4.3c0-0.1,0.5-14.8-1-31.1
	c-1.4-15.1-7.1-31-8.7-35.2h40c1.2,2.9,7.7,19.4,9.2,35.1c1.5,16.2,1,31,1,31.1c0,2.4-1.9,4.3-4.3,4.3H63z"/>
<path fill="#70625A" d="M88.6,9.5c1.6,3.9,7.5,19.5,8.9,34.4c1.5,16.1,1,30.9,1,31l0,0v0c0,1.9-1.6,3.5-3.5,3.5H63
	c-1.9,0-3.5-1.6-3.5-3.5c0-0.8,0.5-15.2-1-31.2c-1.3-14.3-6.4-29-8.3-34.4H88.6 M89.6,8H48c0,0,7.4,18.5,9,36c1.5,16.4,1,31,1,31
	c0,2.8,2.2,5,5,5h32c2.8,0,5-2.2,5-5c0,0,0.5-14.8-1-31.2C97.4,26.2,89.6,8,89.6,8L89.6,8z"/>
<path fill="#70625A" d="M89,9.5H50c-0.5,0-1-0.3-1-0.7C49,8.3,49.4,8,50,8h39c0.5,0,1,0.3,1,0.8C89.9,9.1,89.5,9.5,89,9.5z"/>
<path fill="#70625A" d="M59.2,29.8h-3.6c-0.4,0-0.8-0.3-0.8-0.8s0.3-0.8,0.8-0.8h3.6c0.4,0,0.8,0.3,0.8,0.8S59.7,29.8,59.2,29.8z"/>
<path fill="#70625A" d="M94.9,29.8h-30c-0.5,0-0.9-0.3-0.9-0.8s0.4-0.8,0.9-0.8h30c0.5,0,0.9,0.3,0.9,0.8S95.4,29.8,94.9,29.8z"/>
<path fill="#FEBD4B" d="M25,46.5V33h4.3v-6.3H18.7v19.6l-0.6,0.1c-4.3,1.1-8.1,3.4-11,6.5H30C28.7,50.4,27,48.2,25,46.5z"/>
<path fill="#CE9841" d="M25,46.5c2,1.7,3.7,3.9,5,6.5h10.8c-2.9-3.1-6.7-5.4-11-6.5l-0.6-0.1V33H25V46.5z"/>
<path fill="#FFDD95" d="M4.1,81H30c1.9-4.6,3-10.1,3-15c0-4.8-1.1-9.3-3-13H7.2c-4,4.2-6.4,9.9-6.4,16C0.8,73.3,1.9,77.4,4.1,81z"/>
<path fill="#CCB176" d="M47,65.7c-0.7-4.8-2.9-9.3-6.2-12.7H30c1.9,3.7,3,8.2,3,13c0,4.9-1.1,10.4-3,15h-0.5c0,0,0,0,0,0h14.4
	c1.6-2.6,2.7-5.5,3.1-8.6V65.7z"/>
<path fill="#CE9841" d="M9.6,87.2h28.7c2.2-1.9,4.1-4.1,5.5-6.6H4.1C5.5,83.2,7.4,85.4,9.6,87.2z"/>
<path fill="#70625A" d="M28.5,27.5v18.3v1.2l1.1,0.3c9.9,2.6,16.9,11.5,16.9,21.8c0,6.8-3.1,13.2-8.4,17.5H9.9
	C4.6,82.2,1.5,75.8,1.5,69c0-10.3,6.9-19.2,16.9-21.8l1.1-0.3v-1.2V27.5H28.5 M30,26H18v19.8C7.7,48.5,0,57.8,0,69
	c0,7.7,3.7,14.6,9.4,19h29.2c5.7-4.4,9.4-11.3,9.4-19c0-11.2-7.7-20.5-18-23.2V26L30,26z"/>
<path fill-rule="evenodd" clip-rule="evenodd" fill="#FFDD95" d="M17.5,46.6c-1,0-1.7-0.8-1.7-1.8v-1c0-1,0.8-1.8,1.7-1.8h13
	c1,0,1.7,0.8,1.7,1.8v1c0,1-0.8,1.8-1.7,1.8H17.5z"/>
<path fill="#A6763C" d="M21,21.7c-1.2,0-2.2,1-2.2,2.3v5c0,1.2,1,2.3,2.2,2.3h4v-9.5H21z"/>
<path fill="#865E31" d="M29.3,29v-5c0-1.2-1-2.3-2.3-2.3h-2v9.5h2C28.2,31.3,29.3,30.2,29.3,29z"/>
<path fill="#70625A" d="M27,22.5c0.8,0,1.5,0.7,1.5,1.5v5c0,0.8-0.7,1.5-1.5,1.5h-6c-0.8,0-1.5-0.7-1.5-1.5v-5
	c0-0.8,0.7-1.5,1.5-1.5H27 M27,21h-6c-1.7,0-3,1.3-3,3v5c0,1.7,1.3,3,3,3h6c1.7,0,3-1.3,3-3v-5C30,22.3,28.7,21,27,21L27,21z"/>
<path fill="#FFFFFF" d="M79,38c7.7,0,14,6.3,14,14s-6.3,14-14,14c-7.7,0-14-6.3-14-14S71.3,38,79,38 M79,36.5
	c-8.5,0-15.5,7-15.5,15.5s7,15.5,15.5,15.5s15.5-7,15.5-15.5S87.5,36.5,79,36.5L79,36.5z"/>
<circle fill="#70625A" cx="79" cy="52" r="14"/>
<path fill="#70625A" d="M79,64.5c-6.9,0-12.5-5.6-12.5-12.5S72.1,39.5,79,39.5S91.5,45.1,91.5,52S85.9,64.5,79,64.5z"/>
<path fill="#B2C455" d="M79,39.5c6.9,0,12.5,5.6,12.5,12.5S85.9,64.5,79,64.5S66.5,58.9,66.5,52S72.1,39.5,79,39.5"/>
<path fill="#FEBD4B" d="M18,26.7c-1.2,0-2.3,1-2.3,2.3v2c0,1.2,1,2.3,2.3,2.3h9v-6.5H18z"/>
<path fill="#CE9841" d="M32.2,31v-2c0-1.2-1.1-2.3-2.4-2.3h-3.1v6.5h3.1C31.2,33.3,32.2,32.2,32.2,31z"/>
<path fill="#70625A" d="M30,27.5c0.8,0,1.5,0.7,1.5,1.5v2c0,0.8-0.7,1.5-1.5,1.5H18c-0.8,0-1.5-0.7-1.5-1.5v-2
	c0-0.8,0.7-1.5,1.5-1.5H30 M30,26H18c-1.7,0-3,1.3-3,3v2c0,1.7,1.3,3,3,3h12c1.7,0,3-1.3,3-3v-2C33,27.3,31.7,26,30,26L30,26z"/>
<path fill-rule="evenodd" clip-rule="evenodd" fill="#FFFFFF" d="M8.1,68.5c0,0.5,0,1,0.1,1.5h-4C4.1,69.2,4,68.4,4,67.5
	c0-3.8,1.4-7.2,3.5-9.5h5.2C9.9,60.2,8.1,64.1,8.1,68.5z"/>
<path fill="#FFFFFF" d="M22.7,95.3C24,96,29.8,97.5,54,97.5c7,0,12.5-0.1,16.8-0.3c-2.5-18.5-11.4-29.8-16-34.6
	c-0.3-0.1-0.5-0.1-0.8-0.1C46.3,62.5,25.1,90.3,22.7,95.3z"/>
<path fill="#E4E4E4" d="M85.3,95.3C83,90.5,63,64.2,54.8,62.6c4.6,4.8,13.5,16.1,16,34.6C81.2,96.7,84.4,95.8,85.3,95.3z"/>
<g>
	<path fill="#C6DA60" d="M89,53.3c-3.4,0-6.3-2.8-6.3-6.3c0-2.6,1.6-4.9,3.9-5.8c3.5,2.5,5.6,6.5,5.6,10.8c0,0.1,0,0.2,0,0.3
		C91.3,52.9,90.1,53.3,89,53.3z"/>
	<path fill="#70625A" d="M86.6,42.1c3.1,2.3,4.9,6,4.9,9.8c-0.8,0.4-1.6,0.6-2.5,0.6c-3,0-5.5-2.5-5.5-5.5
		C83.5,44.9,84.7,43,86.6,42.1 M86.8,40.4C84,41.3,82,43.9,82,47c0,3.9,3.1,7,7,7c1.5,0,2.8-0.5,4-1.2c0-0.3,0-0.5,0-0.8
		C93,47.1,90.5,42.9,86.8,40.4L86.8,40.4z"/>
</g>
<path fill="#FFFFFF" d="M85.3,14.7H58.6c-0.4,0-0.8-0.3-0.8-0.7v0c0-0.4,0.3-0.7,0.8-0.7h26.6c0.4,0,0.8,0.3,0.8,0.7v0
	C86,14.4,85.7,14.7,85.3,14.7z"/>
<g>
	<path fill-rule="evenodd" clip-rule="evenodd" fill="#C6DA60" d="M79,58.3c-3.4,0-6.3-2.8-6.3-6.3s2.8-6.3,6.3-6.3s6.3,2.8,6.3,6.3
		S82.4,58.3,79,58.3z"/>
	<path fill="#70625A" d="M79,46.5c3,0,5.5,2.5,5.5,5.5S82,57.5,79,57.5S73.5,55,73.5,52S76,46.5,79,46.5 M79,45c-3.9,0-7,3.1-7,7
		s3.1,7,7,7c3.9,0,7-3.1,7-7S82.9,45,79,45L79,45z"/>
</g>
<g>
	<path fill="#C6DA60" d="M86.7,62.8c-2.4-0.9-3.9-3.2-3.9-5.8c0-3.4,2.8-6.3,6.3-6.3c1.1,0,2.3,0.3,3.2,0.9c0,0.1,0,0.2,0,0.3
		C92.3,56.3,90.2,60.3,86.7,62.8z"/>
	<path fill="#70625A" d="M89,51.5c0.9,0,1.7,0.2,2.5,0.6c0,3.9-1.9,7.5-4.9,9.8c-1.9-0.9-3.1-2.8-3.1-4.9C83.5,54,86,51.5,89,51.5
		 M89,50c-3.9,0-7,3.1-7,7c0,3.1,2,5.7,4.8,6.6C90.5,61.1,93,56.9,93,52c0-0.3,0-0.5,0-0.8C91.8,50.5,90.5,50,89,50L89,50z"/>
</g>
<g>
	<path fill="#C6DA60" d="M70,56.3c-1.4,0-2.8-0.5-3.9-1.4c-0.2-1-0.3-1.9-0.3-2.9c0-2.9,0.9-5.7,2.7-8.1c0.5-0.1,1-0.2,1.5-0.2
		c3.4,0,6.3,2.8,6.3,6.3S73.4,56.3,70,56.3z"/>
	<path fill="#70625A" d="M70,44.5c3,0,5.5,2.5,5.5,5.5S73,55.5,70,55.5c-1.2,0-2.3-0.4-3.2-1.1c-0.2-0.8-0.3-1.6-0.3-2.4
		c0-2.7,0.8-5.2,2.4-7.4C69.3,44.5,69.6,44.5,70,44.5 M70,43c-0.7,0-1.3,0.1-1.9,0.3C66.1,45.7,65,48.7,65,52c0,1.1,0.1,2.2,0.4,3.3
		c1.2,1.1,2.8,1.7,4.6,1.7c3.9,0,7-3.1,7-7S73.9,43,70,43L70,43z"/>
</g>
<g>
	<path fill="#C6DA60" d="M73.8,64.2c-3.1-1.3-5.7-3.9-7-7c0.4-3.1,3-5.4,6.2-5.4c3.4,0,6.3,2.8,6.3,6.3
		C79.3,61.2,76.9,63.8,73.8,64.2z"/>
	<path fill="#70625A" d="M73,52.5c3,0,5.5,2.5,5.5,5.5c0,2.7-1.9,5-4.6,5.4c-2.8-1.3-5.1-3.5-6.4-6.4C68,54.4,70.3,52.5,73,52.5
		 M73,51c-3.6,0-6.6,2.8-7,6.3c1.4,3.5,4.2,6.3,7.7,7.7c3.5-0.4,6.3-3.3,6.3-7C80,54.1,76.9,51,73,51L73,51z"/>
</g>
<g>
	<path fill="#C6DA60" d="M79,65.3c-0.9,0-1.9-0.1-2.9-0.3c-0.9-1.1-1.4-2.5-1.4-3.9c0-3.4,2.8-6.3,6.3-6.3s6.3,2.8,6.3,6.3
		c0,0.5-0.1,1-0.2,1.5C84.7,64.3,81.9,65.3,79,65.3z"/>
	<path fill="#70625A" d="M81,55.5c3,0,5.5,2.5,5.5,5.5c0,0.4,0,0.7-0.1,1.1c-2.2,1.6-4.7,2.4-7.4,2.4c-0.8,0-1.6-0.1-2.4-0.2
		c-0.7-0.9-1.1-2.1-1.1-3.3C75.5,58,78,55.5,81,55.5 M81,54c-3.9,0-7,3.1-7,7c0,1.8,0.7,3.4,1.7,4.6c1,0.3,2.1,0.4,3.3,0.4
		c3.3,0,6.3-1.1,8.7-3.1c0.2-0.6,0.3-1.3,0.3-1.9C88,57.1,84.9,54,81,54L81,54z"/>
</g>
<path fill="#70625A" d="M86.6,94.6C83.5,88.6,62.6,61,54,61c-0.2,0-0.5,0-0.8,0.1C43.5,62.7,21,93.2,21,95.6c0,2.5,14.8,3.4,33,3.4
	c6.2,0,12-0.1,17-0.3c6.4-0.3,11.4-0.8,14-1.6c1.3-0.4,2.1-0.9,2.1-1.4C87,95.5,86.9,95.1,86.6,94.6z M54,97.5
	c-24.2,0-30-1.5-31.3-2.2c2.4-5,23.6-32.9,31.3-32.9c0.2,0,0.5,0,0.8,0.1C63,64.2,83,90.5,85.3,95.3c-1,0.5-4.1,1.3-14.6,1.8
	C66.5,97.4,61,97.5,54,97.5z"/>
<path fill="#CCB176" d="M32.2,44.9v-1.5c0-0.9-1-1.6-2.3-1.6h-3v4.8h3C31.1,46.5,32.2,45.8,32.2,44.9z"/>
<path fill="#70625A" d="M30.5,42.7c0.6,0,1,0.4,1,1v1c0,0.6-0.4,1-1,1h-13c-0.6,0-1-0.4-1-1v-1c0-0.6,0.4-1,1-1H30.5 M30.5,41.2h-13
	c-1.4,0-2.5,1.1-2.5,2.5v1c0,1.4,1.1,2.5,2.5,2.5h13c1.4,0,2.5-1.1,2.5-2.5v-1C33,42.4,31.9,41.2,30.5,41.2L30.5,41.2z"/>
<path fill="#70625A" d="M41.2,54.4H15.1c-0.4,0-0.8-0.3-0.8-0.8c0-0.4,0.4-0.8,0.8-0.8h26.1c0.4,0,0.8,0.3,0.8,0.8
	C42,54.1,41.6,54.4,41.2,54.4z"/>
<path fill="#70625A" d="M9.4,54.4H6.7c-0.4,0-0.8-0.3-0.8-0.8s0.4-0.8,0.8-0.8h2.7c0.4,0,0.8,0.3,0.8,0.8S9.8,54.4,9.4,54.4z"/>
<path fill="#70625A" d="M32.4,80.8H14.7c-0.4,0-0.8-0.3-0.8-0.8s0.4-0.8,0.8-0.8h17.7c0.4,0,0.8,0.3,0.8,0.8S32.9,80.8,32.4,80.8z"
	/>
<path fill="#70625A" d="M3.9,79.3h2.7c0.4,0,0.8,0.3,0.8,0.8S7,80.8,6.6,80.8H3.9"/>
</svg>
