<?xml version="1.0" encoding="utf-8"?>
<!-- Generator: Adobe Illustrator 18.1.0, SVG Export Plug-In . SVG Version: 6.00 Build 0)  -->
<svg version="1.1" id="Слой_1" xmlns="http://www.w3.org/2000/svg" xmlns:xlink="http://www.w3.org/1999/xlink" x="0px" y="0px"
	 viewBox="0 0 100 100" enable-background="new 0 0 100 100" xml:space="preserve">
<g>
	<path fill-rule="evenodd" clip-rule="evenodd" fill="#D4A01E" d="M24.5,55.6c-2.9,0-5.6-0.9-6.9-2.4c-2.2-2.5-2.6-6.1-1-8.9l0.6-1
		l-1.1-0.2C14.7,43,7.9,42,7.5,42c-1.3-0.1-2.5-0.9-3.2-2c-1.1-2-0.5-4.5,1.5-5.6c0.1,0,0.2-0.1,0.3-0.1L6.5,34l0,0
		c0.4-0.2,1.3-0.6,2.4-1.1c4.4-2,12.7-5.8,15.1-6.9c1.1,2.9-1.2,6.4-6.4,9.6l-1.9,1.2l10.9,1.1c0.8,0.1,2.2,0.2,2.7,0.5
		c0.9,0.4,1.7,1,2.5,1.9c1.5,1.6,2.3,4.1,2.1,6.7c-0.2,2.6-1.3,5-3.2,6.7C29.5,54.9,27.1,55.6,24.5,55.6z"/>
	<path fill="#70625A" d="M23.6,27.1c0.3,2.4-2,5.2-6.3,7.9l-3.7,2.3l4.4,0.4l8.7,0.9c0.9,0.1,2.1,0.3,2.5,0.4
		c0.8,0.4,1.5,0.9,2.3,1.7c1.3,1.5,2.1,3.8,1.9,6.2c-0.1,2.4-1.2,4.6-3,6.2c-1.3,1.1-3.5,1.8-5.9,1.8c-2.7,0-5.2-0.8-6.4-2.2
		c-2-2.2-2.4-5.6-0.9-8l1.2-1.9l-2.2-0.3c-3.1-0.4-8.3-1.2-8.6-1.2c-1.1-0.1-2.1-0.7-2.6-1.7C4,38,4.6,35.9,6.2,35
		c0.1,0,0.1-0.1,0.2-0.1l0.2-0.1l0.6-0.3l0,0c0.4-0.2,1-0.5,2.1-1C13.2,31.8,20.4,28.5,23.6,27.1 M24.4,25c0,0-10.7,4.8-15.8,7.2
		C7,33,5.9,33.5,5.9,33.5c-0.2,0.1-0.3,0.1-0.5,0.2C3.1,35,2.3,38,3.7,40.3c0.8,1.5,2.3,2.3,3.8,2.4c0.3,0,8.5,1.2,8.5,1.2
		c-1.8,3-1.4,7,1.1,9.8c1.6,1.8,4.6,2.7,7.5,2.7c2.6,0,5.3-0.7,6.9-2.1c4.7-4.2,4.2-11.1,1.2-14.5c-0.8-0.9-1.8-1.6-2.8-2.1
		c-0.8-0.3-2.9-0.5-2.9-0.5l-8.7-0.9C24.3,32.4,26.3,28.2,24.4,25L24.4,25z"/>
</g>
<g>
	<g>
		<path fill="#FFFFFF" d="M62.6,7.9c1-0.3,1.8-0.9,2.4-1.7c-0.8-1.3-2.6-2-4.3-1.5c-0.1,0-0.1,0-0.2,0.1l-0.2,0.1c0,0,0,0-0.1,0
			c-0.2,0.1-0.4,0-0.6-0.1c-0.2-0.1-0.3-0.3-0.4-0.5l0-0.2c0-0.1,0-0.1,0-0.2c-0.6-2.1-2.5-3.4-4.3-2.9c-1.8,0.5-2.8,2.6-2.2,4.7
			c0.1,0.5,0.4,1,0.7,1.5c0.2,0.2,0.2,0.6,0.1,0.8l-6.8,12l2.9,1.7l8.6-14C59.3,8.3,61.1,8.3,62.6,7.9z"/>
		<path fill="#DADADA" d="M60.2,11.9c0.1-0.2,0.3-0.3,0.5-0.4c0.1,0,0.2,0,0.3,0c0.5,0.1,1.1,0,1.6-0.1c2.1-0.6,3.3-2.5,2.8-4.4
			c-0.1-0.3-0.2-0.5-0.4-0.8c-0.5,0.8-1.4,1.4-2.4,1.7c-1,0.3-2.2,0.4-3.3,0.2C58.5,8,57.8,8.3,57.4,9l-8.5,15l4.5,0L60.2,11.9z"/>
		<path fill="#70625A" d="M55.1,1.8c1.4-0.4,2.9,0.7,3.4,2.3c0,0,0,0.1,0,0.1c0,0.1,0,0.1,0,0.2c0.1,0.4,0.3,0.8,0.7,1
			c0.3,0.2,0.8,0.2,1.1,0.1c0,0,0.1,0,0.1,0c0.1,0,0.1-0.1,0.2-0.1c0,0,0.1,0,0.1,0c1.7-0.5,3.3,0.3,3.7,1.8c0.4,1.4-0.6,3-2.3,3.4
			c-0.4,0.1-0.9,0.2-1.3,0.1c-0.2,0-0.4,0-0.6,0c-0.4,0.1-0.7,0.4-0.9,0.7l-6.4,11.4l-5.5-3.1l6.4-11.4c0.3-0.5,0.2-1.2-0.1-1.6
			c-0.3-0.4-0.5-0.8-0.6-1.2C52.9,3.9,53.7,2.2,55.1,1.8 M54.7,0.3c-2.2,0.6-3.5,3.1-2.8,5.6c0.2,0.6,0.5,1.2,0.8,1.7l-7.1,12.7
			l8.1,4.6l7.1-12.7c0.6,0.1,1.2,0,1.9-0.1c2.5-0.7,4-3,3.3-5.3c-0.6-2.2-3.1-3.5-5.6-2.8c-0.2,0-0.3,0.1-0.4,0.2
			C60,4,60,3.9,60,3.7C59.3,1.2,56.9-0.3,54.7,0.3L54.7,0.3z"/>
	</g>
	<g>
		<path fill-rule="evenodd" clip-rule="evenodd" fill="#D4A01E" d="M44,45.1c-2.3,0-4.6-0.6-6.5-1.8c-6.3-3.7-8.4-11.8-4.8-18.1
			c2.7-4.8,9.8-9.9,16-9.9c0.2,0,0.4,0,0.6,0l6.3,3.7c3.5,5.2,2.7,14.4-0.2,19.5C53.1,42.5,48.7,45.1,44,45.1z"/>
		<path fill="#70625A" d="M48.6,14.5V16c0.1,0,0.3,0,0.4,0l6,3.5c3.2,5,2.4,13.7-0.3,18.6c-2.2,3.9-6.3,6.2-10.7,6.2
			c-2.2,0-4.3-0.6-6.2-1.7c-5.9-3.4-7.9-11.1-4.5-17.1C36,21,42.8,16,48.6,16V14.5 M48.6,14.5c-6.2,0-13.6,5-16.6,10.3
			c-3.8,6.7-1.6,15.3,5.1,19.1c2.2,1.3,4.6,1.9,6.9,1.9c4.8,0,9.5-2.5,12-7c3.2-5.5,3.7-15.1,0.1-20.4l-6.6-3.9
			C49.2,14.5,48.9,14.5,48.6,14.5L48.6,14.5z"/>
	</g>
</g>
<g>
	<g>
		<path fill="#A87F1A" d="M73.5,43.6L73,43.4l0-0.5c0.1-1.7-0.1-3.4-0.5-5.1c-0.1-0.2-0.1-0.5-0.2-0.7C69.6,26.5,58.2,19.4,44,19.4
			c-3.9,0-7.9,0.5-11.8,1.6C13.8,26,2.9,46.6,4.2,53.4c0.1,0.4,0.2,0.8,0.4,1.2C6.7,58.9,15,66.1,25.3,69.9c4.1,1.5,8.6,2.5,13,2.5
			c2.5,0,4.9-0.3,7.1-0.9c6.1-1.7,11.8-4.6,16.4-8.3c1.5-1.3,2.9-2.6,4.2-4.1L66,59l0.1-0.1c7.6-5,12.8-10.3,12.6-11.3
			C77.5,45.8,75.7,44.4,73.5,43.6z"/>
		<path fill="#D4A01E" d="M53.9,62.9c-1.7,0.5-3.5,0.8-5,0.8c-5.1,0-9.2-3.8-9.2-8.4c0-4.4,2.1-8,6.8-8.4c-2.1-2.5-3.3-5.6-3.3-9.1
			c0-7.8,6.3-14,14-14s14,6.3,14,14c0,0.1,0,0.1,0,0.2c0.5-0.1,1-0.2,1.5-0.2c0,0,0,0,0,0c-0.1-0.2-0.1-0.5-0.2-0.7
			C69.6,26.5,58.2,19.4,44,19.4c-3.9,0-7.9,0.5-11.8,1.6C13.8,26,2.9,46.6,4.2,53.4c0.1,0.4,0.2,0.8,0.4,1.2
			c2.7,1,12.2,4.1,22.1,2.2c11.8-2.3,12.2-4.2,12.2-4.2l1.2,13.9c0,0-6.8,3.5-14.9,3.4c4.1,1.5,8.6,2.5,13,2.5
			c2.5,0,4.9-0.3,7.1-0.9c6.1-1.7,11.8-4.6,16.4-8.3c-1.3,0.3-2.7,0.5-3.9,0.5C56.4,63.7,55.1,63.4,53.9,62.9z"/>
	</g>
	<path fill-rule="evenodd" clip-rule="evenodd" fill="#FFE197" d="M15.9,37.3c1.1,0.7,0.3,4-1.7,7.5c-2,3.5-4.5,5.7-5.6,5
		c-1.1-0.7-0.3-4,1.7-7.5C12.3,38.9,14.8,36.6,15.9,37.3z"/>
	<path fill="#70625A" d="M44,20.1c13.9,0,25,6.9,27.7,17.1c0.5,1.8,0.7,3.7,0.6,5.6l0,1.1l1,0.4c1.9,0.7,3.5,1.9,4.7,3.4
		c-0.6,1.5-5.4,6.1-12.2,10.6l-0.2,0.1l-0.1,0.2c-5,5.7-12.1,10-20.2,12.2c-2.2,0.6-4.5,0.9-6.9,0.9C22,71.7,5.9,58.3,4.9,53.3
		c-0.5-2.9,1.5-9.4,6.4-16.2c3.2-4.5,10.3-12.4,21-15.4C36.2,20.7,40.1,20.1,44,20.1L44,20.1 M44,18.6c-3.9,0-7.9,0.5-12,1.6
		C13,25.5,2.1,46.5,3.5,53.6c1.1,5.8,17.9,19.6,34.8,19.6c2.5,0,4.9-0.3,7.3-1c8.7-2.4,15.9-7,20.9-12.6
		c6.8-4.5,13.9-10.8,12.8-12.4c-1.4-2.1-3.3-3.5-5.6-4.3c0.1-2-0.1-4-0.7-6C70.1,25.7,58.1,18.6,44,18.6L44,18.6z"/>
</g>
<g>
	<path fill-rule="evenodd" clip-rule="evenodd" fill="#D4A01E" d="M38.5,65.6c-2.9,0-5.6-0.9-6.9-2.4c-2.2-2.5-2.6-6.1-1-8.9l0.6-1
		l-1.1-0.2C28.7,53,21.9,52,21.5,52c-1.3-0.1-2.5-0.9-3.2-2c-1.1-2-0.5-4.5,1.5-5.6c0.1,0,0.2-0.1,0.3-0.1l0.5-0.2l0,0
		c0.4-0.2,1.3-0.6,2.4-1.1c4.4-2,12.7-5.8,15.1-6.9c1.1,2.9-1.2,6.4-6.4,9.6l-1.9,1.2l10.9,1.1c0.8,0.1,2.2,0.2,2.7,0.5
		c0.9,0.4,1.7,1,2.5,1.9c1.5,1.6,2.3,4.1,2.1,6.7c-0.2,2.6-1.3,5-3.2,6.7C43.5,64.9,41.1,65.6,38.5,65.6z"/>
	<path fill="#70625A" d="M37.6,37.1c0.3,2.4-2,5.2-6.3,7.9l-3.7,2.3l4.4,0.4l8.7,0.9c0.9,0.1,2.1,0.3,2.5,0.4
		c0.8,0.4,1.5,0.9,2.3,1.7c1.3,1.5,2.1,3.8,1.9,6.2c-0.1,2.4-1.2,4.6-3,6.2c-1.3,1.1-3.5,1.8-5.9,1.8c-2.7,0-5.2-0.8-6.4-2.2
		c-2-2.2-2.4-5.6-0.9-8l1.2-1.9l-2.2-0.3c-3.1-0.4-8.3-1.2-8.6-1.2c-1.1-0.1-2.1-0.7-2.6-1.7C18,48,18.6,45.9,20.2,45
		c0.1,0,0.1-0.1,0.2-0.1l0.2-0.1l0.6-0.3l0,0c0.4-0.2,1-0.5,2.1-1C27.2,41.8,34.4,38.5,37.6,37.1 M38.4,35c0,0-10.7,4.8-15.8,7.2
		c-1.6,0.8-2.7,1.3-2.7,1.3c-0.2,0.1-0.3,0.1-0.5,0.2c-2.3,1.3-3.1,4.3-1.8,6.6c0.8,1.5,2.3,2.3,3.8,2.4c0.3,0,8.5,1.2,8.5,1.2
		c-1.8,3-1.4,7,1.1,9.8c1.6,1.8,4.6,2.7,7.5,2.7c2.6,0,5.3-0.7,6.9-2.1c4.7-4.2,4.2-11.1,1.2-14.5c-0.8-0.9-1.8-1.6-2.8-2.1
		c-0.8-0.3-2.9-0.5-2.9-0.5l-8.7-0.9C38.3,42.4,40.3,38.2,38.4,35L38.4,35z"/>
</g>
<g>
	<path fill="#ADC147" d="M97.3,58.8c0-3.1-2.4-5.8-5.5-6.2l-0.5-0.1l0,0L91.2,52c-0.7-4.2-4.3-7.3-8.6-7.3c-3.4,0-6.4,1.9-7.9,5
		l-0.3,0.6l-0.6-0.2c-0.9-0.2-1.8-0.4-2.8-0.4c-4.5,0-8.3,2.8-8.3,6.2s3.7,6.3,8.3,6.3c2.1,0,4-0.6,5.6-1.7l0.4-0.3l0.4,0.3
		c0.7,0.5,1.4,0.9,2.1,1.1l0.4,0.1l0.1,0.4c0.4,1.8,1.2,3.5,2.3,5.2c0.8,1.2,1.7,2.2,2.6,3.1c2,1.9,4.3,3,6.3,3
		c0.9,0,1.6-0.2,2.2-0.6c2-1.3,2.5-4.6,1.2-8.4L94.6,64l0.4-0.3C96.5,62.4,97.3,60.7,97.3,58.8z"/>
	<path fill="#C1D751" d="M83.8,63.1c0,0,5.3,0.2,6.6-3.2c1.3-3.6,0.1-7.3,0.1-7.3l0.7,0l0,0l-0.1-0.6c-0.7-4.2-4.3-7.3-8.6-7.3
		c-3.4,0-6.4,1.9-7.9,5l-0.3,0.6l-0.6-0.2c-0.9-0.2-1.8-0.4-2.8-0.4c-4.5,0-8.3,2.8-8.3,6.2s3.7,6.3,8.3,6.3c2.1,0,4-0.6,5.6-1.7
		l0.4-0.3l0.4,0.3c0.7,0.5,1.4,0.9,2.1,1.1l0.4,0.1l0.1,0.4c0.4,1.8,1.2,3.5,2.3,5.2c0.8,1.2,1.7,2.2,2.6,3.1c0.3-0.5,0.5-1,0.7-1.6
		C86.6,65.7,83.8,63.1,83.8,63.1z"/>
	<path fill="#70625A" d="M82.5,45.5c3.9,0,7.2,2.8,7.9,6.7l0.2,1.1l1.1,0.1c2.7,0.3,4.8,2.7,4.8,5.4c0,1.6-0.7,3.2-2,4.2l-0.8,0.7
		l0.3,1c1.1,3.4,0.7,6.4-0.9,7.5c-0.5,0.3-1.1,0.5-1.8,0.5c-2.7,0-6-2.3-8.3-5.8c-1-1.6-1.8-3.3-2.2-4.9l-0.2-0.8L79.8,61
		c-0.6-0.2-1.3-0.6-1.9-1L77,59.4L76.1,60c-1.4,1-3.2,1.5-5.1,1.5c-4.1,0-7.5-2.5-7.5-5.5c0-3,3.4-5.5,7.5-5.5
		c0.9,0,1.7,0.1,2.6,0.3l1.2,0.3l0.5-1.1C76.6,47.2,79.4,45.5,82.5,45.5 M82.5,44c-3.8,0-7,2.2-8.6,5.4C73,49.1,72,49,71,49
		c-5,0-9,3.1-9,7c0,3.9,4,7,9,7c2.3,0,4.4-0.7,6-1.8c0.7,0.5,1.4,0.9,2.2,1.2c0.4,1.8,1.3,3.6,2.4,5.4c2.7,4,6.5,6.4,9.6,6.4
		c1,0,1.9-0.2,2.7-0.8c2.4-1.6,2.8-5.3,1.5-9.2C97,63,98,61.1,98,58.9c0-3.6-2.7-6.5-6.1-6.9C91.1,47.4,87.2,44,82.5,44L82.5,44z"/>
</g>
<g>
	<path fill-rule="evenodd" clip-rule="evenodd" fill="#747474" d="M100,85c0,1.1-4,1.9-9,2v0H55v-4h36v0C96,83,100,83.9,100,85z"/>
	<g>
		<g>
			<path fill="#AD6443" d="M87.3,74.9L70.7,55.6H48c-6.2,0-11.3,6.4-11.3,14.3c0,2.3,0.5,4.6,1.2,6.5c1.9,4.6,5.6,7.8,10,7.8h47.4
				L87.3,74.9z"/>
			<path fill="#C4704D" d="M87.3,74.9L70.7,55.6H48c-6.2,0-11.3,6.4-11.3,14.3c0,2.3,0.5,4.6,1.2,6.5v-1.5H87.3z"/>
			<path fill="#70625A" d="M70.3,56.4l23.4,27.1H48c-5.8,0-10.5-6.1-10.5-13.5c0-7.5,4.7-13.5,10.5-13.5H70.3 M71,54.9H48
				c-6.6,0-12,6.7-12,15c0,8.3,5.4,15,12,15h49L71,54.9L71,54.9z"/>
		</g>
		<g>
			<path fill-rule="evenodd" clip-rule="evenodd" fill="#FFC3AD" d="M96.4,84.2c-3.4,0-10.1-4.3-16.3-10.6
				C71.9,65.5,68.2,57.8,69.9,56c0.3-0.3,0.7-0.4,1.3-0.4c3.4,0,10.1,4.3,16.3,10.6c8.2,8.2,11.9,15.8,10.2,17.6
				C97.4,84.1,97,84.2,96.4,84.2L96.4,84.2z"/>
			<path fill="#70625A" d="M71.2,56.4c2.7,0,9,3.6,15.8,10.3c8.8,8.8,11.1,15.6,10.2,16.5c-0.1,0.1-0.4,0.2-0.7,0.2
				c-2.7,0-9-3.6-15.8-10.3c-8.8-8.8-11.1-15.6-10.2-16.5C70.6,56.5,70.8,56.4,71.2,56.4 M71.2,54.9c-0.8,0-1.4,0.2-1.8,0.6
				c-2.3,2.3,2.2,10.7,10.2,18.7C86.1,80.7,92.9,85,96.4,85c0.8,0,1.4-0.2,1.8-0.6c2.3-2.3-2.2-10.7-10.2-18.7
				C81.5,59.1,74.7,54.9,71.2,54.9L71.2,54.9z"/>
		</g>
		<path fill="#AD6443" d="M66,61H48c-0.6,0-1-0.4-1-1c0-0.6,0.4-1,1-1h18c0.6,0,1,0.4,1,1C67,60.6,66.6,61,66,61z"/>
	</g>
</g>
<g>
	<ellipse fill-rule="evenodd" clip-rule="evenodd" fill="#747474" cx="57.2" cy="98" rx="13.9" ry="2"/>
	<g>
		<g>
			<path fill="#8C7251" d="M54.1,82.3l-29.8-5.9L0.8,71.8V85c0,1.2,3.4,3.1,10.9,4.3c0,0,0.3,0,0.3,0c0.7,0.1,1.4,0.2,2.1,0.3
				c0.4,0,0.7,0.1,1.1,0.1c2.7,0.4,8,1.1,17.9,2.6c0,0,0.1,0,0.1,0c4.6,0.7,6.5,2.1,7.3,2.8c0.3,0.3,0.5,0.7,0.6,1
				c0.6,1.5,5,3.2,12.1,3.2c0.3,0,0.6,0,0.9,0c6.9-0.2,11.2-2,11.2-3.2l0-0.8V84.6L54.1,82.3z"/>
			<path fill="#9F805B" d="M33.1,78.2v14c0,0,0.1,0,0.1,0c4.6,0.7,6.5,2.1,7.3,2.8c0.3,0.3,0.5,0.7,0.6,1c0.6,1.5,5,3.2,12.1,3.2
				c0.3,0,0.6,0,0.9,0V82.3L33.1,78.2z"/>
			<path fill="#9F805B" d="M13.9,74.4L0.8,71.8V85c0,1.2,3.4,3.1,10.9,4.3c0,0,0.3,0,0.3,0c0.7,0.1,1.4,0.2,2.1,0.3V75.9L13.9,74.4z
				"/>
		</g>
		<path fill="#70625A" d="M1.6,72.7l63,12.4v9.3h0v1.5c-0.3,0.7-4.1,2.5-11.4,2.5c-7.4,0-11.1-1.7-11.4-2.7
			c-0.1-0.3-0.3-0.8-0.7-1.3c-1-1-3.1-2.4-7.7-3c-7.9-1.2-14.1-2-18-2.6c-1.1-0.1-2.2-0.3-3.1-0.4l0,0l0,0c0,0,0,0-0.1,0l-0.2,0
			C3.7,87.2,1.7,85.4,1.6,85V72.7 M0.1,70.9v14c0,2.1,4.6,3.9,11.5,5l0,0c0,0,0.1,0,0.3,0c1,0.2,2.1,0.3,3.2,0.4
			c3,0.4,8.3,1.1,18,2.6c4.4,0.7,6.2,1.9,6.9,2.6c0.2,0.2,0.3,0.5,0.4,0.8c0.8,2.2,6,3.7,12.8,3.7c7.1,0,12.9-1.8,12.9-4h0V84
			L0.1,70.9L0.1,70.9z"/>
	</g>
	<g>
		<path fill="#FFB1B1" d="M56.6,72.5c-2.3-1.8-4.5-3.2-6.4-4.2c-2.5-1.3-4.6-2-5.9-2.3c-1.3-0.4-2.7-0.8-4.2-1.1
			c-4.1-0.8-8.9-1.3-14-1.3c-14.9,0-25.2,3.8-25.2,7.3c0,2.9,6.6,5.6,16.2,6.8c4.3,0.7,9.8,1.6,16.2,2.5c0.1,0,0.2,0,0.3,0
			c3.7,0.6,5.6,1.6,6.6,2.4c0.6,0.5,0.9,0.9,0.9,1l0.1,0.2V84c0,0.8,1.6,1.7,4.4,2.4c1.2,0.3,2.7,0.5,4.4,0.7
			c1.1,0.1,2.2,0.1,3.4,0.1c7.4,0,12.2-1.9,12.2-3.3C65.3,83.9,65.2,79.4,56.6,72.5z"/>
		<g>
			<path fill="#FFF2EC" d="M24.1,67c-6.1,0-11,1.6-11,3.5c0,1.9,4.9,3.5,11,3.5c6.1,0,11-1.6,11-3.5C35.1,68.6,30.2,67,24.1,67z
				 M24.1,72c-4.4,0-7.4-0.8-8.6-1.5c1.2-0.7,4.2-1.5,8.6-1.5c4.4,0,7.4,0.8,8.6,1.5C31.5,71.2,28.5,72,24.1,72z"/>
			<path fill="#FFF2EC" d="M55.1,80.9c1.8-5.4-1.4-9.8-4.8-12.6c-2.5-1.3-4.6-2-5.9-2.3c-1.3-0.4-2.7-0.8-4.2-1.1
				c3.6,2,10.6,6.8,7,12c-2,2.8-8.6,3.3-13.6,3.3c3.7,0.6,5.6,1.6,6.6,2.4c3.6-0.5,7-1.8,9.1-4.7c2.1-2.9,1.5-5.6,0-7.9
				c2.7,2.5,4.7,6,3.4,10.3c-1.1,3.7-4.4,5.3-7.2,6c1.2,0.3,2.7,0.5,4.4,0.7C52,85.9,54.1,84,55.1,80.9z"/>
		</g>
		<path fill="#70625A" d="M26.1,64.4c6.8,0,13.2,0.8,18,2.3l0,0l0,0c2.2,0.6,6.7,2.1,12,6.4c6.5,5.2,8,9,8.3,10.3
			c0.1,0.3,0,0.7-0.3,0.9c-1.2,0.8-4.9,2.1-11,2.1c-7.3,0-11.1-1.8-11.3-2.5l-0.3-0.6c-0.1-0.1-0.1-0.2-0.2-0.4
			c-0.5-0.8-2.1-2.7-8-3.5c-6.4-0.9-11.8-1.8-16.2-2.5l0,0l0,0c-10.7-1.2-15.5-4.3-15.5-6C1.6,68.3,11.1,64.4,26.1,64.4 M26.1,62.9
			c-14.4,0-26,3.6-26,8c0,3.4,7,6.3,16.8,7.5c3.7,0.6,8.9,1.5,16.2,2.5c5,0.7,6.6,2.3,7,2.8c0.1,0.1,0.1,0.2,0.2,0.4
			c0.5,2.2,5.9,3.9,12.9,3.9c7.1,0,12.9-1.8,12.9-4c0,0,0-4.8-9-12c-5.4-4.3-10.1-6-12.5-6.6C39.8,63.8,33.3,62.9,26.1,62.9
			L26.1,62.9z"/>
	</g>
</g>
<path fill-rule="evenodd" clip-rule="evenodd" fill="#FFE197" d="M58.8,24.7c0.6,0.8-0.6,2.6-2.7,4.1c-2.1,1.4-4.3,1.9-4.9,1.1
	c-0.6-0.8,0.6-2.6,2.7-4.1C56,24.4,58.2,23.9,58.8,24.7z"/>
<g>
	<g>
		<path fill="#FFFFFF" d="M83.1,16.1c1.1,0,2-0.4,2.7-1c-0.4-1.5-1.9-2.6-3.7-2.6c-0.1,0-0.1,0-0.2,0l-0.2,0c0,0,0,0-0.1,0
			c-0.2,0-0.4-0.1-0.5-0.2c-0.2-0.2-0.2-0.4-0.2-0.6l0-0.2c0-0.1,0-0.1,0-0.2c0-2.2-1.5-3.9-3.4-3.9c-1.9,0-3.4,1.8-3.4,3.9
			c0,0.5,0.1,1.1,0.3,1.6c0.1,0.3,0,0.6-0.2,0.8l-9.7,9.8l2.4,2.4l12-11.2C79.8,15.6,81.5,16.1,83.1,16.1z"/>
		<path fill="#DADADA" d="M79.7,19.3c0.1-0.1,0.3-0.2,0.5-0.2c0.1,0,0.2,0,0.3,0.1c0.5,0.2,1,0.3,1.6,0.3c2.1,0,3.9-1.5,3.9-3.4
			c0-0.3-0.1-0.6-0.1-0.9c-0.7,0.6-1.7,1-2.7,1c-1.1,0-2.3-0.2-3.2-0.7c-0.7-0.3-1.5-0.2-2,0.4L65.7,27.9l4.3,1.2L79.7,19.3z"/>
		<path fill="#70625A" d="M77.5,8.2c1.5,0,2.7,1.4,2.7,3.2c0,0,0,0.1,0,0.1c0,0.1,0,0.1,0,0.2c0,0.4,0.1,0.9,0.4,1.2
			c0.3,0.3,0.7,0.4,1.1,0.4c0,0,0.1,0,0.1,0c0.1,0,0.1,0,0.2,0c0,0,0.1,0,0.1,0c1.7,0,3.1,1.2,3.1,2.7c0,1.5-1.4,2.7-3.1,2.7
			c-0.4,0-0.9-0.1-1.3-0.2c-0.2-0.1-0.4-0.1-0.6-0.1c-0.4,0-0.8,0.2-1.1,0.4L70,28l-4.4-4.5l9.2-9.3c0.4-0.4,0.5-1.1,0.3-1.6
			c-0.2-0.4-0.2-0.9-0.2-1.3C74.8,9.6,76,8.2,77.5,8.2 M77.5,6.7c-2.3,0-4.2,2.1-4.2,4.7c0,0.7,0.1,1.3,0.4,1.9L63.4,23.5l6.5,6.6
			l10.2-10.3c0.6,0.2,1.2,0.4,1.8,0.4c2.6,0,4.6-1.9,4.6-4.2c0-2.3-2.1-4.2-4.6-4.2c-0.2,0-0.3,0-0.5,0c0-0.2,0-0.3,0-0.5
			C81.6,8.8,79.8,6.7,77.5,6.7L77.5,6.7z"/>
	</g>
	<g>
		<path fill="#A87F1A" d="M73.2,25.3l-0.7-0.7l-4.5-4.5c-1.2-0.4-2.6-0.6-4.1-0.6c-5.1,0-11.1,2.4-14.5,5.9
			c-2.9,2.9-4.2,6.9-3.8,10.8c0.3,2.9,1.6,5.7,3.8,8c2.5,2.5,5.8,3.9,9.3,3.9c3.5,0,6.8-1.4,9.3-3.9C72.1,39.9,75.2,31.3,73.2,25.3z
			"/>
		<path fill="#D4A01E" d="M52.8,44c6.9,2.7,15.2-2.1,18.5-10.8c1.1-2.9,1.5-5.8,1.3-8.5l-4.5-4.5c-1.2-0.4-2.6-0.6-4.1-0.6
			c-5.1,0-11.1,2.4-14.5,5.9c-2.9,2.9-4.2,6.9-3.8,10.8C47,39.8,49.4,42.6,52.8,44z"/>
	</g>
	<path fill="#70625A" d="M64.1,20.3L64.1,20.3c1.3,0,2.6,0.2,3.7,0.5l4.9,5c1.8,5.7-1.2,13.9-5.1,17.8c-2.3,2.4-5.4,3.7-8.7,3.7
		s-6.4-1.3-8.7-3.7c-4.8-4.9-4.8-12.8,0-17.7C53.4,22.7,59.2,20.3,64.1,20.3 M64.1,18.8c-5.4,0-11.6,2.6-15,6.1
		c-5.4,5.5-5.4,14.3,0,19.8c2.7,2.7,6.3,4.1,9.8,4.1s7.1-1.4,9.8-4.1c4.5-4.5,7.5-13.6,5.3-19.7l-5.4-5.5
		C67.2,19,65.7,18.8,64.1,18.8L64.1,18.8z"/>
	<path fill-rule="evenodd" clip-rule="evenodd" fill="#FFE197" d="M58.8,24.7c0.6,0.8-0.6,2.6-2.7,4.1c-2.1,1.4-4.3,1.9-4.9,1.1
		c-0.6-0.8,0.6-2.6,2.7-4.1C56,24.4,58.2,23.9,58.8,24.7z"/>
</g>
</svg>
