<?xml version="1.0" encoding="utf-8"?>
<!-- Generator: Adobe Illustrator 18.1.0, SVG Export Plug-In . SVG Version: 6.00 Build 0)  -->
<svg version="1.1" id="Слой_1" xmlns="http://www.w3.org/2000/svg" xmlns:xlink="http://www.w3.org/1999/xlink" x="0px" y="0px"
	 viewBox="0 0 100 100" enable-background="new 0 0 100 100" xml:space="preserve">
<rect x="13" y="89" fill="#747474" width="56" height="5"/>
<g>
	<path fill="#B5C9CD" d="M60,13.6c0-0.1-0.1-0.2-0.1-0.3V7H52v8l5,18v48H43.2L44,49h-7v39h1v3.3h26c1.9,0,3.4-1.2,4-2.9V85h0.3V33.5
		L60,13.6z"/>
	<path fill="#E3FDFF" d="M37,88V49h7l-0.8,32H57V33l-5-19.2V7h7.9V0.8H38.1v12.6c0,0.1,0,0.2-0.1,0.3l-8.3,19.9V87
		c0,2.3,1.9,4.3,4.3,4.3h4V88H37z"/>
	<rect x="29.5" y="33.2" fill-rule="evenodd" clip-rule="evenodd" fill="#F9F1C4" width="28" height="48.5"/>
	<rect x="57.1" y="33.6" fill-rule="evenodd" clip-rule="evenodd" fill="#E4D9B2" width="11.6" height="48.3"/>
	<path fill-rule="evenodd" clip-rule="evenodd" fill="#FFFFFF" d="M35.5,37c1.4,0,2.5,1.1,2.5,2.5v13c0,1.4-1.1,2.5-2.5,2.5
		c-1.4,0-2.5-1.1-2.5-2.5v-13C33,38.1,34.1,37,35.5,37z"/>
	<path fill="#70625A" d="M32.4,34.6h-2.5c-0.4,0-0.7-0.3-0.7-0.7v-0.1c0-0.4,0.3-0.7,0.7-0.7h2.5c0.4,0,0.7,0.3,0.7,0.7v0.1
		C33.1,34.3,32.8,34.6,32.4,34.6z"/>
	<path fill-rule="evenodd" clip-rule="evenodd" fill="#B5C9CD" d="M41.2,18.9c0.5,0.2,0.8,0.8,0.6,1.3l-3.1,8.1
		c-0.2,0.5-0.8,0.8-1.3,0.6c-0.5-0.2-0.8-0.8-0.6-1.3l3.1-8.1C40.1,19,40.6,18.7,41.2,18.9z"/>
	<path fill="#70625A" d="M67.7,34.5h-29c-0.4,0-0.8-0.3-0.8-0.8v0c0-0.4,0.3-0.7,0.8-0.7h29c0.4,0,0.8,0.3,0.8,0.7v0
		C68.5,34.2,68.1,34.5,67.7,34.5z"/>
	<path fill="#70625A" d="M59.4,14.3H46.7c-0.4,0-0.7-0.3-0.7-0.7v0c0-0.4,0.3-0.7,0.7-0.7h12.7c0.4,0,0.7,0.3,0.7,0.7v0
		C60.1,14,59.8,14.3,59.4,14.3z"/>
	<path fill="#70625A" d="M40.2,14.3h-1.7c-0.4,0-0.7-0.3-0.7-0.7v0c0-0.4,0.3-0.7,0.7-0.7h1.7c0.4,0,0.7,0.3,0.7,0.7v0
		C40.9,14,40.6,14.3,40.2,14.3z"/>
	<polygon fill="#E4D9B2" points="43.3,81.9 44.8,49.1 36.9,49.1 36.9,82.1 	"/>
	<path fill="#70625A" d="M59.2,1.5V12c0,1.1,0.2,2.1,0.6,3.1L67,32.4c0.3,0.8,0.5,1.7,0.5,2.6v34v7.7v3.7c0,5.6-4.5,10.2-10.2,10.2
		H40.7c-5.6,0-10.2-4.5-10.2-10.2v-3.7V69V35c0-0.9,0.2-1.7,0.5-2.6l7.2-17.3c0.4-1,0.6-2.1,0.6-3.1V8.2c0-3.7,3-6.7,6.7-6.7H59.2
		 M60.7,0H44c-3.7,0-6.7,3-6.7,6.7V12c0,0.9-0.2,1.7-0.5,2.6l-7.3,17.5c-0.3,0.8-0.5,1.7-0.5,2.6V69v7.7v7.7c0,4.2,3.4,7.7,7.7,7.7
		h20.7C63.8,92,69,86.8,69,80.3v-3.7V69V34.7c0-0.9-0.2-1.7-0.5-2.6l-7.3-17.5c-0.3-0.8-0.5-1.7-0.5-2.6V0L60.7,0z"/>
	<g>
		<path fill="#ACA3B6" d="M52.4,1L38,0.8c-1.2,0-2.3,1-2.3,2.2v2c0,1.2,1,2.3,2.3,2.3L52.4,7V1z"/>
		<path fill="#8B8491" d="M62.3,5V3c0-0.9-0.5-1.6-1.2-2h-9.1v6H61C61.7,6.6,62.3,5.9,62.3,5z"/>
		<path fill="#70625A" d="M60,1.5c0.8,0,1.5,0.7,1.5,1.5v2c0,0.8-0.7,1.5-1.5,1.5H38c-0.8,0-1.5-0.7-1.5-1.5V3
			c0-0.8,0.7-1.5,1.5-1.5H60 M60,0H38c-1.7,0-3,1.3-3,3v2c0,1.7,1.3,3,3,3h22c1.7,0,3-1.3,3-3V3C63,1.3,61.7,0,60,0L60,0z"/>
	</g>
	<path fill="#70625A" d="M56.1,82.5h-29c-0.4,0-0.8-0.3-0.8-0.8l0,0c0-0.4,0.3-0.8,0.8-0.8h29c0.4,0,0.7,0.3,0.7,0.8l0,0
		C56.8,82.2,56.5,82.5,56.1,82.5z"/>
</g>
<polygon fill="#E3FDFF" points="32.9,45.8 12.8,45.8 13.3,58.2 32.7,58.2 "/>
<path fill="#F9F1C4" d="M23,76.2c3.5,0,6.7,0.8,9.3,2.2l0.4-20.2H13.3l0.9,20C16.7,76.9,19.7,76.2,23,76.2z"/>
<polygon fill="#B5C9CD" points="38,57 38.8,57 39.2,45.8 32.9,45.8 32.7,57 "/>
<path fill="#B5C9CD" d="M37.3,91.3H14.7L14.1,77c-1.2,0.6-2.2,1.3-3.1,2.1V92h26.5c0.2-0.3,0.3-0.6,0.5-0.9V74.6L37.3,91.3z"/>
<path fill="#E4D9B2" d="M32.7,58.2l-0.4,20.2c-2.6-1.4-5.8-2.2-9.3-2.2c-3.3,0-6.3,0.7-8.9,2l0.6,12.7h22.6L38,75.8V58.2H32.7z"/>
<path fill="#70625A" d="M38.4,46.5l-1.9,44H15.4l-1.9-44H38.4 M40,45H12l2,47h24L40,45L40,45z"/>
<path fill="#E3FDFF" d="M68,88.4c0.2-0.4,0.3-0.9,0.3-1.4v-2H68V88.4z"/>
<path fill-rule="evenodd" clip-rule="evenodd" fill="#B5C9CD" d="M17.8,49c0.6,0,1,0.4,1.1,0.9l0.2,4c0,0.6-0.4,1-0.9,1.1
	c-0.6,0-1-0.4-1.1-0.9l-0.2-4C16.9,49.5,17.3,49,17.8,49z"/>
<path fill-rule="evenodd" clip-rule="evenodd" fill="#FFFFFF" d="M19.1,61L19.1,61c1.4-0.1,2.5,1,2.6,2.4l0.6,15
	c0.1,1.4-1,2.5-2.4,2.6c-1.4,0.1-2.5-1-2.6-2.4l-0.6-15C16.6,62.2,17.7,61.1,19.1,61z"/>
<g>
	<ellipse fill="#747474" cx="71.5" cy="97.5" rx="26.5" ry="2.5"/>
	<path fill="#DB9500" d="M80.2,84c0.8,4,4.9,7,9.8,7c3.5,0,6.5-1.5,8.3-3.8L77.5,41.8h-14L52.4,68.6L80.2,84z"/>
	<path fill="#855A00" d="M80.3,98.2l0.7,0C91.1,98,99.2,94.3,99.2,90c0-0.3,0-0.5-0.1-0.8L99,88.6l-0.7-1.5C96.5,89.5,93.5,91,90,91
		c-4.9,0-9-3-9.8-7H67v14.2L80.3,98.2L80.3,98.2z"/>
	<path fill-rule="evenodd" clip-rule="evenodd" fill="#855A00" d="M86.4,70.7c0.5-0.2,1.1,0,1.3,0.5L94.1,86c0.2,0.5,0,1.1-0.5,1.3
		c-0.5,0.2-1.1,0-1.3-0.5L85.9,72C85.7,71.5,85.9,70.9,86.4,70.7z"/>
	<path fill="#70625A" d="M77,42.5l21.3,46.4l0.1,0.5c0.1,0.2,0.1,0.5,0.1,0.6c0,3.4-7,7.2-17.5,7.5l-0.6,0H64L53.2,68.6l10-26.1H77
		 M78,41H63L51.6,68.6L63,99h18v0c10.6-0.2,19-4.2,19-9c0-0.3,0-0.7-0.1-1L78,41L78,41z"/>
	<g>
		<path fill-rule="evenodd" clip-rule="evenodd" fill="#FFD013" d="M63,98.3c-10.4,0-19.2-3.8-19.2-8.3c0-0.2,0-0.5,0.1-0.8L63,43
			l19.2,46.3c0.1,0.3,0.1,0.5,0.1,0.8C82.3,94.5,73.4,98.3,63,98.3z"/>
		<path fill="#70625A" d="M63,44.9l18.4,44.5c0,0.2,0.1,0.4,0.1,0.5c0,3.5-7.6,7.5-18.5,7.5c-10.9,0-18.5-4-18.5-7.5
			c0-0.2,0-0.3,0.1-0.5L63,44.9 M63,41L43.1,89C43,89.3,43,89.7,43,90c0,5,9,9,20,9c11,0,20-4,20-9c0-0.3,0-0.7-0.1-1L63,41L63,41z"
			/>
	</g>
	<path fill="#DB9500" d="M63.5,65c-1.4,0-2.5-1.1-2.5-2.5s1.1-2.5,2.5-2.5c1.4,0,2.5,1.1,2.5,2.5S64.9,65,63.5,65z M54.5,90
		c-1.9,0-3.5-1.6-3.5-3.5c0-1.9,1.6-3.5,3.5-3.5c1.9,0,3.5,1.6,3.5,3.5C58,88.4,56.4,90,54.5,90z M61.5,80c-3,0-5.5-2.5-5.5-5.5
		s2.5-5.5,5.5-5.5c3,0,5.5,2.5,5.5,5.5S64.5,80,61.5,80z M69.5,92C67,92,65,90,65,87.5c0-2.5,2-4.5,4.5-4.5c2.5,0,4.5,2,4.5,4.5
		C74,90,72,92,69.5,92z"/>
</g>
<g>
	<ellipse fill="#747474" cx="16" cy="98" rx="16" ry="2"/>
	<path fill="#FFFFFF" d="M14.5,89.9c7.1-1.2,12.2-5.6,11.5-9.7c-0.1-0.6-0.4-1.2-0.7-1.8C22.8,76.9,19.5,76,16,76
		C8.2,76,1.7,80.4,0.9,86C2.7,89.2,8.3,90.9,14.5,89.9z"/>
	<path fill="#C9C9C9" d="M16,98.2c8.4,0,15.2-5,15.2-11.1c0-3.6-2.3-6.7-5.9-8.7c0.4,0.5,0.6,1.1,0.7,1.8c0.7,4.2-4.4,8.5-11.5,9.7
		C8.3,90.9,2.7,89.2,0.9,86c0,0.4-0.1,0.7-0.1,1.1C0.9,93.2,7.7,98.2,16,98.2z"/>
	<path fill="#70625A" d="M16,99c-8.8,0-16-5.3-16-11.9s7.2-11.9,16-11.9c8.8,0,16,5.3,16,11.9S24.8,99,16,99z M16,76.8
		c-7.9,0-14.4,4.6-14.4,10.3c0,5.7,6.4,10.3,14.4,10.3c7.9,0,14.4-4.6,14.4-10.3C30.4,81.4,24,76.8,16,76.8z"/>
</g>
<g>
	<path fill="#70625A" d="M16.6,94.1c-0.1,0-0.1,0-0.1,0c-0.4,0-0.7-0.4-0.7-0.8c0-0.4,0.3-0.8,0.8-0.7c0.1,0,6.5,0.1,8.5-4.6
		c0.2-0.4,0.6-0.6,1-0.4c0.4,0.2,0.5,0.6,0.4,1C24,93.9,17.5,94.1,16.6,94.1z"/>
</g>
<path fill="#70625A" d="M38.5,58.5H22.3c-0.4,0-0.8-0.3-0.8-0.8v0c0-0.4,0.3-0.8,0.8-0.8h16.2c0.4,0,0.8,0.3,0.8,0.8v0
	C39.3,58.2,38.9,58.5,38.5,58.5z"/>
<path fill="#70625A" d="M15.9,58.5h-2.3c-0.4,0-0.8-0.3-0.8-0.8v0c0-0.4,0.3-0.8,0.8-0.8h2.3c0.4,0,0.8,0.3,0.8,0.8v0
	C16.6,58.2,16.3,58.5,15.9,58.5z"/>
</svg>
