<?xml version="1.0" encoding="utf-8"?>
<!-- Generator: Adobe Illustrator 18.1.0, SVG Export Plug-In . SVG Version: 6.00 Build 0)  -->
<svg version="1.1" id="Слой_1" xmlns="http://www.w3.org/2000/svg" xmlns:xlink="http://www.w3.org/1999/xlink" x="0px" y="0px"
	 viewBox="0 0 100 100" enable-background="new 0 0 100 100" xml:space="preserve">
<g>
	<path fill-rule="evenodd" clip-rule="evenodd" fill="#747474" d="M90,72H48v-4h42c5.5,0,10,0.9,10,2C100,71.1,95.5,72,90,72z"/>
	<path fill="#FFD013" d="M78,21.7c0-2.6-1.9-4.8-4.3-5.4l-1.4-0.4V8.8H46.4V15c0,0.4-0.3,0.7-0.7,0.7c-2.2,0.1-4,2-4,4.2v46
		c0,2.3,1.9,4.3,4.3,4.3h32V64C78,64,78,21.8,78,21.7z"/>
	<path fill="#E4BC12" d="M96.3,66V20c0-2.2-1.8-4.1-4-4.2c-0.4,0-0.7-0.4-0.7-0.7V8.8H71.9v7.2l1.4,0.4c2.5,0.5,4.4,2.7,4.4,5.4
		c0,0.1,0,42.3,0,42.3v6.3h14.2C94.3,70.3,96.3,68.3,96.3,66z"/>
	<rect x="42" y="22" fill-rule="evenodd" clip-rule="evenodd" fill="#FEEFAA" width="54.5" height="38"/>
	<rect x="77.8" y="22" fill-rule="evenodd" clip-rule="evenodd" fill="#E7D69D" width="18.4" height="38"/>
	<path fill-rule="evenodd" clip-rule="evenodd" fill="#FFFFFF" d="M48.5,27h1c1.4,0,2.5,1.1,2.5,2.5v11c0,1.4-1.1,2.5-2.5,2.5h-1
		c-1.4,0-2.5-1.1-2.5-2.5v-11C46,28.1,47.1,27,48.5,27z"/>
	<path fill="#70625A" d="M90.8,9.5V15c0,0.8,0.6,1.4,1.4,1.5c1.8,0.1,3.3,1.6,3.3,3.5v46c0,1.9-1.6,3.5-3.5,3.5H46
		c-1.9,0-3.5-1.6-3.5-3.5V20c0-1.8,1.4-3.4,3.3-3.5c0.8,0,1.4-0.7,1.4-1.5V9.5H90.8 M92.3,8H45.7v7c-2.6,0.2-4.7,2.3-4.7,5v46
		c0,2.8,2.2,5,5,5h46c2.8,0,5-2.2,5-5V20c0-2.6-2.1-4.8-4.7-5V8L92.3,8z"/>
	<path fill="#70625A" d="M91.7,16.5H57.2c-0.5,0-0.8-0.4-0.8-0.8v-0.1c0-0.5,0.4-0.8,0.8-0.8h34.4c0.5,0,0.8,0.4,0.8,0.8v0.1
		C92.5,16.1,92.1,16.5,91.7,16.5z"/>
	<path fill="#70625A" d="M49.3,16.5l-3.1,0c-0.5,0-0.9-0.4-0.9-0.9v0c0-0.5,0.4-0.9,0.9-0.9l3.1,0c0.5,0,0.9,0.4,0.9,0.9v0
		C50.2,16.1,49.8,16.5,49.3,16.5z"/>
	<path fill="#70625A" d="M95.7,23.6H53c-0.5,0-0.9-0.4-0.9-0.9v0c0-0.5,0.4-0.9,0.9-0.9h42.7c0.5,0,0.9,0.4,0.9,0.9v0
		C96.6,23.2,96.2,23.6,95.7,23.6z"/>
	<path fill="#70625A" d="M45.2,23.6h-2.8c-0.5,0-0.9-0.4-0.9-0.9v0c0-0.5,0.4-0.9,0.9-0.9h2.8c0.5,0,0.9,0.4,0.9,0.9v0
		C46.1,23.2,45.7,23.6,45.2,23.6z"/>
	<g>
		<path fill="#ACA3B6" d="M45,0.8c-1.2,0-2.3,1-2.3,2.2v4c0,1.2,1,2.3,2.3,2.3h29V0.8H45z"/>
		<path fill="#8B8491" d="M95.3,7V3c0-1.2-1-2.2-2.3-2.2H73.7v8.5H93C94.2,9.2,95.3,8.2,95.3,7z"/>
		<path fill="#70625A" d="M93,1.5c0.8,0,1.5,0.7,1.5,1.5v4c0,0.8-0.7,1.5-1.5,1.5H45c-0.8,0-1.5-0.7-1.5-1.5V3
			c0-0.8,0.7-1.5,1.5-1.5H93 M93,0H45c-1.7,0-3,1.3-3,3v4c0,1.7,1.3,3,3,3h48c1.7,0,3-1.3,3-3V3C96,1.3,94.7,0,93,0L93,0z"/>
	</g>
	<path fill="#70625A" d="M96.1,60.9H61.7c-0.5,0-0.8-0.4-0.8-0.8V60c0-0.5,0.4-0.8,0.8-0.8h34.4c0.5,0,0.8,0.4,0.8,0.8V60
		C96.9,60.5,96.6,60.9,96.1,60.9z"/>
</g>
<g>
	<path fill-rule="evenodd" clip-rule="evenodd" fill="#747474" d="M0,79.1c0-0.8,1.8-1.5,4-1.5v-1h24v4H4C1.8,80.6,0,80,0,79.1z"/>
	<path fill="#A36D31" d="M18.8,40.7c-0.7,1.5-1.5,2.9-2.6,4.2L9,50.4c-1.4,0.6-2.9,1-4.4,1.2L1.1,78.3h74.5l4.9-37.5H18.8z"/>
	<g>
		<path fill="#E5AB6C" d="M14.3,46.6h8.1l0.3-2h-6.5C15.6,45.3,15,46,14.3,46.6z"/>
		<path fill="#E5AB6C" d="M10.4,57.6l1.2-8.9c-0.8,0.5-1.7,1-2.6,1.3l-1,7.5H10.4z"/>
		<path fill="#B98442" d="M11.6,48.7l-1.2,8.9H21l1.4-11h-8.1C13.5,47.4,12.5,48.1,11.6,48.7z"/>
		<polygon fill="#B98442" points="8,57.6 10.4,57.6 21,57.6 22.4,46.6 22.7,44.6 		"/>
	</g>
	<g>
		<path fill="#70625A" d="M79.7,41.5l-4.7,36H2l3.3-25.2c5.9-1,11.3-5.2,14-10.8H79.7 M81.4,40H18.3c-2.4,5.9-8.1,10.3-14.4,10.9
			L0.3,79h76L81.4,40L81.4,40z"/>
	</g>
	<g>
		<polygon fill="#E5AB6C" points="39.7,46.6 39.9,44.6 26.9,44.6 25.2,57.6 27.6,57.6 29.1,46.6 		"/>
		<polygon fill="#B98442" points="29.1,46.6 27.6,57.6 38.2,57.6 39.7,46.6 		"/>
	</g>
	<polygon fill="#E5AB6C" points="20.3,63.3 20.5,61.3 7.5,61.3 5.8,74.3 8.2,74.3 9.7,63.3 	"/>
	<polygon fill="#B98442" points="9.7,63.3 8.2,74.3 18.8,74.3 20.3,63.3 	"/>
	<polygon fill="#B98442" points="5.8,74.3 8.2,74.3 18.8,74.3 20.3,63.3 20.5,61.3 	"/>
	<g>
		<g>
			<polygon fill-rule="evenodd" clip-rule="evenodd" fill="#BF6664" points="63.1,78.3 63.1,40.7 81,40.7 84.5,44.3 80.7,78.3 			
				"/>
			<path fill="#70625A" d="M80.7,41.5l3,3l-3.8,33H63.8v-36H80.7 M81.3,40h-19v39h19l4-35L81.3,40L81.3,40z"/>
		</g>
		<g>
			<polygon fill-rule="evenodd" clip-rule="evenodd" fill="#F17E7B" points="18.4,78.3 34.9,40.7 80.5,40.7 75.6,78.3 			"/>
			<path fill="#70625A" d="M79.7,41.5l-4.7,36H19.6l15.8-36H79.7 M81.4,40h-47L17.3,79h59L81.4,40L81.4,40z"/>
		</g>
		<ellipse transform="matrix(0.6592 0.752 -0.752 0.6592 80.4133 -17.9811)" fill="#BF6664" cx="60" cy="79.7" rx="6" ry="15.4"/>
		<rect x="18.4" y="75.1" fill="#BF6664" width="59" height="2.9"/>
		<polygon fill="#BF6664" points="20,78 17.3,78 40,38 49,55 		"/>
		<path fill="#FFF2EC" d="M52,47h-4c-0.6,0-1-0.4-1-1c0-0.6,0.4-1,1-1h4c0.6,0,1,0.4,1,1C53,46.6,52.6,47,52,47z M74,47H58
			c-0.6,0-1-0.4-1-1c0-0.6,0.4-1,1-1h16c0.6,0,1,0.4,1,1C75,46.6,74.6,47,74,47z"/>
		<g>
			<path fill-rule="evenodd" clip-rule="evenodd" fill="#FFF2EC" d="M33.7,39.3c0.3-0.8,1.4-1.5,3.3-1.5c1.8,0,2.9,0.5,3.3,1.5
				l6.4,13.5L18.1,76.5L33.7,39.3z"/>
			<path fill="#70625A" d="M37,38.5c0.8,0,2.3,0.1,2.6,1c0,0,0,0.1,0,0.1l6.2,12.9L20,74l14.4-34.4c0,0,0-0.1,0-0.1
				C34.5,39.1,35.4,38.5,37,38.5 M37,37c-2.2,0-3.6,0.9-4,2L16.3,79l31.4-26L41,39C40.5,37.8,39.2,37,37,37L37,37z"/>
		</g>
	</g>
	<path fill="#70625A" d="M30.7,79.1H12.8c-0.3,0-0.6-0.3-0.6-0.6v-0.4c0-0.3,0.3-0.6,0.6-0.6h17.9c0.3,0,0.6,0.3,0.6,0.6v0.4
		C31.3,78.8,31,79.1,30.7,79.1z"/>
</g>
<g>
	<g>
		<path fill-rule="evenodd" clip-rule="evenodd" fill="#747474" d="M69,92v-4h24v0.1c4,0.3,7,1,7,1.9c0,0.9-3,1.6-7,1.9L88.3,92H69z
			"/>
		<path fill="#FEBD4B" d="M56.7,84.4c2.9,0.5,6.5,1.4,9.7,1.8c14,1.4,26.8-0.1,31.7-3c-4-3.5-15.7-7.1-28.5-8.4
			c-0.6-0.1-1.2-0.1-1.8-0.2C65.6,78.1,61.3,81.7,56.7,84.4z"/>
		<path fill="#CE9841" d="M37,79.4c-0.1,0.5,0.1,1.1,0.6,1.7c2.9,3.8,15.2,7.7,29.2,9.1c3.9,0.4,7.7,0.6,11.4,0.6
			c13.3,0,20.7-2.6,21.1-5.2c0.1-0.5-0.1-1.1-0.6-1.7c-0.2-0.3-0.6-0.6-0.9-0.9c-4.8,2.9-17.1,4.1-31.1,2.7
			c-3.2-0.3-6.3-0.8-9.2-1.3c4.6-2.8,8.2-6.2,10.2-9.7c-3.3-0.3-6.5-0.4-9.6-0.4C44.8,74.2,37.4,76.8,37,79.4z"/>
		
			<ellipse transform="matrix(0.9441 0.3297 -0.3297 0.9441 30.1788 -16.5758)" fill="#B98442" cx="64" cy="80.7" rx="3.4" ry="1.7"/>
		<path fill="#B98442" d="M82.3,82.8c-1.9-0.4-3.4-1.3-3.3-2c0.1-0.7,1.8-1,3.7-0.6c1.9,0.4,3.4,1.3,3.3,2
			C85.9,82.9,84.2,83.2,82.3,82.8z"/>
		<path fill="#70625A" d="M58.1,74.9c3.6,0,7.4,0.2,11.3,0.6c15.6,1.6,26.3,5.6,28.7,8.8c0.3,0.4,0.5,0.8,0.4,1.1
			c-0.3,1.9-6.9,4.6-20.4,4.6c-3.6,0-7.4-0.2-11.3-0.6c-15.6-1.6-26.3-5.6-28.7-8.8c-0.3-0.4-0.5-0.8-0.4-1.1
			C38,77.6,44.6,74.9,58.1,74.9 M58.1,73.4c-12.2,0-21.3,2.2-21.9,5.8c-0.8,4.7,12.8,9.9,30.4,11.7c4,0.4,7.9,0.6,11.5,0.6
			c12.2,0,21.3-2.2,21.9-5.8c0.8-4.7-12.8-9.9-30.4-11.7C65.5,73.6,61.7,73.4,58.1,73.4L58.1,73.4z"/>
	</g>
	<g>
		<path fill-rule="evenodd" clip-rule="evenodd" fill="#FEBD4B" d="M27,91.3c-2.1,0-4.7-0.4-5.8-2.2c-2.3-4,5-14,19.5-22.4
			c8.6-5,17.3-8,23.3-8c2.1,0,4.7,0.4,5.8,2.2c2.3,4-5,14-19.5,22.4C41.7,88.3,33,91.3,27,91.3z"/>
		<path fill="#B98442" d="M58.4,65.2c-1.9,0.4-3.6,0-3.8-0.9c-0.2-0.9,1.2-2,3-2.5c1.9-0.4,3.6,0,3.8,0.9
			C61.6,63.7,60.3,64.8,58.4,65.2z"/>
		
			<ellipse transform="matrix(0.6529 0.7575 -0.7575 0.6529 71.1062 4.2214)" fill="#B98442" cx="30.9" cy="79.7" rx="1.7" ry="3.4"/>
		<ellipse transform="matrix(0.3066 0.9518 -0.9518 0.3066 102.0098 7.3643)" fill="#B98442" cx="46" cy="73.7" rx="1.7" ry="3.4"/>
		<path fill-rule="evenodd" clip-rule="evenodd" fill="#CE9841" d="M50.5,83.7c-13.6,7.8-27,10.2-29.8,5.4c-0.3-0.6-0.5-1.2-0.5-1.9
			c5.5,1.2,15.7-1.6,26.1-7.6c12.1-6.9,20.3-15.7,20.1-21c1.7,0.4,3,1.1,3.6,2.2C72.9,65.7,64.2,76,50.5,83.7z"/>
		<path fill="#70625A" d="M64,58v1.5c2.6,0,4.5,0.6,5.1,1.8c2.1,3.6-5.3,13.3-19.3,21.4c-8.4,4.8-17.2,7.9-22.9,7.9
			c-2.6,0-4.5-0.6-5.1-1.8c-2.1-3.6,5.3-13.3,19.3-21.4c8.4-4.8,17.2-7.9,22.9-7.9L64,58 M64,58c-5.9,0-14.7,2.9-23.7,8.1
			c-13.8,8-22.7,18.5-19.8,23.4c1,1.7,3.3,2.6,6.4,2.6c5.9,0,14.7-2.9,23.7-8.1c13.8-8,22.7-18.5,19.8-23.4C69.5,58.8,67.2,58,64,58
			L64,58z"/>
	</g>
	<g>
		<path fill-rule="evenodd" clip-rule="evenodd" fill="#747474" d="M88,98c0,1.1-4.5,2-10,2H36c-5.5,0-10-0.9-10-2c0-1.1,4.5-2,10-2
			h42C83.5,96,88,96.9,88,98z"/>
		<path fill="#FEBD4B" d="M86.4,92.1c-2.5-4.1-11-7.9-29.2-7.9c-18.4,0-27.1,3.9-29.6,7.9c4.9,1.6,16.2,3,29.4,3
			C70.2,95.1,81.5,93.7,86.4,92.1z"/>
		<path fill="#CE9841" d="M57,98.2c18.4,0,29.6-2.1,30.2-3.4c0-0.9-0.3-1.8-0.8-2.7c-4.9,1.6-16.2,2.7-29.4,2.7
			c-13.2,0-24.5-1-29.4-2.7c-0.5,0.9-0.8,1.8-0.8,2.6C27.5,96.1,38.6,98.2,57,98.2z"/>
		<path fill="#70625A" d="M57.2,84.9c26.4,0,29,7.6,29.3,9.5c-1.9,1.3-12.8,3-29.4,3c-16.7,0-27.5-1.7-29.4-3
			C27.8,92.5,30.5,84.9,57.2,84.9 M57.2,83.4c-26,0-31.1,7.3-31.1,11.3c0,2.3,13.9,4.2,30.9,4.2c17.1,0,30.9-1.9,30.9-4.2
			C87.9,90.8,82.8,83.4,57.2,83.4L57.2,83.4z"/>
		<path fill="#B98442" d="M67.7,90.9c-1.7-0.3-2.9-1.1-2.7-1.9c0.2-0.8,1.6-1.2,3.3-0.9c1.7,0.3,2.9,1.1,2.7,1.9
			C70.8,90.8,69.4,91.2,67.7,90.9z"/>
		<path fill="#B98442" d="M42.7,91.9c-1.9,0.2-3.6-0.3-3.7-1.1c-0.1-0.8,1.3-1.6,3.2-1.8c1.9-0.2,3.6,0.3,3.7,1.1
			C46.1,90.9,44.7,91.7,42.7,91.9z"/>
	</g>
</g>
</svg>
