<?xml version="1.0" encoding="utf-8"?>
<!-- Generator: Adobe Illustrator 22.0.1, SVG Export Plug-In . SVG Version: 6.00 Build 0)  -->
<svg version="1.1" id="Слой_1" xmlns="http://www.w3.org/2000/svg" xmlns:xlink="http://www.w3.org/1999/xlink" x="0px" y="0px"
	 viewBox="0 0 1600 402" style="enable-background:new 0 0 1600 402;" xml:space="preserve">
<style type="text/css">
	.st0{display:none;fill:#DB6E31;}
	.st1{fill:#FF7A2C;}
	.st2{fill:#7DBF29;}
	.st3{fill:#FFFFFF;}
</style>
<path class="st0" d="M122.6,294.3c-0.3-0.3-0.6-12.5-0.6-27v-26.4l-3.1-4.5c-6.5-9.5-7.5-16.5-3.6-27.5l2.2-6.4l0.3,11.3
	c0.1,6.1,0.7,11.2,1.1,11.2c0.9,0,2.4-8.1,3.6-19.3c0.4-3.2,0.8-5.7,1.1-5.5c0.2,0.2,1,5.5,1.8,11.6c0.8,6.2,1.9,11.8,2.3,12.5
	c0.4,0.6,1-4,1.3-10.3l0.5-11.5l2.3,6.4c3.8,11,2.3,19.8-4.8,28.8c-1.9,2.4-2,4.1-2,29.4C125,291.4,124.6,296.2,122.6,294.3z"/>
<path class="st0" d="M140.2,290.7c-4.6-4.8-6.5-16.5-4.2-24.7c0.5-1.9,2.6-5.9,4.7-8.8l3.6-5.3l-0.6-24.7
	c-0.6-24.1-0.1-29.8,2.3-26.2c0.5,0.9,0.7,11.1,0.3,26.3l-0.6,24.7l3.2,4.5c4.6,6.4,6.1,10.7,6.1,17.2c0,7.5-1.4,12.5-4.6,16.3
	C147.2,293.7,143.3,294,140.2,290.7z"/>
<path class="st1" d="M289,179.1c-11.7-3.7-18.6-8.8-25.4-18.6c-8.6-12.1-11-20-10.9-35c0-9.2,0.5-12.1,2.5-17.7
	c3.7-9.8,8.5-17.2,15.1-23.4c10-9.3,20.9-13.4,35.2-13.5c10.3,0,17.5,1.4,25.1,5c7,3.3,18.3,13.4,22.1,19.8
	c3.6,6.2,6.9,16.7,7.7,24.6l0.7,6.7H314c-44.7,0-47,0.1-47,1.8c0,4.8,2.4,14.2,4.8,18.6c3,5.5,11,13.9,15.5,16.2
	c9.1,4.8,20.8,5.6,31.7,2.4c9.7-2.9,16.9-8.6,23.1-18.1c1.7-2.7,3.3-4.9,3.5-4.9c0.6,0,9.9,5.1,10.7,5.9c2.3,2.3-8.3,16.6-16.8,22.7
	c-10.1,7.2-18.1,9.4-32.8,9.3C298.1,180.8,292.9,180.3,289,179.1z M344.4,112.8c-4.7-15.2-14.9-24.7-29.9-27.8
	c-11.4-2.4-23,0.3-31.8,7.2c-5.6,4.4-7.1,6.2-10.7,13.4c-5.1,10.3-8.3,9.4,35.1,9.4h38L344.4,112.8z"/>
<path class="st1" d="M385,126V73h7h7v46.5V166h28.5H456v-46.5V73h7.5h7.5v46.5V166h28h28v-46.5V73h7.5h7.5v53v53h-78.5H385V126z"/>
<path class="st1" d="M571,126V73h7h7v21v21h10.3c12.5,0,25.3,1.5,30.2,3.6c5.8,2.4,12.9,10.1,15.3,16.7c4.8,12.6,1.8,26.1-7.5,34.8
	c-7.9,7.3-14.9,8.8-41.5,8.9H571V126z M617.1,163.7c10.7-4.8,13.7-17.3,6.7-27.7c-4.1-6-8.5-7.5-24-7.8l-13.8-0.4V147v19.2l13.8-0.4
	C609.4,165.4,614.6,164.8,617.1,163.7z"/>
<path class="st2" d="M533,308v-72h7h7v9.2v9.3l4.6-4.8c10.2-10.7,21.7-15.7,36.3-15.7c16.1,0,26.7,4.4,38.2,15.9
	c15,15,19.8,33.5,14.3,54.7c-2.4,9.4-6.4,16.2-14,24c-7.7,8-16.8,13.1-27.2,15.3c-16,3.4-34.4-1.8-46.2-13c-2.9-2.7-5.4-4.9-5.6-4.9
	s-0.4,12.2-0.4,27v27h-7h-7L533,308L533,308z M600.7,328.8c5.2-1.7,8-3.5,12.9-8.1c10.8-10,15-20.3,14.1-34.3
	c-0.9-14.9-9.9-28.4-23.4-35.1c-5.3-2.6-6.7-2.8-17.3-2.8c-10.7,0-11.9,0.2-17.5,2.9c-7.4,3.7-16,12.3-19.2,19.4
	c-7.4,16-4.2,36.4,7.5,48.1C569.1,330.2,585.2,333.9,600.7,328.8z"/>
<path class="st2" d="M275,343v-12.9l6.1-0.3l6.1-0.3l6.5-15c3.5-8.2,7-16.3,7.7-18c3.3-7.3,5.6-12.4,8.1-18.5
	c1.5-3.6,3.7-8.7,4.9-11.5c1.2-2.7,4.7-10.7,7.7-17.7l5.4-12.8h3.8c3.1,0,3.9,0.4,4.7,2.6c1,2.6,12.2,28.2,16.6,38.2
	c1.3,2.9,2.4,5.5,2.4,5.8s0.9,2.6,2.1,5.2s2.7,6.1,3.5,7.7c0.7,1.7,3.8,8.9,6.9,16c3.1,7.2,6.1,14.2,6.8,15.8
	c1.1,2.5,1.6,2.7,7.4,2.7h6.3v13v13h-7h-7v-7v-7h-43h-43v7v7h-6.5H275V343z M356.5,321.8c-3-7.8-4.5-11.5-6.6-16.3
	c-0.5-1.1-4.7-11.7-9.5-23.5c-4.7-11.8-8.8-21.7-9-21.9c-0.3-0.4-2.6,4.4-6.9,14.4c-3.7,8.7-6.8,16-10.5,25
	c-2.3,5.5-5.1,11.9-6.1,14.2c-1,2.3-1.9,4.4-1.9,4.8s-3.5,8.3-4.7,10.8c-0.2,0.4,12.8,0.7,29,0.7h29.5L356.5,321.8z"/>
<path class="st2" d="M441,343.4c-18.3-4-32-17.2-38.7-37.4c-2.5-7.6-2.5-25.4,0-33c3.3-9.8,6.8-15.9,13.3-22.9
	C425.9,239,438,234,454.1,234c16.5,0,26.9,4.2,38,15c9.6,9.4,14.4,19.9,16.4,35.8l0.7,5.2H462h-47.3l0.6,6
	c1.1,12.4,11.4,27.2,22.4,32.2c7.1,3.2,24.4,3.2,32.6,0c6.2-2.5,16.9-12,20.3-17.9c1-1.8,2.5-3.3,3.2-3.3c1.7,0,11.2,5,11.2,5.9
	c0,0.3-1.3,2.9-2.9,5.7c-3.9,6.7-12.6,15.4-19.4,19.3C471.4,344.4,455.2,346.5,441,343.4z M492.7,276.8c-0.3-0.7-1.3-3.3-2.2-5.8
	c-7.9-20.1-33-29.6-52.9-20c-3.4,1.6-7.5,4.2-9.2,5.7c-3.7,3.4-8.8,11.4-10.8,17.1l-1.5,4.2h38.6C485.1,278,493.1,277.7,492.7,276.8
	z"/>
<path class="st2" d="M703.9,343.6c-7.3-1.6-17.6-6.5-22.2-10.5c-6.1-5.4-12.4-14.7-15.8-23.4c-2.9-7.5-3.2-9.2-3.3-19.7
	c0-12.7,1.2-17.8,6.8-28.5c3.9-7.5,14.5-18.4,21.2-21.8c15-7.6,36.8-7.6,51.7-0.1c6.2,3.2,18.6,15.2,21.5,21c3.1,6,6,16.1,6.7,23.2
	l0.6,6.2H724c-53.5,0-47.9-1.2-45.9,9.5c2.2,11.8,9.8,22,20.8,27.9c10.2,5.5,27.4,4.6,38.8-2c5.1-3,11.7-9.6,14.5-14.6
	c1.2-2.1,2.8-3.8,3.5-3.8c1.8,0,11.3,4.8,11.3,5.8c0,2.2-7.1,12.5-11.9,17.2C742.5,342.4,722.6,347.7,703.9,343.6z M754.4,275.8
	c-0.3-1.3-1.8-4.7-3.2-7.7c-8.2-17.7-32-25.9-50.8-17.6c-6.9,3-15,11.2-18.7,18.7c-4.6,9.6-7.8,8.8,35.4,8.8h38L754.4,275.8z"/>
<path class="st2" d="M923.1,343.5c-22.8-5-39.2-24.9-40.8-49.4c-1.6-24,8.9-43.8,29-55c10-5.6,30.8-6.6,43.6-2.2
	c11.1,3.9,19.5,10.5,26.2,20.7c5.1,7.9,8,16.1,8.6,25.1l0.6,7.3h-47.1h-47l0.5,4.3c1.4,11.5,5.4,19.7,13.2,27s12.6,9.1,25.1,9.1
	c8.1,0.1,11.6-0.3,15.5-1.8c8.9-3.5,15.5-8.9,20.7-16.8c1.6-2.7,3.7-4.8,4.4-4.8c1.4,0,7.1,2.7,10.3,4.9c2,1.3-5.3,12.4-12.9,19.4
	C960.5,342.9,941.7,347.5,923.1,343.5z M973.5,275.3c-2.6-10.7-10.2-19.4-21.3-24.6c-6-2.8-7.7-3.1-16.2-3.2c-8.9,0-10,0.2-16.5,3.4
	c-10.4,5.1-17.4,13.4-20.5,24l-0.9,3.1h38.1h38L973.5,275.3z"/>
<path class="st2" d="M1171,343.4c-25.7-5.6-44.1-28.1-44-53.7c0.2-25.4,17.4-47.3,42.5-53.8c14.2-3.7,32.7-1.8,45.5,4.6
	c6.8,3.4,14.4,9.9,17.6,14.9l1.8,2.9l-2.9,2.3c-1.7,1.3-4.2,2.9-5.7,3.5c-2.7,1.1-3.1,0.8-7.8-3.9c-14.8-15-40.8-17.4-58.3-5.3
	c-11.3,7.7-17.7,19.9-17.7,33.7c0,12.8,4.2,22.6,13.1,30.8c9.1,8.4,17.4,11.5,31,11.6c12.8,0,22.1-3.6,31.6-12.4l5.9-5.4l5.2,3.1
	c2.9,1.8,5.2,3.8,5.2,4.6c0,0.9-2.9,4.4-6.5,7.9C1213.7,342.2,1191.7,347.9,1171,343.4z"/>
<path class="st2" d="M1393.2,343c-17-4.5-30.4-16.9-37.2-34.5c-2-5-2.4-7.9-2.4-18c-0.1-13.5,1-18.8,6-27.9
	c5.6-10.5,15-19.4,25.4-24.3c5.1-2.5,15-4.3,23-4.3c17.4,0,31,6.4,42,19.7c13.8,16.5,16.3,41.9,6.2,62.2c-4,8.3-15.4,19.3-23.7,23.2
	C1419.7,345.1,1406.4,346.4,1393.2,343z M1425.1,327.2c21.5-10.3,29.6-39.2,16.6-59.5c-10.6-16.5-29.4-23.7-46-17.7
	c-15.3,5.6-24.7,17-27.7,33.6c-3.6,20.1,10,41.5,29.4,46.5c1.7,0.4,7.2,0.7,12.1,0.5C1417.2,330.4,1419.4,329.9,1425.1,327.2z"/>
<path class="st2" d="M1523.1,343.5c-17.5-3.9-31.1-16.2-37.8-34.5c-2.5-6.6-2.8-8.9-2.8-19.5c0-7.3,0.5-13.6,1.3-16
	c9-27,28-40.5,55-39.3c11.5,0.6,19.9,3.2,28.2,8.8c13.5,9.1,23,26.4,23,41.8v5.2h-46.9h-46.9l0.5,4.3c1.7,14.5,10.4,27.7,22.1,33.4
	c5.1,2.5,6.8,2.7,16.2,2.8c16.5,0,25.7-4.5,35-17.2c2.5-3.4,5.1-6.2,5.9-6.2c1.6-0.1,11.1,4.9,11.1,5.9c0,1.3-6.6,10.9-10.2,14.9
	C1563.9,342,1543.6,347.9,1523.1,343.5z M1574,276.4c0-0.9-1.3-4.4-3-7.9c-3.7-7.7-10-13.6-18.8-17.8c-5.9-2.7-7.7-3.1-15.7-3.2
	c-9.9,0-14.3,1.3-22.8,6.7c-6.2,4-12.2,12.5-14.7,21.1l-0.9,2.7h38C1570.2,278,1574,277.8,1574,276.4z"/>
<path class="st2" d="M795,289v-53.3l20.3,0.6c22.7,0.6,28.8,2,34.7,8c5.7,5.7,7.4,10.3,7.4,19.2c0,10.2-1.7,13.7-9.9,20.1
	c-1.4,1.1-1.6,1.7-0.7,2.1c4.4,1.8,11.1,7.5,13.7,11.7c2.8,4.6,3,5.6,3,15c0,8.5-0.4,10.8-2.2,14.2c-3,5.6-8,9.8-15,12.5
	c-5.2,2-8,2.3-28.5,2.7l-22.8,0.4V289z M839.5,327.5c7.7-3.8,10.9-14.9,6.6-23.3c-4.1-8-9.6-10.2-25.7-10.2H809v18.1v18.1l13.3-0.4
	C832.8,329.5,836.3,329,839.5,327.5z M835.7,278.5c8.9-5.3,9.7-18.2,1.4-26c-3.1-2.8-3.4-2.9-15.6-3.3l-12.5-0.4V265v16.2l11.8-0.4
	C829.9,280.5,833.2,280,835.7,278.5z"/>
<path class="st2" d="M1015,289v-53h7h7v21v21h30h30v-21v-21h7h7v53v53h-7h-7v-25.5V291h-30h-30v25.5V342h-7h-7V289z"/>
<path class="st2" d="M1260,289v-53h7h7v21.5c0,12.4,0.4,21.5,0.9,21.5s1.1-0.3,1.3-0.8c0.2-0.4,10.5-10.1,23.1-21.5L1322,236h9.5
	c5.2,0,9.5,0.2,9.5,0.3c0,0.8-3.8,4.5-13,12.7c-5.2,4.7-10,8.9-10.6,9.5c-20.7,18.7-28.4,25.9-28.4,26.4c0,0.3,12.7,13.3,28.2,28.8
	l28.3,28.3h-10h-10l-24-24c-22.5-22.5-24-23.8-25.7-22.3c-1.6,1.5-1.8,3.7-1.8,24V342h-7h-7V289z"/>
<circle class="st3" cx="132.7" cy="245.9" r="79.5"/>
<path class="st2" d="M264.1,237.4L216,175.8v-37.6c0-4.5-3.6-8.1-8.1-8.1s-8.1,3.6-8.1,8.1V155l-62.7-80.3c-2.2-2.9-6.6-2.9-8.8,0
	L1.3,237.4c-2.9,3.7-0.2,9,4.4,9h19c0,0.1,0,0.1,0,0.2c0,59.6,48.3,108,108,108s108-48.3,108-108c0-0.1,0-0.1,0-0.2h19
	C264.4,246.4,267,241.1,264.1,237.4z M132.7,325.4c-43.9,0-79.5-35.6-79.5-79.5c0-43.9,35.6-79.5,79.5-79.5s79.5,35.6,79.5,79.5
	C212.2,289.8,176.6,325.4,132.7,325.4z"/>
<g>
	<path class="st1" d="M119.3,300.8c-0.9-0.9-0.9-1.2-0.6-29.6c0.2-15.8,0.2-29.7,0-30.8c-0.2-1.5-1-3.1-3-5.9
		c-8.9-12.3-9.9-20.7-4.1-35.3c0.9-2.2,1.9-4.4,2.2-4.7c0.6-0.6,0.6-0.2,0.5,2.9c-0.8,11.8-0.6,22.1,0.4,23.1
		c1.2,1.2,2.4-4.3,4.1-18.8c1.8-14.9,1.7-15,4.7,7.8c1,7.3,1.8,10.6,2.5,10.9c1.3,0.5,1.8-6.9,1.1-17.6c-0.3-4.7-0.4-8.6-0.3-8.7
		c0.4-0.4,3.3,6.5,4.6,10.7c1,3.3,1.2,4.7,1.2,9.7c0,5.6,0,6-1.4,9.4c-1.3,3.2-4.2,8-7.6,12.6l-1.3,1.8v17.4c0,9.6,0,23.3,0.1,30.6
		c0.1,8.4,0,13.5-0.3,14C121.4,301.7,120.3,301.9,119.3,300.8z"/>
	<path class="st1" d="M142.6,298.9c-5-2.7-8.5-10.2-9.1-20c-0.5-7.7,1.7-14.2,7.5-22.1l2.8-3.8l-0.2-29.6c-0.1-21.7,0-29.9,0.3-30.6
		c0.3-0.7,0.9-1,1.6-1c2,0,2.1,1.5,1.7,21.6c-0.2,10.2-0.3,23.2-0.3,28.9l0.1,10.5l1.6,2.2c7.6,10.6,9.7,16.9,8.6,26
		c-1.3,10.8-5.7,18.2-11.2,18.6C144.6,299.5,143.5,299.4,142.6,298.9z"/>
</g>
<path class="st1" d="M204.9,118.2c-2.6-1.9-6-5.4-7.4-7.5c-0.7-1.1-1.6-3-1.9-4.3c-0.5-2.1-0.5-2.6,0-4.6c1.1-4.1,4.6-7.8,12.3-12.7
	c8.4-5.3,12.5-10,12.5-14.2c0-5.4-7.7-12-15.1-13.1c-1.5-0.2-4.8-0.6-7.3-0.8s-5.4-0.7-6.5-1.1c-2.3-0.8-5.7-3.7-6.7-5.7
	c-0.7-1.4-0.9-5.8-0.3-7.3c0.4-1.1,3.9-4.6,4.6-4.6c0.3,0,0.5-0.2,0.6-0.4c0.2-0.4,6.4-3.4,7.9-3.8c0.7-0.2,1.4-0.4,1.6-0.5
	c0.2-0.2,2.1-0.9,4.3-1.5c2.1-0.7,4.4-1.5,5.1-1.8c0.7-0.3,1.3-0.5,1.4-0.5c0.1,0,1.8-1,3.6-2.2c3.9-2.5,6-4.6,7.3-7.3
	c1.9-3.7,1.1-7-2.6-10.8c-1.8-1.8-6.5-5.1-8.3-5.8c-0.2-0.1-0.9-0.4-1.6-0.7c-4-1.8-11.6-3.6-17.7-4.2c-4.7-0.5-6.1-0.5-11.6,0
	c-5.6,0.5-7.4,0.8-12,1.8c-0.9,0.2-3.3,0.7-5.4,1.2c-2.1,0.5-4.5,1-5.3,1.2c-0.7,0.2-2.8,0.7-4.5,1.1c-6.3,1.5-11.3,2.8-12.6,3.2
	c-0.7,0.2-2.8,0.7-4.5,1.2c-3.2,0.8-4.7,1.2-10.1,2.7c-4,1.1-9.1,1.5-9.1,0.7c0-0.7,2.8-1.8,5.3-2.1c1.1-0.2,3-0.6,4.3-0.9
	c4.2-1.3,6.5-1.9,10.5-2.9c2.1-0.5,7.1-1.8,11.1-2.8c13.9-3.5,22.3-5.3,29.6-6.5c4.2-0.7,18-0.9,20.6-0.4c8.1,1.7,11,2.5,16.1,4.4
	c2.7,1.1,8.1,3.7,8.4,4.1c0.1,0.1,1,0.7,1.9,1.4c2.2,1.5,4.5,4.6,5.1,6.9c0.4,1.6,0.4,2.2-0.2,4.1c-0.7,2.4-1.3,3.2-4.6,6.6
	c-1.7,1.8-6.8,5.3-9.7,6.6c-2.5,1.2-4.7,2.1-5.1,2.1c-0.2,0-0.7,0.2-1.1,0.4c-0.4,0.2-1.8,0.7-3.2,1.2c-6.6,2.1-11.9,4.9-13.5,7.2
	c-2,2.9-1.4,6.2,1.6,9.3c2.7,2.7,5.5,3.6,12.4,4.1c8.6,0.6,10.3,1.1,14.3,4c2.7,2,4.8,4.2,6.1,6.5c0.8,1.4,1.1,2.3,1.1,4.1
	c0,4.8-3.7,9.2-12.1,14.8c-7.4,4.9-11,8.2-12.7,11.4c-2.2,4.5,1.1,10.8,8.3,16c1,0.7,1.8,1.6,1.8,1.9c0,0.7-3.2,2.1-4.6,2
	C206.9,119.4,205.7,118.8,204.9,118.2z"/>
</svg>
